<svg width="40" height="40" viewBox="0 0 40 40" fill="none" xmlns="http://www.w3.org/2000/svg">
<path d="M19.925 12.0875H28.2625C30.8021 12.0809 33.2356 11.0683 35.0302 9.27133C36.8248 7.4744 37.8342 5.03959 37.8375 2.5C37.8375 2.16848 37.7058 1.85054 37.4714 1.61612C37.237 1.3817 36.919 1.25 36.5875 1.25H32.425C30.7295 1.25085 29.0644 1.70136 27.5998 2.55557C26.1351 3.40978 24.9232 4.63714 24.0875 6.1125C23.2549 4.63726 22.0454 3.40967 20.5827 2.55531C19.1199 1.70095 17.4565 1.25049 15.7625 1.25H11.5875C11.256 1.25 10.9381 1.3817 10.7036 1.61612C10.4692 1.85054 10.3375 2.16848 10.3375 2.5C10.3408 5.04175 11.352 7.47844 13.1493 9.27573C14.9466 11.073 17.3833 12.0842 19.925 12.0875Z" fill="#1E1B1B"/>
<path d="M38.575 30C38.3126 29.3004 37.8064 28.7192 37.1495 28.3632C36.4927 28.0072 35.7293 27.9004 35 28.0625L30 29.0875C30.0122 28.846 30.0122 28.604 30 28.3625C29.9871 27.8678 29.8764 27.3806 29.6743 26.9289C29.4722 26.4772 29.1827 26.0699 28.8225 25.7306C28.4623 25.3913 28.0385 25.1267 27.5755 24.9519C27.1125 24.7772 26.6195 24.6958 26.125 24.7125C24.5007 24.7621 22.8884 24.4191 21.425 23.7125L19.0625 22.675C18.4281 22.4009 17.7221 22.3395 17.05 22.5C16.9632 22.5116 16.8788 22.5369 16.8 22.575L15.25 23.275C15.7077 24.5172 15.8285 25.8585 15.6 27.1625L14.125 35.0875C14.125 35.275 14.025 35.45 13.975 35.6375L20.6625 38.2125C21.5614 38.5695 22.5202 38.7519 23.4875 38.75C24.4772 38.7495 25.4575 38.5585 26.375 38.1875L36.7375 33.9875C37.4926 33.6801 38.1025 33.097 38.4437 32.3566C38.7849 31.6162 38.8318 30.7737 38.575 30Z" fill="#1E1B1B"/>
<path d="M10 21.6125L2.72503 20.5125C2.54415 20.4794 2.3582 20.4866 2.18043 20.5336C2.00266 20.5806 1.83745 20.6663 1.69658 20.7845C1.55571 20.9026 1.44265 21.0505 1.36546 21.2173C1.28828 21.3842 1.24886 21.5661 1.25003 21.75V36.75C1.25003 37.0815 1.38172 37.3995 1.61614 37.6339C1.85056 37.8683 2.1685 38 2.50003 38H8.00003C8.90947 37.9629 9.77636 37.6048 10.4468 36.9892C11.1173 36.3737 11.548 35.5405 11.6625 34.6375L13.1375 26.7C13.2522 26.0873 13.2438 25.4578 13.1129 24.8484C12.982 24.2389 12.7312 23.6616 12.375 23.15C12.1035 22.7466 11.7531 22.4024 11.3449 22.1381C10.9367 21.8739 10.4792 21.6951 10 21.6125Z" fill="#1E1B1B"/>
<path d="M35 27.05C34.6387 25.9524 33.9801 24.9764 33.0974 24.2306C32.2147 23.4847 31.1426 22.9982 30 22.825C29.6269 21.8335 29.0078 20.9531 28.201 20.2665C27.3941 19.5799 26.426 19.1097 25.3875 18.9V14.5875H22.8875V18.9C21.4352 19.2 20.1344 20.0008 19.2125 21.1625C19.5992 21.1889 19.9791 21.2775 20.3375 21.425L22.7 22.4625C24.0334 23.0974 25.4861 23.4425 26.9625 23.475H27.4C28.3926 23.4481 29.3553 23.8159 30.077 24.4978C30.7988 25.1797 31.2206 26.12 31.25 27.1125C31.2623 27.354 31.2623 27.596 31.25 27.8375L35 27.05Z" fill="#1E1B1B"/>
</svg>
