<svg width="41" height="40" viewBox="0 0 41 40" fill="none" xmlns="http://www.w3.org/2000/svg">
<path d="M16.3375 12.0875H24.6625C27.2042 12.0842 29.6409 11.073 31.4382 9.27573C33.2355 7.47844 34.2467 5.04175 34.25 2.5C34.25 2.16848 34.1183 1.85054 33.8839 1.61612C33.6495 1.3817 33.3315 1.25 33 1.25H28.8375C27.1404 1.25082 25.4741 1.70266 24.0091 2.55926C22.544 3.41587 21.333 4.64645 20.5 6.125C19.667 4.64645 18.456 3.41587 16.9909 2.55926C15.5259 1.70266 13.8596 1.25082 12.1625 1.25H8C7.66848 1.25 7.35054 1.3817 7.11612 1.61612C6.8817 1.85054 6.75 2.16848 6.75 2.5C6.75331 5.04175 7.76448 7.47844 9.56177 9.27573C11.3591 11.073 13.7958 12.0842 16.3375 12.0875Z" fill="#1E1B1B"/>
<path d="M27.5875 23.75C27.1393 22.4885 26.3615 21.3699 25.335 20.5105C24.3085 19.651 23.0707 19.082 21.75 18.8625V14.5875H19.25V18.8625C17.9293 19.082 16.6915 19.651 15.665 20.5105C14.6385 21.3699 13.8607 22.4885 13.4125 23.75C11.4234 23.8611 9.55984 24.7578 8.23185 26.2428C6.90386 27.7279 6.22019 29.6796 6.33125 31.6688C6.44231 33.6579 7.339 35.5214 8.82405 36.8494C10.3091 38.1774 12.2609 38.8611 14.25 38.75H26.75C28.7391 38.8611 30.6909 38.1774 32.1759 36.8494C33.661 35.5214 34.5577 33.6579 34.6687 31.6688C34.7798 29.6796 34.0961 27.7279 32.7682 26.2428C31.4402 24.7578 29.5766 23.8611 27.5875 23.75Z" fill="#1E1B1B"/>
</svg>
