<svg width="40" height="40" viewBox="0 0 40 40" fill="none" xmlns="http://www.w3.org/2000/svg">
<path d="M27.6625 31.25L26.825 31.725C25.9971 32.201 25.0187 32.3431 24.0896 32.1224C23.1605 31.9018 22.3505 31.3349 21.825 30.5375C21.7054 30.3648 21.5442 30.2251 21.3563 30.1311C21.1685 30.0372 20.9599 29.9921 20.75 30C20.4694 29.9897 20.1936 30.074 19.9668 30.2396C19.74 30.4051 19.5756 30.6422 19.5 30.9125C18.6819 33.4566 18.6514 36.1884 19.4125 38.75H20C22.9832 38.7442 25.9219 38.0267 28.572 36.657C31.2222 35.2874 33.5073 33.3052 35.2375 30.875C34.0385 30.321 32.7231 30.0656 31.4039 30.1309C30.0847 30.1962 28.8009 30.5802 27.6625 31.25Z" fill="#1E1B1B"/>
<path d="M32.9625 20.075C32.9625 20.075 32.9625 20.075 32.9625 20H21.25V12.0875H24.1625C26.7042 12.0842 29.1409 11.073 30.9382 9.27573C32.7355 7.47844 33.7467 5.04175 33.75 2.5C33.75 2.16848 33.6183 1.85054 33.3839 1.61612C33.1495 1.3817 32.8315 1.25 32.5 1.25H28.3375C26.6419 1.25085 24.9769 1.70136 23.5122 2.55557C22.0476 3.40978 20.8356 4.63714 20 6.1125C19.1644 4.63714 17.9524 3.40978 16.4878 2.55557C15.0231 1.70136 13.3581 1.25085 11.6625 1.25H7.5C7.16848 1.25 6.85054 1.3817 6.61612 1.61612C6.3817 1.85054 6.25 2.16848 6.25 2.5C6.25331 5.04175 7.26448 7.47844 9.06177 9.27573C10.8591 11.073 13.2958 12.0842 15.8375 12.0875H18.75V20H14.0125C14.9281 21.2413 15.5642 22.6661 15.8771 24.1765C16.19 25.6869 16.1722 27.2471 15.825 28.75L13.8125 37.625C14.7721 37.9666 15.759 38.2258 16.7625 38.4C16.5074 37.2846 16.3775 36.1442 16.375 35C16.3806 33.3631 16.6334 31.7364 17.125 30.175C17.3684 29.4029 17.8505 28.7279 18.5019 28.2472C19.1533 27.7665 19.9404 27.5049 20.75 27.5C21.3698 27.4917 21.9814 27.6425 22.5263 27.9379C23.0712 28.2333 23.5313 28.6636 23.8625 29.1875C24.0377 29.4663 24.3159 29.6647 24.6365 29.7396C24.9572 29.8145 25.2944 29.7598 25.575 29.5875L26.4125 29.1C27.9416 28.1972 29.6717 27.6901 31.4462 27.6246C33.2207 27.5591 34.9835 27.9373 36.575 28.725C37.4093 27.1522 38.0154 25.4687 38.375 23.725H37.5875C36.5256 23.6984 35.5009 23.3284 34.6671 22.6703C33.8332 22.0122 33.2352 21.1016 32.9625 20.075Z" fill="#1E1B1B"/>
<path d="M35.625 20C35.8328 20.3482 36.125 20.6383 36.4745 20.8437C36.8241 21.0491 37.2198 21.163 37.625 21.175H38.75C38.75 20.775 38.8125 20.3875 38.8125 19.9875L35.625 20Z" fill="#1E1B1B"/>
<path d="M11.425 20.7375C11.25 20.5 11.0375 20.25 10.8625 20H1.25C1.25459 23.4513 2.21165 26.8343 4.01578 29.7765C5.8199 32.7187 8.40108 35.1058 11.475 36.675L13.3875 28.2375C13.6792 26.9896 13.6774 25.691 13.3824 24.4439C13.0875 23.1968 12.5073 22.035 11.6875 21.05L11.425 20.7375Z" fill="#1E1B1B"/>
</svg>
