<svg width="46" height="46" viewBox="0 0 46 46" fill="none" xmlns="http://www.w3.org/2000/svg">
<g clip-path="url(#clip0_190_6991)">
<path d="M32.9762 12.9375V32.4875H19.09C19.0332 31.6054 18.6428 30.778 17.998 30.1734C17.3532 29.5688 16.5024 29.2323 15.6184 29.2323C14.7345 29.2323 13.8837 29.5688 13.2389 30.1734C12.5941 30.778 12.2037 31.6054 12.1469 32.4875H8.625V12.9375H32.9762Z" stroke="#B4E4AC" stroke-width="3" stroke-linecap="round" stroke-linejoin="round"/>
<path d="M44.5628 25.5875V32.4875H42.2484C42.1916 31.6054 41.8012 30.778 41.1564 30.1734C40.5116 29.5687 39.6608 29.2323 38.7769 29.2323C37.8929 29.2323 37.0422 29.5687 36.3974 30.1734C35.7526 30.778 35.3621 31.6054 35.3053 32.4875H32.9766V18.6875H37.8209L44.5628 25.5875Z" stroke="#B4E4AC" stroke-width="3" stroke-linecap="round" stroke-linejoin="round"/>
<path d="M44.5628 25.5875V32.4875H42.2484C42.1916 31.6054 41.8012 30.778 41.1564 30.1734C40.5116 29.5687 39.6608 29.2323 38.7769 29.2323C37.8929 29.2323 37.0422 29.5687 36.3974 30.1734C35.7526 30.778 35.3621 31.6054 35.3053 32.4875H32.9766V25.5875H44.5628Z" stroke="#B4E4AC" stroke-width="3" stroke-linecap="round" stroke-linejoin="round"/>
<path d="M15.6116 35.9375C17.5328 35.9375 19.0903 34.3929 19.0903 32.4875C19.0903 30.5821 17.5328 29.0375 15.6116 29.0375C13.6903 29.0375 12.1328 30.5821 12.1328 32.4875C12.1328 34.3929 13.6903 35.9375 15.6116 35.9375Z" stroke="#B4E4AC" stroke-width="3" stroke-linecap="round" stroke-linejoin="round"/>
<path d="M38.7698 35.9375C40.691 35.9375 42.2485 34.3929 42.2485 32.4875C42.2485 30.5821 40.691 29.0375 38.7698 29.0375C36.8485 29.0375 35.291 30.5821 35.291 32.4875C35.291 34.3929 36.8485 35.9375 38.7698 35.9375Z" stroke="#B4E4AC" stroke-width="3" stroke-linecap="round" stroke-linejoin="round"/>
<path d="M1.4375 15.2375H5.18937" stroke="#B4E4AC" stroke-width="3" stroke-linecap="round" stroke-linejoin="round"/>
<path d="M1.4375 19.8375H5.18937" stroke="#B4E4AC" stroke-width="3" stroke-linecap="round" stroke-linejoin="round"/>
<path d="M1.4375 24.4375H5.18937" stroke="#B4E4AC" stroke-width="3" stroke-linecap="round" stroke-linejoin="round"/>
</g>
<defs>
<clipPath id="clip0_190_6991">
<rect width="46" height="46" fill="white"/>
</clipPath>
</defs>
</svg>
