<svg width="32" height="35" viewBox="0 0 32 35" fill="none" xmlns="http://www.w3.org/2000/svg">
<path fill-rule="evenodd" clip-rule="evenodd" d="M16 0C14.4906 0 11.9685 0.579688 9.59501 1.225C7.16689 1.88125 4.71908 2.65781 3.2797 3.12812C2.6779 3.32686 2.14437 3.69133 1.74039 4.17966C1.33642 4.66799 1.07839 5.26037 0.995949 5.88875C-0.307801 15.6822 2.71751 22.9403 6.38814 27.7419C7.94472 29.7959 9.8007 31.6046 11.8941 33.1078C12.7385 33.705 13.5216 34.1622 14.1866 34.475C14.7991 34.7638 15.4575 35 16 35C16.5425 35 17.1988 34.7638 17.8135 34.475C18.6151 34.0853 19.3821 33.628 20.106 33.1078C22.1994 31.6047 24.0554 29.7959 25.6119 27.7419C29.2825 22.9403 32.3078 15.6822 31.0041 5.88875C30.9218 5.26007 30.6638 4.66734 30.2599 4.17863C29.8559 3.68993 29.3223 3.32507 28.7203 3.12594C26.6308 2.44084 24.5251 1.80628 22.405 1.22281C20.0316 0.581875 17.5094 0 16 0ZM20.6944 11.2569C20.8998 11.0515 21.1783 10.9361 21.4688 10.9361C21.7592 10.9361 22.0378 11.0515 22.2431 11.2569C22.4485 11.4623 22.5639 11.7408 22.5639 12.0312C22.5639 12.3217 22.4485 12.6002 22.2431 12.8056L15.6806 19.3681C15.579 19.47 15.4583 19.5508 15.3255 19.6059C15.1926 19.6611 15.0501 19.6895 14.9063 19.6895C14.7624 19.6895 14.6199 19.6611 14.4871 19.6059C14.3542 19.5508 14.2335 19.47 14.1319 19.3681L10.8506 16.0869C10.7489 15.9852 10.6683 15.8645 10.6132 15.7316C10.5582 15.5987 10.5299 15.4563 10.5299 15.3125C10.5299 15.1687 10.5582 15.0263 10.6132 14.8934C10.6683 14.7605 10.7489 14.6398 10.8506 14.5381C10.9523 14.4364 11.0731 14.3558 11.2059 14.3007C11.3388 14.2457 11.4812 14.2174 11.625 14.2174C11.7688 14.2174 11.9112 14.2457 12.0441 14.3007C12.177 14.3558 12.2977 14.4364 12.3994 14.5381L14.9063 17.0472L20.6944 11.2569Z" fill="#B4E4AC"/>
</svg>
