<svg width="42" height="30" viewBox="0 0 42 30" fill="none" xmlns="http://www.w3.org/2000/svg">
<path d="M39.375 0H2.625C1.17188 0 0.009375 1.17188 0 2.625V2.65313V27.3469V27.375C0.01875 28.8281 1.17188 30 2.625 30H39.375C40.8375 30 42 28.8094 42 27.3469V2.65313C42 1.19063 40.8375 0 39.375 0ZM4.22813 3H37.7625C38.4094 3 38.8969 3.47813 38.9906 4.125V6H3V4.09687C3.09375 3.45937 3.59063 3 4.22813 3ZM37.7719 27H4.22813C3.58125 27 3.09375 26.5406 3 25.9031V15H39V25.875C38.9063 26.5219 38.4094 27 37.7719 27Z" fill="#B4E4AC"/>
<path d="M24 19.5H6V21H24V19.5Z" fill="#B4E4AC"/>
<path d="M15 22.5H6V24H15V22.5Z" fill="#B4E4AC"/>
<path d="M36 19.5H30V24H36V19.5Z" fill="#B4E4AC"/>
</svg>
