<svg width="26" height="34" viewBox="0 0 26 34" fill="none" xmlns="http://www.w3.org/2000/svg">
<path d="M3.11719 33.4746H22.8828C24.1328 33.4746 25.1484 32.459 25.1484 31.209V5.60352C25.1484 4.35352 24.1328 3.33789 22.8828 3.33789H19.9727V1.25781C19.9727 0.857422 19.6406 0.525391 19.2402 0.525391C18.8398 0.525391 18.5078 0.857422 18.5078 1.25781V3.33789H13.7324V1.25781C13.7324 0.857422 13.4004 0.525391 13 0.525391C12.5996 0.525391 12.2676 0.857422 12.2676 1.25781V3.33789H7.49219V1.25781C7.49219 0.857422 7.16016 0.525391 6.75977 0.525391C6.35938 0.525391 6.02734 0.857422 6.02734 1.25781V3.33789H3.11719C1.86719 3.33789 0.851562 4.35352 0.851562 5.60352V31.1992C0.851562 32.4492 1.86719 33.4746 3.11719 33.4746ZM2.31641 5.60352C2.31641 5.16406 2.67773 4.80273 3.11719 4.80273H6.02734V6.90234C6.02734 7.30273 6.35938 7.63477 6.75977 7.63477C7.16016 7.63477 7.49219 7.30273 7.49219 6.90234V4.80273H12.2676V6.90234C12.2676 7.30273 12.5996 7.63477 13 7.63477C13.4004 7.63477 13.7324 7.30273 13.7324 6.90234V4.80273H18.5078V6.90234C18.5078 7.30273 18.8398 7.63477 19.2402 7.63477C19.6406 7.63477 19.9727 7.30273 19.9727 6.90234V4.80273H22.8828C23.3223 4.80273 23.6836 5.16406 23.6836 5.60352V31.1992C23.6836 31.6387 23.3223 32 22.8828 32H3.11719C2.67773 32 2.31641 31.6387 2.31641 31.1992V5.60352Z" fill="#B4E4AC"/>
<path d="M5.76318 13.4258C5.90967 13.5723 6.09522 13.6406 6.28076 13.6406C6.46631 13.6406 6.65186 13.5723 6.79834 13.4258L9.38623 10.8379C9.66943 10.5547 9.66943 10.0859 9.38623 9.80273C9.10303 9.51953 8.63428 9.51953 8.35107 9.80273L6.28076 11.873L5.52881 11.1211C5.24561 10.8379 4.77686 10.8379 4.49365 11.1211C4.21045 11.4043 4.21045 11.873 4.49365 12.1562L5.76318 13.4258Z" fill="#B4E4AC"/>
<path d="M11.252 12.3418H20.9883C21.3887 12.3418 21.7207 12.0098 21.7207 11.6094C21.7207 11.209 21.3887 10.877 20.9883 10.877H11.252C10.8516 10.877 10.5195 11.209 10.5195 11.6094C10.5195 12.0098 10.8516 12.3418 11.252 12.3418Z" fill="#B4E4AC"/>
<path d="M5.76318 20.2227C5.90967 20.3691 6.09522 20.4375 6.28076 20.4375C6.46631 20.4375 6.65186 20.3691 6.79834 20.2227L9.38623 17.6348C9.66943 17.3516 9.66943 16.8828 9.38623 16.5996C9.10303 16.3164 8.63428 16.3164 8.35107 16.5996L6.28076 18.6602L5.52881 17.9082C5.24561 17.625 4.77686 17.625 4.49365 17.9082C4.21045 18.1914 4.21045 18.6602 4.49365 18.9434L5.76318 20.2227Z" fill="#B4E4AC"/>
<path d="M11.252 19.1387H20.9883C21.3887 19.1387 21.7207 18.8066 21.7207 18.4062C21.7207 18.0059 21.3887 17.6738 20.9883 17.6738H11.252C10.8516 17.6738 10.5195 18.0059 10.5195 18.4062C10.5195 18.8066 10.8516 19.1387 11.252 19.1387Z" fill="#B4E4AC"/>
<path d="M5.76318 27.0098C5.90967 27.1563 6.09522 27.2246 6.28076 27.2246C6.46631 27.2246 6.65186 27.1563 6.79834 27.0098L9.38623 24.4219C9.66943 24.1387 9.66943 23.6699 9.38623 23.3867C9.10303 23.1035 8.63428 23.1035 8.35107 23.3867L6.28076 25.457L5.52881 24.7051C5.24561 24.4219 4.77686 24.4219 4.49365 24.7051C4.21045 24.9883 4.21045 25.457 4.49365 25.7402L5.76318 27.0098Z" fill="#B4E4AC"/>
<path d="M11.252 25.9355H20.9883C21.3887 25.9355 21.7207 25.6035 21.7207 25.2031C21.7207 24.8027 21.3887 24.4707 20.9883 24.4707H11.252C10.8516 24.4707 10.5195 24.8027 10.5195 25.2031C10.5195 25.6035 10.8516 25.9355 11.252 25.9355Z" fill="#B4E4AC"/>
</svg>
