<svg width="26" height="25" viewBox="0 0 26 25" fill="none" xmlns="http://www.w3.org/2000/svg">
<path fill-rule="evenodd" clip-rule="evenodd" d="M13.4497 24.9999L13.4609 25H13.457L13.4497 24.9999ZM13.5379 25H13.534L13.5452 24.9999L13.5379 25ZM13.4115 24.9997L13.4236 24.9998H13.4166L13.4115 24.9997ZM13.5782 24.9998H13.5713L13.5834 24.9997L13.5782 24.9998ZM13.3747 24.9994L13.3827 24.9995L13.3763 24.9994H13.3747ZM13.6186 24.9994L13.6121 24.9995L13.6202 24.9994H13.6186ZM13.6589 24.999L13.6561 24.9991L13.667 24.9989L13.6589 24.999ZM13.3279 24.9989L13.3388 24.9991L13.336 24.999L13.3279 24.9989ZM13.6992 24.9984L13.6926 24.9985L13.706 24.9983L13.6992 24.9984ZM13.2888 24.9983L13.3023 24.9985L13.2957 24.9984L13.2888 24.9983ZM13.7394 24.9977L13.7305 24.9979L13.7429 24.9976L13.7394 24.9977ZM13.2519 24.9976L13.2643 24.9979L13.2554 24.9977L13.2519 24.9976ZM13.2062 24.9967L13.2172 24.997L13.2152 24.9969L13.2062 24.9967ZM13.7797 24.9969L13.7777 24.997L13.7887 24.9967L13.7797 24.9969ZM13.166 24.9957L13.1811 24.9961L13.175 24.9959L13.166 24.9957ZM13.8198 24.9959L13.8137 24.9961L13.8288 24.9957L13.8198 24.9959ZM13.86 24.9949L13.8502 24.9951L13.8656 24.9947L13.86 24.9949ZM13.1292 24.9947L13.1447 24.9951L13.1348 24.9949L13.1292 24.9947ZM13.0941 24.9936L13.1051 24.994L13.0947 24.9936L13.0852 24.9933L13.0941 24.9936ZM13.9002 24.9936L13.8898 24.994L13.9008 24.9936L13.9096 24.9933L13.9002 24.9936ZM13.9403 24.9923L13.9348 24.9925L13.9516 24.9919L13.9403 24.9923ZM13.0432 24.9919L13.0601 24.9925L13.0546 24.9923L13.0432 24.9919ZM13.0067 24.9906L13.0243 24.9912L13.0145 24.9909L13.0067 24.9906ZM13.9803 24.9909L13.9705 24.9912L13.9882 24.9906L13.9803 24.9909ZM12.9708 24.9891L12.9881 24.9898L12.9745 24.9893L12.9708 24.9891ZM14.0203 24.9893L14.0068 24.9898L14.0241 24.9891L14.0203 24.9893ZM12.9205 24.9869L12.939 24.9877L12.9345 24.9876L12.9205 24.9869ZM14.0604 24.9876L14.0558 24.9877L14.0744 24.9869L14.0604 24.9876ZM12.8844 24.9852L12.9036 24.9861L12.8946 24.9857L12.8844 24.9852ZM14.1003 24.9857L14.0912 24.9861L14.1105 24.9852L14.1003 24.9857ZM12.8489 24.9834L12.8682 24.9844L12.8546 24.9838L12.8489 24.9834ZM14.1403 24.9838L14.1266 24.9844L14.146 24.9834L14.1403 24.9838ZM14.1802 24.9817L14.1625 24.9826L14.1782 24.9818L14.1967 24.9807L14.1802 24.9817ZM12.8167 24.9818L12.8323 24.9826L12.8147 24.9817L12.7982 24.9807L12.8167 24.9818ZM14.22 24.9794L14.2122 24.9799L14.2321 24.9787L14.22 24.9794ZM12.7628 24.9787L12.7826 24.9799L12.7748 24.9794L12.7628 24.9787ZM12.7276 24.9766L12.7473 24.9778L12.735 24.9771L12.7276 24.9766ZM14.2599 24.9771L14.2475 24.9778L14.2673 24.9766L14.2599 24.9771ZM12.6939 24.9745L12.7117 24.9757L12.6951 24.9746L12.6784 24.9736L12.6939 24.9745ZM14.2997 24.9746L14.2831 24.9757L14.301 24.9745L14.3164 24.9736L14.2997 24.9746ZM14.3395 24.9721L14.3335 24.9724L14.3524 24.9712L14.3395 24.9721ZM12.6425 24.9712L12.6614 24.9724L12.6554 24.9721L12.6425 24.9712ZM12.6073 24.9687L12.6258 24.97L12.6156 24.9694L12.6073 24.9687ZM14.3792 24.9694L14.3691 24.97L14.3876 24.9687L14.3792 24.9694ZM12.5721 24.9662L12.5892 24.9675L12.576 24.9665L12.5721 24.9662ZM14.4189 24.9665L14.4057 24.9675L14.4227 24.9662L14.4189 24.9665ZM12.5249 24.9627L12.5399 24.9638L12.5363 24.9636L12.5249 24.9627ZM14.4586 24.9636L14.455 24.9638L14.4699 24.9627L14.4586 24.9636ZM14.4982 24.9605L14.4911 24.961L14.5063 24.9598L14.4982 24.9605ZM12.4886 24.9598L12.5038 24.961L12.4967 24.9605L12.4886 24.9598ZM12.4532 24.9569L12.4661 24.958L12.457 24.9573L12.4532 24.9569ZM14.5379 24.9573L14.5288 24.958L14.5417 24.9569L14.5379 24.9573ZM12.4142 24.9536L12.4181 24.954L12.4175 24.9539L12.4142 24.9536ZM14.5774 24.9539L14.5768 24.954L14.5806 24.9536L14.5774 24.9539ZM14.617 24.9505L14.6135 24.9508L14.6223 24.95L14.617 24.9505ZM12.3726 24.95L12.3814 24.9508L12.3779 24.9505L12.3726 24.95ZM12.336 24.9467L12.3426 24.9473L12.3385 24.9469L12.336 24.9467ZM14.6564 24.9469L14.6523 24.9473L14.6589 24.9467L14.6564 24.9469ZM11.5443 24.848C5.5717 23.9093 0.997437 18.7346 0.997437 12.5C0.997437 5.60111 6.59851 3.05176e-05 13.4974 3.05176e-05C20.3964 3.05176e-05 25.9974 5.60111 25.9974 12.5C25.9974 18.7346 21.4232 23.9093 15.4506 24.848V16.1133H18.3632L18.9174 12.5H15.4506V10.1553C15.4506 9.16673 15.9348 8.20316 17.4876 8.20316H19.0638V5.12698C19.0638 5.12698 17.6334 4.88284 16.2657 4.88284C13.4105 4.88284 11.5443 6.61331 11.5443 9.74612V12.5H8.37048V16.1133H11.5443V24.848Z" fill="white"/>
</svg>
