<svg width="26" height="25" viewBox="0 0 26 25" fill="none" xmlns="http://www.w3.org/2000/svg">
<path d="M13.4974 5.99799C9.96921 5.99799 7.04582 8.87097 7.04582 12.4496C7.04582 16.0282 9.91881 18.9012 13.4974 18.9012C17.0761 18.9012 19.949 15.9778 19.949 12.4496C19.949 8.92137 17.0257 5.99799 13.4974 5.99799ZM13.4974 16.5827C11.2293 16.5827 9.36437 14.7177 9.36437 12.4496C9.36437 10.1815 11.2293 8.31653 13.4974 8.31653C15.7656 8.31653 17.6305 10.1815 17.6305 12.4496C17.6305 14.7177 15.7656 16.5827 13.4974 16.5827Z" fill="white"/>
<path d="M20.2011 7.30849C21.0083 7.30849 21.6628 6.65407 21.6628 5.84679C21.6628 5.03952 21.0083 4.3851 20.2011 4.3851C19.3938 4.3851 18.7394 5.03952 18.7394 5.84679C18.7394 6.65407 19.3938 7.30849 20.2011 7.30849Z" fill="white"/>
<path d="M23.9813 2.06653C22.6708 0.705645 20.8059 0 18.689 0H8.3059C3.92082 0 0.997437 2.92339 0.997437 7.30847V17.6411C0.997437 19.8085 1.70308 21.6734 3.11437 23.0343C4.47526 24.3448 6.28978 25 8.35631 25H18.6386C20.8059 25 22.6204 24.2944 23.9309 23.0343C25.2918 21.7238 25.9974 19.8589 25.9974 17.6915V7.30847C25.9974 5.19153 25.2918 3.37702 23.9813 2.06653ZM23.7797 17.6915C23.7797 19.254 23.2253 20.5141 22.318 21.371C21.4107 22.2278 20.1507 22.6815 18.6386 22.6815H8.35631C6.84421 22.6815 5.58413 22.2278 4.67687 21.371C3.76961 20.4637 3.31598 19.2036 3.31598 17.6411V7.30847C3.31598 5.79637 3.76961 4.53629 4.67687 3.62903C5.53373 2.77218 6.84421 2.31855 8.35631 2.31855H18.7394C20.2515 2.31855 21.5115 2.77218 22.4188 3.67944C23.2757 4.58669 23.7797 5.84677 23.7797 7.30847V17.6915Z" fill="white"/>
</svg>
