<svg width="33" height="25" viewBox="0 0 33 25" fill="none" xmlns="http://www.w3.org/2000/svg">
<path d="M32.6634 3.41531L31.3941 2.11749L19.6363 14.1394C18.1665 15.6421 15.6947 15.6421 14.225 14.1394L2.46716 2.1858L1.19785 3.48361L9.94941 12.4317L1.19785 21.3798L2.46716 22.6776L11.2187 13.7295L12.9557 15.5055C14.0246 16.5984 15.4275 17.2131 16.8972 17.2131C18.3669 17.2131 19.7699 16.5984 20.8388 15.5055L22.5757 13.7295L31.3273 22.6776L32.5966 21.3798L23.845 12.4317L32.6634 3.41531Z" fill="white"/>
<path d="M30.1916 25H3.80329C2.26675 25 0.997437 23.7022 0.997437 22.1311V2.86885C0.997437 1.29781 2.26675 0 3.80329 0H30.1916C31.7281 0 32.9974 1.29781 32.9974 2.86885V22.1311C32.9974 23.7022 31.7281 25 30.1916 25ZM3.73648 1.84426C3.20203 1.84426 2.8012 2.25409 2.8012 2.80054V22.0628C2.8012 22.6093 3.20203 23.0191 3.73648 23.0191H30.1248C30.6592 23.0191 31.0601 22.6093 31.0601 22.0628V2.80054C31.0601 2.25409 30.6592 1.84426 30.1248 1.84426H3.73648Z" fill="white"/>
</svg>
