<svg width="25" height="25" viewBox="0 0 25 25" fill="none" xmlns="http://www.w3.org/2000/svg">
<path fill-rule="evenodd" clip-rule="evenodd" d="M11.2256 5.31857C11.958 6.1304 11.7257 7.05012 11.0782 7.92279C10.9247 8.12969 10.7477 8.33355 10.5339 8.55819C10.4314 8.66601 10.3514 8.7471 10.184 8.9146C9.80402 9.29498 9.48457 9.61461 9.22566 9.87349C9.10011 9.99903 9.9573 11.7119 11.6209 13.3772C13.2835 15.0415 14.9964 15.8992 15.1225 15.773L16.0802 14.8148C16.6076 14.2869 16.8869 14.0322 17.2707 13.7804C18.0686 13.2569 18.9389 13.1147 19.6728 13.771C22.0693 15.4852 23.4255 16.5372 24.0899 17.2275C25.3857 18.574 25.2159 20.6466 24.0972 21.829C23.7093 22.239 23.2174 22.7311 22.6365 23.2912C19.1224 26.8072 11.7061 24.6675 6.02229 18.9781C0.337191 13.2874 -1.80138 5.87033 1.70533 2.36174C2.33488 1.72229 2.54245 1.51483 3.15558 0.910687C4.29713 -0.214114 6.46537 -0.390235 7.78343 0.9118C8.47674 1.59667 9.58206 3.01883 11.2256 5.31857ZM17.847 16.5822L16.8891 17.5406C15.2609 19.1697 12.488 17.7811 9.85388 15.1444C7.21796 12.5058 5.83084 9.73398 7.45961 8.10534C7.71817 7.84681 8.03731 7.52748 8.41704 7.14739C8.57025 6.99403 8.64033 6.92299 8.72445 6.83458C8.83906 6.71413 8.93323 6.60834 9.00864 6.51472C7.55208 4.48575 6.56193 3.21794 6.02815 2.69065C5.75248 2.41834 5.13522 2.46848 4.90861 2.69177C4.30423 3.28728 4.10558 3.48584 3.47856 4.12266C1.2234 6.37906 2.9498 12.3666 7.78929 17.2109C12.6273 22.0536 18.6139 23.7808 20.8862 21.5075C21.4581 20.9559 21.9242 20.4896 22.2829 20.1105C22.5421 19.8365 22.5884 19.2712 22.2902 18.9614C21.7936 18.4454 20.5778 17.4974 18.4784 15.9898C18.3254 16.113 18.1373 16.2916 17.847 16.5822Z" fill="white"/>
</svg>
