<svg width="586" height="330" viewBox="0 0 586 330" fill="none" xmlns="http://www.w3.org/2000/svg">
<g clip-path="url(#clip0_107_346)">
<path d="M328.85 44.7636C328.169 45.1855 327.517 45.6538 326.899 46.1653C325.206 47.7332 323.635 49.4362 321.88 50.9314C320.668 51.9151 319.357 52.7677 317.969 53.4753C316.676 54.1607 315.259 54.6175 313.73 55.2509C313.64 55.6773 313.606 56.1136 313.627 56.5489C314.093 59.168 313.999 61.8578 313.351 64.437C312.703 67.0162 311.516 69.425 309.87 71.5012C308.618 73.1314 307.284 74.6994 305.764 76.5269C303.206 72.8536 301.885 68.4444 301.997 63.9524C301.997 59.3732 303.239 55.1471 304.789 50.8691C301.362 48.3717 297.713 46.2025 293.888 44.3897C288.079 41.4447 281.711 39.7981 275.217 39.5614C270.691 39.4548 266.201 40.3811 262.078 42.2715C253.753 46.0615 247.594 52.3539 242.462 59.8716C242.39 59.9755 242.462 60.1727 242.401 60.6089C243.17 60.8373 244.022 61.0761 244.844 61.3565C250.469 63.2567 255.888 65.5099 260.538 69.4141C263.253 71.5846 265.342 74.4537 266.584 77.721C266.813 78.4096 267.217 79.0254 267.754 79.5069C269.438 80.8257 271.214 82.0094 272.887 83.1931C276.828 81.1891 279.856 81.5525 281.92 84.1796C282.8 85.2893 283.283 86.6676 283.291 88.0904C283.298 89.5132 282.83 90.8967 281.961 92.0159C281.093 93.1351 279.875 93.9241 278.507 94.2546C277.139 94.5851 275.701 94.4377 274.426 93.8363C271.347 92.4033 270.444 89.6828 271.439 84.9272C270.844 84.4807 270.208 83.9823 269.561 83.5046C268.914 83.027 268.226 82.5701 267.282 81.8951C266.902 86.6081 265.112 91.0921 262.15 94.75C265.352 94.8746 268.309 94.0751 271.018 95.4872C269.92 98.9657 265.701 101.001 262.314 100.617C262.16 100.617 261.996 100.534 261.832 100.523C260.198 100.439 258.611 99.9444 257.214 99.0853C255.816 98.2261 254.652 97.0289 253.825 95.6015C253.275 94.8695 252.881 94.0304 252.668 93.1369C252.454 92.2435 252.425 91.3149 252.583 90.4097C253.021 88.6684 253.563 86.9555 254.205 85.2802C257.551 86.1317 258.916 87.8553 259.984 92.3099C265.599 86.6508 265.116 80.1715 261.257 75.1355C257.982 70.8782 253.558 68.22 248.662 66.3302C245.929 65.1965 243.029 64.5264 240.081 64.3469C239.476 64.2855 238.867 64.4205 238.343 64.7322C237.819 65.044 237.407 65.5164 237.166 66.081C233.205 72.9711 230.102 80.33 227.927 87.9903C224.602 99.8587 221.604 111.873 218.494 123.772C215.897 133.72 213.136 143.605 208.958 153.023C207.932 155.442 206.679 157.809 205.479 160.166C204.278 162.524 204.452 163.365 206.505 165.026C206.998 165.421 207.47 165.825 208.127 166.365C207.408 166.656 206.895 166.885 206.372 167.072C202.243 168.565 198.729 171.417 196.394 175.171C192.795 180.709 189.106 186.198 185.329 191.639C177.613 202.5 168.366 212.159 157.881 220.308L156.547 221.409C156.485 221.409 156.475 221.554 156.362 221.814C156.736 222.024 157.128 222.201 157.532 222.343C168.708 225.277 180.061 227.47 191.519 228.906C197.307 229.615 203.142 229.861 208.969 229.643C215.959 229.3 222.836 228.22 229.046 224.617C230.381 223.838 231.602 222.883 232.536 222.25C232.054 219.425 231.325 217.058 231.294 214.618C231.346 211.805 232.422 209.111 234.316 207.051C236.21 204.991 238.789 203.711 241.559 203.456C244.347 203.234 247.123 204.023 249.389 205.682C251.655 207.341 253.264 209.761 253.928 212.51C254.419 214.867 254.27 217.314 253.497 219.592C251.074 227.473 245.5 232.104 238.1 234.772C232.81 236.609 227.268 237.594 221.676 237.69C217.335 237.955 212.981 237.955 208.64 237.69C201.568 237.067 194.495 236.174 187.464 235.063C175.425 233.044 163.503 230.361 151.753 227.026C151.029 226.794 150.259 226.744 149.511 226.882C148.763 227.019 148.06 227.34 147.463 227.815C135.15 236.223 121.429 242.296 106.968 245.737C98.381 247.862 89.632 249.251 80.814 249.891C74.0281 250.425 67.2148 250.509 60.4181 250.14C45.791 249.289 31.4409 246.911 17.8197 241.21C12.7366 239.233 8.13313 236.174 4.32166 232.239C1.60408 229.404 0.052116 225.632 -0.0202967 221.684C-0.0927094 217.736 1.31984 213.908 3.93161 210.973C7.04414 207.747 10.9759 205.451 15.2946 204.338C21.0763 202.685 27.0545 201.839 33.0628 201.825C37.8974 201.732 42.7526 201.711 47.577 202.012C54.598 202.459 61.5883 203.248 68.5888 203.871C69.3997 203.944 70.2106 203.964 71.2268 204.016C73.9675 195.315 72.2533 187.403 67.2339 180.186C61.8449 172.419 54.3106 168.764 44.6516 169.48C44.5426 170.043 44.4706 170.612 44.436 171.183C44.436 175.825 44.436 180.529 44.631 185.129C44.8671 189.978 46.3452 194.266 51.1081 196.55C51.2107 196.613 51.2518 196.82 51.4057 197.111H17.5323C18.4819 196.483 19.3874 195.789 20.2422 195.034C22.758 192.47 24.2243 189.04 24.348 185.43C24.5328 182.626 24.5944 179.802 24.697 176.998C24.8202 173.561 23.8348 170.633 21.0223 168.494C20.2524 167.902 19.5339 167.248 18.6306 166.49C19.2568 165.909 19.7597 165.389 20.314 164.964C21.3665 164.159 22.2506 163.15 22.9149 161.997C23.5792 160.844 24.0105 159.569 24.1838 158.245C24.7694 153.984 24.6863 149.657 23.9375 145.422C23.2805 141.414 21.4534 138.101 16.9985 136.129H75.0555C75.4661 142.182 75.887 148.246 76.3181 154.424C76.082 154.341 75.7843 154.331 75.7125 154.196C73.6596 149.907 69.8513 147.737 65.571 146.543C62.4887 145.719 59.3314 145.215 56.148 145.038C52.3398 144.799 48.4906 145.038 44.5284 145.038V160.883C45.2059 160.945 45.832 161.049 46.4582 161.049C54.6775 161.248 62.7607 163.217 70.1696 166.822C73.7253 168.328 77.002 170.435 79.8594 173.052C85.3921 178.462 88.7281 184.91 88.8821 192.781C88.9713 195.019 88.9061 197.26 88.687 199.489C88.4407 201.69 87.8351 203.85 87.3321 206.29C88.7794 206.581 90.1857 206.934 91.6022 207.152C106.671 209.509 121.565 212.655 136.325 216.497C138.153 216.975 140.041 217.245 141.817 217.847C142.354 218.047 142.935 218.091 143.495 217.976C144.055 217.86 144.572 217.589 144.989 217.193C150.542 212.541 156.28 208.066 161.587 203.175C165.597 199.386 169.404 195.383 172.991 191.182C175.906 188.042 178.23 184.389 179.848 180.404C180.36 179.18 180.706 177.891 180.874 176.572C181.063 175.2 180.821 173.802 180.182 172.576C179.542 171.35 178.539 170.358 177.312 169.74C175.462 168.863 173.547 168.134 171.585 167.56C170.558 167.175 169.429 166.895 168.095 166.521L172.2 162.679L155.572 136.45C157.224 135.942 185.545 135.786 188.881 136.284C188.743 136.481 188.577 136.656 188.388 136.803C184.426 139.15 183.071 142.141 184.354 146.616C185.144 149.054 186.115 151.428 187.259 153.718C187.972 155.121 188.76 156.483 189.62 157.799C190.164 158.713 190.749 159.595 191.529 160.831C192.227 159.886 192.853 159.17 193.335 158.37C196.603 153.001 199.455 147.384 201.865 141.569C206.792 129.878 210.323 117.687 214.008 105.58C217.262 94.885 220.496 84.1795 224.981 73.9206C228.181 66.1757 232.525 58.967 237.864 52.5408C242.547 46.9524 248.422 42.511 255.047 39.551C255.642 39.2914 256.186 38.9384 256.863 38.5749C255.734 35.5533 254.626 32.6252 253.466 29.5413H250.674C248.56 29.5144 246.541 28.6539 245.045 27.143C243.55 25.6321 242.697 23.5903 242.667 21.4524C242.572 19.4585 243.165 17.493 244.344 15.8925C245.524 14.2919 247.216 13.1558 249.133 12.6785C251.049 12.2013 253.069 12.4126 254.849 13.2763C256.628 14.14 258.055 15.6025 258.886 17.4132C259.662 19.1222 259.872 21.0395 259.484 22.8789C259.095 24.7184 258.129 26.3815 256.73 27.6203C256.371 27.9526 256.001 28.2537 255.509 28.6586C256.679 31.6803 257.818 34.6603 258.916 37.5054L275.022 34.5565C273.385 29.9366 273.572 24.8561 275.545 20.3726C276.256 18.7065 277.277 17.1942 278.553 15.918C280.082 14.3812 282.022 14.807 283.049 16.7487C283.583 17.7684 283.901 18.8894 283.983 20.0403C284.301 25.2321 283.767 30.1643 280.688 34.5773C280.616 34.6811 280.688 34.8888 280.688 35.1484C282.884 35.5741 285.102 35.9791 287.319 36.4463C290.633 37.0512 293.833 38.1757 296.803 39.7794C297.287 40.0762 297.831 40.2592 298.394 40.315C298.957 40.3707 299.526 40.2976 300.057 40.1013C301.855 39.6129 303.453 38.5572 304.618 37.0877C305.783 35.6181 306.454 33.8113 306.534 31.9295C306.842 28.4613 306.185 26.0212 303.968 22.3039C307.643 18.9812 312.18 19.1888 316.039 22.9477C314.551 26.0005 311.646 26.2289 308.608 26.53C309.552 29.832 310.034 33.0613 308.608 36.2386C307.892 37.7553 306.877 39.1079 305.626 40.2132C304.374 41.3185 302.912 42.1532 301.33 42.6661C303.202 44.4336 305.21 46.0481 307.335 47.4944C310.349 43.4543 314.822 40.7852 319.776 40.0702C323.943 39.4381 328.202 39.9695 332.093 41.6069L328.768 44.8778L328.85 44.7636ZM136.377 222.219C118.927 217.733 101.99 213.455 84.4785 211.762L83.1646 213.663C80.4675 217.756 76.8788 221.17 72.6741 223.641C60.5926 230.557 47.9671 231.408 35.0541 226.341C28.3923 223.724 23.763 219.072 22.5312 211.627C22.3875 210.745 22.3362 209.852 22.2335 208.98C16.2184 208.772 11.6198 213.621 12.4616 219.363C12.7662 220.905 13.3509 222.377 14.186 223.703C16.5572 227.857 20.3448 230.183 24.656 231.948C36.1216 236.714 48.2647 238.085 60.4386 238.625C65.0885 238.832 69.7692 238.479 74.4397 238.344C83.6838 237.988 92.8756 236.768 101.898 234.7C112.967 232.333 123.711 228.612 133.893 223.62C134.591 223.278 135.258 222.894 136.377 222.219ZM67.7471 210.693C64.329 209.073 41.4387 207.308 35.6084 208.201C35.6138 208.837 35.6652 209.472 35.7624 210.101C36.1013 211.91 36.8937 213.601 38.0637 215.012C39.2337 216.423 40.7422 217.506 42.4447 218.159C51.3749 221.834 60.2641 219.882 66.8951 212.136C67.2209 211.682 67.506 211.199 67.7471 210.693Z" fill="#B4E4AC" fill-opacity="0.3"/>
<path d="M540.332 197.257H512.782C513.234 196.727 513.439 196.312 513.808 196.104C517.107 194.022 519.586 190.842 520.819 187.112C521.846 184.319 522.985 181.557 524.042 178.805C524.265 178.123 524.454 177.43 524.607 176.728C516.334 178.545 508.871 178.057 503.472 170.695C502.919 171.131 502.486 171.702 502.213 172.354C501.939 173.006 501.836 173.719 501.912 174.423C501.772 178.31 501.937 182.202 502.404 186.063C502.683 188.336 503.461 190.518 504.681 192.447C505.902 194.377 507.533 196.006 509.456 197.215H476.435C477.359 196.291 477.995 195.595 478.683 194.962C479.587 194.174 480.326 193.209 480.855 192.127C481.384 191.044 481.693 189.865 481.762 188.659C481.926 181.204 481.824 173.738 481.824 166.095C477.993 164.641 473.796 164.496 469.876 165.68C468.786 165.96 467.829 166.619 467.172 167.542C466.515 168.465 466.2 169.592 466.283 170.727C466.355 176.448 466.519 182.148 466.581 187.891C466.596 189.262 466.901 190.614 467.474 191.857C468.048 193.1 468.877 194.204 469.906 195.097C470.533 195.689 471.118 196.343 471.959 197.225H439.42C439.831 196.789 440.098 196.447 440.447 196.187C444.83 192.407 446.38 187.392 446.606 181.795C446.678 179.802 446.606 177.808 446.606 175.815C446.707 174.316 446.408 172.818 445.739 171.477C445.071 170.136 444.059 169.002 442.808 168.193C442.202 167.767 441.648 167.29 440.755 166.615C441.473 165.96 442.069 165.317 442.756 164.808C444.266 163.756 445.357 162.195 445.836 160.405C447.591 154.122 447.182 147.421 444.676 141.403C443.69 139.069 441.852 137.209 439.544 136.212H471.159C470.964 136.45 470.871 136.679 470.697 136.772C469.526 137.398 468.546 138.334 467.862 139.482C467.178 140.629 466.817 141.943 466.817 143.283C466.591 148.578 466.519 153.884 466.396 159.18C466.396 159.305 466.55 159.429 466.807 159.813C470.769 155.193 475.85 153.199 482.101 153.646C481.762 149.43 482.44 145.401 481.29 141.424C481.025 140.37 480.542 139.384 479.873 138.533C479.204 137.681 478.365 136.982 477.41 136.482C479.299 135.91 503.4 135.692 509.23 136.201C503.195 139.233 502.189 144.685 501.912 150.406C501.776 153.111 501.859 155.824 502.158 158.515C502.43 159.895 502.937 161.216 503.657 162.42C504.048 163.2 504.603 163.883 505.285 164.421C505.966 164.96 506.756 165.34 507.598 165.535C511.585 166.509 515.752 166.43 519.7 165.306C522.564 164.6 525.397 163.759 528.251 163.032C528.614 162.998 528.959 162.855 529.242 162.622C529.525 162.389 529.734 162.077 529.842 161.724C531.31 156.989 532.983 152.306 534.317 147.53C535.847 142.037 534.256 138.994 529.339 136.617C529.226 136.554 529.164 136.388 528.969 136.129H559.876C560.626 138.538 561.406 140.978 562.135 143.397C563.715 148.713 565.296 154.03 566.826 159.357C567.483 161.515 568.959 163.323 570.931 164.382C572.061 165.057 573.251 165.597 574.75 166.376C573.97 167.175 573.303 167.84 572.697 168.525C572.085 169.081 571.653 169.809 571.455 170.617C571.258 171.424 571.304 172.272 571.588 173.052C572.886 177.85 574.639 182.51 576.823 186.966C578.876 190.943 581.504 194.505 585.99 197.101H547.805C548.524 196.623 548.903 196.364 549.293 196.125C553.184 193.622 555.637 187.673 553.974 183.27C552.948 180.643 552.198 177.912 550.956 175.41C549.444 172.324 546.844 169.923 543.668 168.681C542.989 168.39 542.28 168.177 541.554 168.048C539.285 167.715 538.885 168.048 538.269 170.249C536.976 174.953 535.816 179.708 534.379 184.371C532.829 189.355 534.913 194.681 539.337 196.499C539.69 196.721 540.023 196.975 540.332 197.257ZM547.62 164.123L543.894 151.849H543.402C542.509 155.12 541.626 158.401 540.764 161.589L547.62 164.123Z" fill="#B4E4AC" fill-opacity="0.3"/>
<path d="M276.633 228.584C278.973 232.934 282.638 235.655 286.795 237.763C290.998 239.821 295.506 241.168 300.139 241.75C313.466 243.689 327.059 241.396 339.042 235.188C352.612 228.324 363.369 218.346 370.278 204.546C376.611 191.899 378.11 178.691 373.675 165.016C373.58 164.64 373.508 164.258 373.46 163.873C375.532 164.542 377.644 165.08 379.783 165.483C381.942 165.705 384.122 165.596 386.249 165.161C385.798 164.933 385.346 164.683 384.884 164.476C382.195 163.282 379.393 162.285 376.847 160.841C375.31 159.892 373.985 158.63 372.957 157.134C371.743 155.363 370.236 153.817 368.502 152.566C368.113 152.248 367.749 151.901 367.414 151.527C370.391 149.876 371.622 147.104 372.967 144.332C374.732 140.708 377.884 138.683 381.63 137.478C385.336 136.406 389.181 135.905 393.034 135.994C405.752 135.994 418.48 135.994 431.198 135.994C431.609 135.994 432.009 136.045 432.954 136.108C428.581 137.78 426.898 141.019 426.056 144.882C425.111 149.768 425.111 154.793 426.056 159.678C426.224 160.665 426.582 161.608 427.111 162.454C427.639 163.301 428.327 164.033 429.135 164.611C429.833 165.14 430.5 165.722 431.352 166.407L428.437 168.556C427.63 169.056 426.966 169.761 426.512 170.6C426.058 171.44 425.83 172.386 425.851 173.343C425.943 177.497 425.635 181.65 425.953 185.803C426.048 187.884 426.631 189.911 427.656 191.717C428.681 193.523 430.117 195.056 431.845 196.187C432.115 196.37 432.372 196.571 432.615 196.789C432.615 196.789 432.615 196.935 432.687 197.153H399.008C399.265 196.831 399.357 196.571 399.522 196.509C403.289 195.003 405.106 192.013 405.578 188.14C405.927 185.264 406.091 182.367 406.183 179.47C406.276 176.572 406.183 173.343 406.183 170.124C402.927 169.156 399.447 169.299 396.278 170.529C394.911 171.018 393.69 171.853 392.732 172.955C391.774 174.056 391.112 175.387 390.807 176.822C389.945 180.176 389.226 183.592 388.621 187.008C386.641 198.081 381.939 208.472 374.948 217.224C361.542 234.388 344.154 245.083 322.886 248.967C308.189 251.73 293.006 249.757 279.476 243.328C275.991 241.675 272.605 239.816 269.335 237.763C264.563 234.907 260.83 230.57 258.69 225.396C256.412 219.872 257.931 213.413 262.108 210.008C264.242 208.333 266.889 207.47 269.588 207.571C272.287 207.671 274.864 208.729 276.87 210.558C278.875 212.388 280.181 214.872 280.558 217.577C280.935 220.282 280.359 223.035 278.932 225.354C278.306 226.455 277.505 227.4 276.633 228.584ZM406.122 145.36C403.894 145.287 401.841 145.038 399.819 145.183C394.512 145.557 392.07 147.519 391.361 152.981C391.118 154.817 391.59 156.677 392.678 158.168C393.766 159.658 395.385 160.662 397.192 160.966C397.981 161.178 398.789 161.31 399.604 161.361C401.77 161.361 403.987 161.817 406.122 160.852V145.36Z" fill="#B4E4AC" fill-opacity="0.3"/>
<path d="M303.455 223.859C306.218 225.568 309.282 226.72 312.477 227.255C326.16 230.1 339.227 221.938 344.801 209.353C348.014 202.085 348.66 194.681 345.499 187.174C343.473 182.506 340.122 178.552 335.871 175.814C330.672 172.45 324.799 170.297 318.677 169.512C318.192 169.436 317.701 169.401 317.209 169.408C316.717 169.408 316.234 169.408 315.629 169.491C315.508 169.96 315.429 170.44 315.393 170.924C315.393 175.731 315.393 180.56 315.588 185.367C315.783 190.175 317.415 194.297 322.054 196.582C322.167 196.582 322.208 196.831 322.383 197.142H288.448C289.033 196.737 289.474 196.436 289.885 196.156C292.204 194.529 293.866 192.11 294.566 189.344C295.921 184.544 296.25 179.507 295.53 174.568C295.212 171.786 293.56 169.906 291.62 168.193C291.014 167.653 290.378 167.155 289.567 166.532C290.097 165.98 290.655 165.456 291.24 164.964C293.107 163.571 294.401 161.53 294.874 159.232C296.026 154.043 295.867 148.643 294.412 143.532C294.014 141.943 293.282 140.46 292.268 139.182C291.253 137.905 289.978 136.863 288.53 136.129C289.146 136.129 289.751 136.014 290.357 136.014C301.114 136.014 311.913 135.962 322.629 136.014C326.893 135.889 331.154 136.35 335.296 137.385C339.802 138.693 343.179 141.133 345.109 145.692C345.848 147.415 347.459 148.807 348.784 150.416C348.113 150.862 347.487 151.373 346.915 151.943C346.122 152.761 345.476 153.713 345.006 154.757C344.203 156.852 342.98 158.756 341.413 160.348C339.845 161.94 337.969 163.187 335.901 164.008C335.46 164.206 335.039 164.455 334.29 164.839C335.193 165.151 335.778 165.389 336.343 165.545C341.895 166.881 347.026 169.605 351.268 173.468C354.934 176.965 357.52 181.463 358.71 186.416C361.902 198.762 359.069 209.551 350.241 218.678C341.188 228.023 330.03 232.768 317.209 233.89C309.184 234.755 301.084 233.224 293.909 229.487C289.648 227.393 286.311 223.769 284.547 219.322C283.978 217.92 283.69 216.418 283.701 214.902C283.711 213.387 284.02 211.889 284.608 210.495C285.197 209.102 286.054 207.841 287.129 206.785C288.204 205.73 289.476 204.902 290.87 204.349C293.668 203.178 296.806 203.159 299.617 204.295C302.429 205.432 304.689 207.635 305.918 210.433C306.771 212.287 307.116 214.338 306.917 216.373C306.718 218.408 305.984 220.351 304.789 222.001C304.389 222.572 303.958 223.153 303.455 223.859ZM315.516 160.966C317.649 161.253 319.816 161.122 321.9 160.582C324.302 159.886 326.006 158.401 326.478 155.93C326.79 153.905 326.814 151.846 326.55 149.814C326.423 149.03 326.103 148.29 325.621 147.663C325.139 147.035 324.509 146.54 323.789 146.221C321.131 144.882 318.349 144.955 315.516 145.328V160.966Z" fill="#B4E4AC" fill-opacity="0.3"/>
<path d="M250.971 166.324C250.212 166.874 249.565 167.362 248.918 167.819C248.008 168.396 247.259 169.199 246.741 170.151C246.224 171.103 245.956 172.174 245.962 173.26C245.962 177.756 246.804 181.982 249.688 185.596C250.705 186.903 251.989 187.973 253.453 188.733C254.916 189.493 256.524 189.925 258.167 189.998C262.683 190.331 266.625 189.126 269.633 185.544C270.302 184.822 270.8 183.956 271.09 183.01C271.932 179.708 269.52 177.144 266.071 177.569C265.226 177.714 264.39 177.904 263.566 178.14C263.173 176.559 263.233 174.898 263.739 173.35C264.244 171.802 265.174 170.431 266.42 169.397C270.936 165.244 278.388 164.839 282.433 169.335C283.617 170.669 284.48 172.262 284.956 173.989C285.431 175.717 285.505 177.532 285.173 179.293C284.789 182.102 283.777 184.785 282.216 187.14C280.655 189.495 278.584 191.459 276.161 192.885C269.488 197.239 261.604 199.297 253.681 198.752C241.61 197.869 232.125 192.376 225.905 181.66C224.415 179.073 223.322 176.272 222.661 173.354C222.184 170.912 220.817 168.74 218.833 167.269C218.504 167.02 218.207 166.76 217.714 166.355C217.895 166.109 218.098 165.88 218.319 165.67C221.311 163.161 223.406 159.728 224.283 155.899C225.142 152.432 226.632 149.157 228.677 146.242C233.193 140.012 239.311 136.544 246.65 135.017C251.464 133.979 256.268 134.446 261.021 135.256C263.422 135.757 265.853 136.103 268.298 136.295C270.005 136.185 271.697 135.903 273.348 135.454C273.391 135.515 273.421 135.584 273.437 135.657C273.453 135.73 273.454 135.806 273.441 135.879C273.157 136.615 273.128 137.427 273.359 138.181C273.591 138.936 274.068 139.588 274.714 140.033C277.372 142.338 277.567 145.349 276.767 148.464C276.33 150.262 275.213 151.814 273.655 152.785C272.098 153.756 270.225 154.069 268.442 153.656C264.131 152.794 261.462 149.596 261.76 145.526C261.811 144.799 261.924 144.072 262.006 143.345C261.051 142.307 259.84 142.66 258.732 142.66C253.055 142.66 249.401 145.266 247.625 150.665C246.948 152.742 246.599 154.819 246.085 156.896C245.757 158.236 245.819 159.645 246.263 160.951C246.707 162.257 247.515 163.405 248.59 164.258C249.339 164.943 250.099 165.566 250.971 166.324Z" fill="#B4E4AC" fill-opacity="0.3"/>
<path d="M120.764 168.65C120.764 172.211 120.702 175.586 120.764 178.971C120.76 181.781 120.911 184.589 121.215 187.382C121.77 191.629 123.638 195.118 127.733 197.132H94.1987L95.8616 196.27C98.5817 194.868 99.8751 192.345 100.491 189.562C101.698 184.054 101.872 178.366 101.004 172.793C100.899 171.882 100.589 171.008 100.1 170.236C99.6113 169.465 98.9551 168.816 98.1814 168.338C97.3603 167.83 96.5904 167.227 95.5947 166.521C96.3133 165.877 96.8881 165.358 97.4834 164.839C98.5867 163.975 99.488 162.876 100.123 161.62C100.758 160.364 101.112 158.981 101.158 157.571C101.203 153.27 100.99 148.97 100.522 144.695C100.07 141.04 98.397 137.904 94.1987 136.305C94.8786 136.19 95.5638 136.11 96.2517 136.066C108.148 136.066 120.045 136.004 131.942 136.066C136.274 136.066 140.657 136.201 144.793 137.696C146.797 138.409 148.709 139.36 150.49 140.531C152.927 142.151 154.634 144.677 155.243 147.561C155.859 150.458 157.07 152.836 159.677 154.217C159.585 154.559 159.585 154.788 159.492 154.85C156.988 156.46 155.52 158.827 154.103 161.423C151.024 166.988 146.6 171.038 140.338 172.647C135.066 174.026 129.483 173.501 124.551 171.163C123.232 170.416 121.966 169.576 120.764 168.65ZM133.461 154.549C133.346 154.822 133.194 155.077 133.009 155.307C130.248 157.529 130.618 160.374 131.675 163.178C133.122 167.04 137.454 167.778 140.184 164.714C140.986 163.825 141.605 162.783 142.005 161.649C142.406 160.516 142.579 159.313 142.515 158.11C142.309 152.213 138.409 147.467 132.25 146.19C129.031 145.661 125.786 145.315 122.529 145.152C122.023 145.158 121.52 145.227 121.031 145.359V156.439C123.135 154.819 124.757 153.199 127.189 152.836C128.295 152.631 129.432 152.678 130.517 152.974C131.602 153.271 132.608 153.809 133.461 154.549Z" fill="#B4E4AC" fill-opacity="0.3"/>
<path d="M261.349 289.566L260.641 289.099C259.07 288.144 259.05 286.586 260.641 285.776C261.398 285.466 262.198 285.277 263.012 285.216C263.665 285.174 264.32 285.174 264.973 285.216C267.662 285.216 267.765 285.309 268.473 288.071C269.304 287.5 270.084 286.929 270.885 286.41C272.957 285.035 275.429 284.412 277.896 284.645C279.386 284.685 280.821 285.224 281.975 286.179C283.129 287.134 283.936 288.45 284.27 289.919C285.319 293.864 285.294 298.022 284.198 301.954C283.426 305.101 281.983 308.039 279.969 310.562C277.974 313.133 275.113 314.87 271.932 315.442C270.476 315.79 268.957 315.754 267.519 315.338C266.081 314.922 264.773 314.139 263.72 313.064C262.899 317.135 262.109 320.842 261.452 324.569C261.468 324.872 261.543 325.168 261.674 325.441C261.804 325.714 261.987 325.957 262.211 326.158C263.618 327.633 263.238 329.595 261.308 329.813C258.536 330.042 255.751 330.083 252.973 329.938C252.554 329.909 252.16 329.723 251.869 329.416C251.578 329.108 251.412 328.702 251.403 328.276C251.279 327.363 251.526 326.428 252.429 326.262C254.297 325.909 254.369 324.414 254.646 323.147C255.755 317.893 256.781 312.608 257.859 307.343C258.937 302.079 260.035 296.96 261.103 291.768C261.226 291.039 261.308 290.304 261.349 289.566ZM277.66 295.475C277.612 294.429 277.492 293.388 277.3 292.36C276.602 289.296 274.036 288.206 271.306 289.753C270.203 290.414 269.262 291.317 268.551 292.395C267.84 293.474 267.378 294.7 267.2 295.983C266.697 298.403 266.174 300.833 265.794 303.252C265.473 304.7 265.328 306.182 265.363 307.665C265.369 308.537 265.636 309.386 266.129 310.102C266.622 310.817 267.317 311.365 268.124 311.673C268.928 312.008 269.817 312.076 270.662 311.867C271.507 311.658 272.264 311.183 272.825 310.51C273.949 309.295 274.853 307.889 275.494 306.357C276.856 302.89 277.59 299.204 277.66 295.475Z" fill="#B4E4AC" fill-opacity="0.3"/>
<path d="M210.528 296.482C211.873 294.042 213.228 291.602 214.552 289.141C216.328 285.87 218.124 282.62 219.808 279.297C220.424 278.093 221.152 276.805 219.151 275.85C218.186 275.382 218.422 273.586 219.407 272.849C219.929 272.452 220.553 272.214 221.204 272.164C223.257 272.07 225.31 272.091 227.363 272.164C227.777 272.11 228.197 272.211 228.542 272.448C228.888 272.685 229.137 273.042 229.241 273.451C229.467 274.49 229.395 275.528 228.286 275.995C226.182 276.94 225.207 278.84 224.088 280.688C218.853 289.4 213.721 298.174 208.393 306.814C206.694 309.339 204.759 311.693 202.614 313.843C202.069 314.414 201.412 314.863 200.686 315.163C199.96 315.464 199.18 315.608 198.396 315.588C197.963 315.638 197.525 315.598 197.109 315.469C196.693 315.34 196.307 315.125 195.976 314.839C195.646 314.552 195.377 314.2 195.188 313.803C194.998 313.407 194.892 312.975 194.875 312.535C194.777 311.794 194.777 311.043 194.875 310.302C195.234 307.53 196.702 306.637 199.371 307.426C200.293 307.743 201.261 307.904 202.235 307.904C202.582 307.891 202.922 307.799 203.229 307.633C203.536 307.467 203.801 307.232 204.004 306.946C204.207 306.66 204.343 306.332 204.401 305.985C204.459 305.638 204.438 305.282 204.339 304.945C202.457 296.208 200.558 287.476 198.642 278.747C198.583 278.174 198.373 277.628 198.033 277.166C197.694 276.703 197.237 276.342 196.712 276.12C196.375 275.975 196.087 275.732 195.885 275.423C195.683 275.114 195.575 274.751 195.575 274.38C195.575 274.01 195.683 273.647 195.885 273.338C196.087 273.029 196.375 272.786 196.712 272.641C197.372 272.313 198.092 272.129 198.827 272.101C201.455 272.039 204.082 272.101 206.71 272.101C207.736 272.101 208.763 272.236 209.04 273.482C209.139 273.736 209.183 274.009 209.169 274.281C209.155 274.554 209.085 274.82 208.961 275.063C208.838 275.305 208.665 275.519 208.454 275.688C208.243 275.858 207.998 275.98 207.736 276.047C206.505 276.452 206.361 277.376 206.536 278.425C206.833 280.304 207.203 282.173 207.562 284.042C208.363 288.196 209.167 292.328 209.974 296.44L210.528 296.482Z" fill="#B4E4AC" fill-opacity="0.3"/>
<path d="M355.373 314.56C354.967 314.042 354.694 313.431 354.575 312.781C354.457 312.131 354.499 311.462 354.696 310.832C355.219 308.413 355.722 305.972 356.184 303.563C356.359 302.691 356.451 301.809 356.595 300.781H347.593C347.049 303.563 346.505 306.294 345.971 309.036C345.903 309.397 345.944 309.77 346.086 310.109C346.229 310.447 346.467 310.735 346.771 310.936C348.178 312.192 347.747 314.248 345.93 314.435C343.067 314.651 340.194 314.686 337.328 314.539C336.414 314.539 335.932 313.708 335.829 312.815C335.727 311.922 335.993 310.977 336.928 310.842C338.426 310.635 338.744 309.596 338.981 308.444C340.171 302.594 341.352 296.752 342.522 290.916C342.579 290.49 342.603 290.059 342.594 289.629C342.297 289.48 342.009 289.314 341.731 289.13C340.346 288.092 340.376 286.555 341.885 285.859C342.714 285.508 343.596 285.304 344.493 285.257C345.806 285.185 347.121 285.185 348.434 285.257C350.169 285.309 350.6 285.797 350.364 287.573C350.22 288.715 349.912 289.847 349.676 290.979C349.266 292.92 348.865 294.862 348.393 297.209C351.473 297.313 354.378 297.209 357.447 297.209C357.909 294.976 358.381 292.889 358.771 290.792C358.894 290.138 358.894 289.421 358.021 289.193C357.149 288.964 356.913 288.32 356.995 287.479C357.014 287.059 357.174 286.657 357.448 286.34C357.722 286.023 358.094 285.81 358.504 285.735C359.54 285.514 360.589 285.362 361.645 285.278C362.547 285.226 363.452 285.226 364.355 285.278C366.264 285.33 366.705 285.797 366.408 287.656C365.823 290.999 365.176 294.332 364.509 297.655C363.677 301.809 362.795 305.962 361.912 310.167C362.351 310.35 362.768 310.584 363.154 310.863C363.605 311.268 364.283 311.808 364.252 312.254C364.119 312.947 363.757 313.573 363.226 314.03C362.774 314.389 362.219 314.589 361.645 314.601C359.479 314.591 357.323 314.56 355.373 314.56Z" fill="#B4E4AC" fill-opacity="0.3"/>
<path d="M386.701 310.115C386.106 310.687 385.767 310.998 385.449 311.32C383.983 312.896 382.141 314.066 380.101 314.715C374.712 316.356 370.062 313.241 369.6 307.572C369.076 300.988 370.626 295.111 375.092 290.075C377.361 287.417 380.423 285.577 383.817 284.832C386.896 284.188 389.852 284.655 392.131 286.981C393.207 286.295 394.337 285.698 395.508 285.195C397.263 284.634 398.002 285.33 397.715 287.199C397.427 289.068 396.955 291.093 396.545 293.035C395.511 297.977 394.464 302.916 393.404 307.852C393.198 308.396 393.16 308.991 393.293 309.558C393.427 310.124 393.727 310.637 394.153 311.029C395.077 311.839 394.789 312.846 394.153 313.708C393.127 315.089 389.575 315.671 388.251 314.549C387.636 313.91 387.176 313.135 386.906 312.286C386.747 311.574 386.678 310.845 386.701 310.115ZM389.39 293.678C389.513 288.85 386.855 287.033 383.827 288.549C382.875 289.025 382.038 289.705 381.374 290.542C378.043 295.04 376.508 300.641 377.073 306.232C377.319 309.908 380.501 311.32 383.457 309.098C384.797 308.157 385.83 306.834 386.424 305.298C387.738 301.03 388.651 296.617 389.39 293.658V293.678Z" fill="#B4E4AC" fill-opacity="0.3"/>
<path d="M310.568 287.022C313.411 284.946 313.647 284.946 315.998 285.548C315.994 286.493 315.928 287.436 315.803 288.372C314.469 294.852 313.1 301.324 311.697 307.79C311.495 308.371 311.457 308.997 311.588 309.599C311.718 310.2 312.012 310.753 312.436 311.195C313.38 312.234 313.114 313.272 311.954 314.134C311.252 314.649 310.44 314.989 309.583 315.124C308.726 315.26 307.85 315.187 307.027 314.913C305.456 314.466 305.2 312.94 305.025 311.507C305.025 311.185 304.974 310.853 304.922 310.23C304.307 310.78 303.896 311.195 303.403 311.6C301.289 313.511 299.01 315.048 296.023 315.1C291.917 315.183 289.351 313.366 288.263 309.316C287.253 305.267 287.559 300.996 289.135 297.136C291.188 291.633 294.74 287.427 300.344 285.34C304.255 283.887 307.191 284.375 310.568 287.022ZM294.955 303.73L295.171 303.823C295.185 304.811 295.268 305.796 295.417 306.772C296.064 309.794 298.497 310.925 301.227 309.451C302.118 309.006 302.906 308.377 303.541 307.604C304.175 306.831 304.643 305.932 304.912 304.965C306 300.729 306.821 296.43 307.612 292.121C307.698 291.216 307.489 290.308 307.016 289.535C305.867 287.573 303.023 287.459 300.991 289.182C299.132 290.719 297.764 292.779 297.06 295.101C296.228 297.936 295.643 300.853 294.955 303.73Z" fill="#B4E4AC" fill-opacity="0.3"/>
<path d="M289.607 0L290.634 1.82752C292.061 1.69253 293.436 1.46409 294.801 1.45371C299.831 1.39141 303.629 3.82115 306.39 7.83959C309.603 12.5018 308.351 17.1848 303.465 19.9988C302.471 20.5333 301.576 21.2357 300.816 22.0755C296.567 27.0492 290.808 26.7481 287.277 21.1825C284.331 16.5203 283.469 11.5465 285.933 5.88748L284.116 4.98411L289.607 0Z" fill="#B4E4AC" fill-opacity="0.3"/>
<path d="M243.427 298.984C244.135 300.106 244.905 301.466 245.798 302.733C247.594 305.277 248.826 308.205 251.259 310.334C252.716 311.611 252.152 313.573 250.356 314.331C249.181 314.833 247.874 314.921 246.644 314.582C245.414 314.243 244.332 313.497 243.571 312.462C242.103 310.178 240.922 307.696 239.649 305.287C238.921 303.917 238.253 302.515 237.597 301.134H237.063C236.457 304.072 235.852 307.011 235.277 309.825C235.687 310.863 237.33 310.666 237.073 312.099C237.017 312.683 236.77 313.232 236.37 313.657C235.97 314.082 235.44 314.36 234.866 314.445C232.249 314.58 229.621 314.549 226.993 314.445C226.574 314.463 226.163 314.316 225.848 314.036C225.533 313.756 225.336 313.363 225.299 312.94C225.207 311.901 225.494 310.967 226.521 310.759C227.845 310.5 228.184 309.648 228.41 308.527C229.641 302.608 230.894 296.7 232.115 290.781C232.156 290.374 232.156 289.963 232.115 289.556C231.386 288.902 230.062 288.85 230.339 287.479C230.436 286.9 230.732 286.374 231.176 285.994C231.619 285.613 232.181 285.404 232.762 285.403C234.554 285.242 236.353 285.19 238.151 285.247C238.381 285.241 238.609 285.288 238.819 285.385C239.028 285.483 239.213 285.627 239.358 285.807C239.504 285.988 239.607 286.199 239.659 286.426C239.711 286.653 239.711 286.889 239.66 287.116C239.475 288.757 239.208 290.397 238.91 292.017C238.613 293.637 238.202 295.381 237.751 297.489C241.764 296.378 244.72 294.447 246.455 290.916C246.663 290.235 246.634 289.502 246.373 288.84C245.767 286.763 246.373 285.59 248.426 285.278C249.813 285.096 251.217 285.096 252.604 285.278C254.328 285.496 254.995 286.96 254.184 288.58C253.873 289.166 253.459 289.69 252.963 290.127C249.914 293.003 246.824 295.838 243.427 298.984Z" fill="#B4E4AC" fill-opacity="0.3"/>
<path d="M248.939 117.791C244.505 118.29 240.604 113.17 240.46 108.903C240.337 104.988 241.23 101.499 243.971 98.6542C246.886 95.6119 250.53 95.3211 253.958 97.7301C255.426 98.7684 256.935 99.8068 258.434 100.752C262.303 103.348 263.248 107.584 260.641 111.509C259.4 113.496 257.667 115.121 255.615 116.223C253.562 117.325 251.261 117.865 248.939 117.791Z" fill="#B4E4AC" fill-opacity="0.3"/>
<path d="M287.113 43.6836C284.537 55.2715 284.112 67.2429 285.861 78.9878C285.42 78.6347 285.122 78.5101 285.019 78.3024C282.032 72.3111 278.984 66.3613 276.151 60.3181C274.402 56.924 273.5 53.1491 273.523 49.3219C273.485 48.0239 273.877 46.7504 274.635 45.7028C275.394 44.6552 276.476 43.8935 277.711 43.5383C278.885 43.1742 280.107 42.9921 281.334 42.9983C283.11 43.071 284.865 43.4137 287.113 43.6836Z" fill="#B4E4AC" fill-opacity="0.3"/>
<path d="M83.2976 106.722H94.7633C94.8864 110.928 94.7633 115.029 94.8454 119.297C95.4099 119.401 95.8718 119.515 96.3132 119.577C97.3397 119.702 97.6168 120.387 97.6066 121.322C97.6066 123.315 97.6066 125.309 97.6066 127.302C97.6066 128.902 97.3089 129.14 95.7076 129.171C95.075 129.141 94.4444 129.075 93.8189 128.974L93.5725 123.699H81.994V128.891C81.0599 128.985 80.3619 129.099 79.6639 129.12C78.5348 129.12 78.0421 128.569 78.0626 127.427C78.0626 125.35 78.0626 123.274 78.0626 121.197C78.0626 120.397 78.1755 119.681 79.0891 119.504C79.5701 119.387 80.0052 119.126 80.3382 118.756C80.6713 118.386 80.8869 117.923 80.9573 117.428C81.6553 114.718 82.2609 111.976 82.8665 109.245C83.0718 108.487 83.1539 107.636 83.2976 106.722ZM87.3008 110.377C86.5105 113.492 85.7714 116.452 85.0221 119.39H90.216V110.346C89.4975 110.346 88.9432 110.263 88.3889 110.263C88.0244 110.281 87.6612 110.319 87.3008 110.377Z" fill="#B4E4AC" fill-opacity="0.3"/>
<path d="M323.717 314.591H320.525C319.344 314.591 318.4 314.217 318.133 312.94C318.068 312.696 318.055 312.441 318.095 312.192C318.135 311.943 318.227 311.706 318.365 311.495C318.503 311.285 318.684 311.107 318.895 310.973C319.106 310.839 319.343 310.752 319.591 310.718C320.791 310.385 321.038 309.42 321.243 308.485C322.454 302.83 323.628 297.167 324.764 291.498C324.949 290.574 325.154 289.701 324.045 288.902C322.937 288.102 323.111 286.431 324.538 285.787C325.288 285.467 326.087 285.281 326.899 285.236C327.925 285.153 329.024 285.236 330.091 285.236C332.545 285.236 332.965 285.745 332.462 288.217C331.183 294.613 329.872 301.006 328.531 307.395C328.223 308.859 327.813 310.115 329.424 311.32C330.625 312.213 329.599 314.352 327.884 314.549C326.496 314.632 325.105 314.632 323.717 314.549V314.591Z" fill="#B4E4AC" fill-opacity="0.3"/>
<path d="M431.865 108.072C432.564 107.376 433.402 106.839 434.323 106.497C435.243 106.155 436.225 106.016 437.203 106.089C438.113 106.082 439.007 106.336 439.781 106.821C440.555 107.306 441.177 108.002 441.576 108.83C442.542 110.713 443.035 112.807 443.01 114.928C442.985 117.049 442.443 119.131 441.432 120.989C439.933 123.855 436.741 124.312 433.682 123.263C433.202 123.034 432.741 122.763 432.307 122.453C432.194 124.945 432.091 127.168 431.999 129.223C431.79 129.38 431.562 129.509 431.321 129.608C427.595 130.065 427.39 129.888 427.39 126.15C427.39 120.252 427.39 114.365 427.39 108.498C427.355 108.132 427.416 107.763 427.568 107.429C427.72 107.095 427.957 106.808 428.254 106.596C428.552 106.385 428.899 106.258 429.261 106.227C429.624 106.196 429.987 106.263 430.315 106.421C430.89 106.598 431.25 107.366 431.865 108.072ZM432.163 114.77C432.121 115.544 432.121 116.321 432.163 117.095C432.338 117.723 432.672 118.294 433.133 118.749C433.595 119.205 434.166 119.53 434.791 119.691C435.401 119.803 436.03 119.68 436.555 119.348C437.081 119.016 437.466 118.498 437.634 117.895C438.038 116.945 438.246 115.923 438.246 114.889C438.246 113.855 438.038 112.833 437.634 111.883C436.834 109.983 435.386 109.671 433.682 110.761C431.978 111.852 432.019 113.264 432.163 114.77Z" fill="#B4E4AC" fill-opacity="0.3"/>
<path d="M187.289 72.4565C185.319 78.1882 183.635 83.5254 180.689 88.333C179.987 89.4485 179.145 90.4676 178.185 91.365C177.253 92.3771 175.969 92.984 174.604 93.0576C173.239 93.1312 171.899 92.6658 170.866 91.7595C165.795 87.9384 165.672 83.2243 170.928 79.725C174.083 77.8266 177.385 76.1909 180.802 74.8343C182.783 73.9414 184.877 73.3703 187.289 72.4565Z" fill="#B4E4AC" fill-opacity="0.3"/>
<path d="M186.776 65.5307C181.541 63.6824 176.224 62.0314 171.502 58.9475C170.615 58.3479 169.796 57.6515 169.059 56.8708C166.647 54.4203 166.349 51.8763 168.351 49.0727C169.229 47.8796 170.306 46.8501 171.533 46.0304C172.538 45.36 173.741 45.0619 174.938 45.1869C176.136 45.3118 177.254 45.8519 178.102 46.7157C179.61 48.2344 180.868 49.9871 181.828 51.9074C183.881 56.227 185.513 60.7023 187.33 65.1257L186.776 65.5307Z" fill="#B4E4AC" fill-opacity="0.3"/>
<path d="M190.564 73.8583C193.14 79.2889 195.696 84.2418 196.887 89.6828C197.205 91.1449 197.342 92.6411 197.297 94.1374C197.32 95.4017 196.865 96.6272 196.026 97.5646C195.187 98.5021 194.027 99.081 192.781 99.1838C191.559 99.3464 190.323 99.3743 189.096 99.2669C185.965 99.0488 184.035 97.1901 183.963 94.0751C183.906 92.1738 184.124 90.2744 184.61 88.4368C185.883 83.4215 188.131 78.8216 190.564 73.8583Z" fill="#B4E4AC" fill-opacity="0.3"/>
<path d="M194.218 72.6019C195.952 73.2041 197.502 73.6402 198.96 74.2736C202.265 75.7065 205.56 77.1291 208.763 78.7593C210.128 79.5047 211.363 80.473 212.417 81.6252C213.427 82.6184 214.022 83.9657 214.079 85.3894C214.136 86.8131 213.652 88.2049 212.725 89.2779C212.464 89.5969 212.186 89.902 211.894 90.1916C207.993 94.2931 204.4 94.1062 201.198 89.3921C199.713 87.1202 198.445 84.7108 197.41 82.1963C196.219 79.4862 195.357 76.6411 194.331 73.8894C194.243 73.4663 194.205 73.0341 194.218 72.6019Z" fill="#B4E4AC" fill-opacity="0.3"/>
<path d="M193.982 65.2711C195.214 61.9587 196.302 58.5841 197.708 55.3548C198.792 52.944 200.058 50.6216 201.496 48.4082C204.236 44.099 208.927 44.3794 211.842 47.8475C212.268 48.3506 212.666 48.8775 213.033 49.4258C213.818 50.4565 214.199 51.7444 214.103 53.042C214.006 54.3397 213.439 55.5554 212.51 56.4554C210.607 58.5378 208.263 60.1567 205.653 61.1903C201.988 62.8205 198.211 64.1912 194.475 65.6656L193.982 65.2711Z" fill="#B4E4AC" fill-opacity="0.3"/>
<path d="M186.17 69.0507C180.894 71.5116 176.347 74.0244 171.307 75.2808C169.716 75.6562 168.086 75.8409 166.452 75.8312C163.372 75.8312 161.494 74.3671 161.012 71.252C160.794 69.7003 160.849 68.1219 161.176 66.5898C161.781 63.5786 163.29 62.4364 166.308 62.2495C169.023 62.1743 171.721 62.7024 174.212 63.7966C178.092 65.3749 181.9 67.1401 186.17 69.0507Z" fill="#B4E4AC" fill-opacity="0.3"/>
<path d="M195.244 69.0818C200.541 66.5482 205.406 63.8381 210.888 62.6648C212.165 62.3819 213.471 62.2529 214.778 62.2806C217.857 62.3637 219.725 63.9316 220.157 66.974C220.362 68.4438 220.331 69.9376 220.064 71.3974C219.53 74.4398 217.847 75.8415 214.798 75.8312C213.071 75.8535 211.347 75.6617 209.666 75.2601C204.708 73.9621 200.14 71.5635 195.244 69.0818Z" fill="#B4E4AC" fill-opacity="0.3"/>
<path d="M190.554 64.3365C187.813 58.5217 184.898 53.1327 183.974 46.996C183.101 41.1708 185.842 38.3569 191.652 38.8345C195.378 39.146 197.267 41.1812 197.287 44.9712C197.303 45.9669 197.221 46.9618 197.041 47.9409C195.85 53.6415 193.192 58.8332 190.554 64.3365Z" fill="#B4E4AC" fill-opacity="0.3"/>
<path d="M288.53 76.4853C286.816 65.8875 286.941 55.0686 288.899 44.5143C293.631 47.6294 297.019 51.3467 297.542 56.9746C297.602 58.7027 297.348 60.4272 296.793 62.0625C295.243 67.5139 291.856 71.9062 288.53 76.4853Z" fill="#B4E4AC" fill-opacity="0.3"/>
<path d="M327.268 64.7727L329.578 69.0403C330.04 67.7674 330.939 66.7051 332.111 66.0474C333.284 65.3897 334.65 65.1805 335.963 65.458C336.907 65.6735 337.831 65.9723 338.724 66.351C338.826 66.4143 338.922 66.4874 339.011 66.569C339.319 67.244 339.637 67.9085 339.935 68.5835C340.443 69.6126 340.628 70.774 340.466 71.9126C340.304 73.0511 339.802 74.1125 339.028 74.9547C338.253 75.7969 337.243 76.3798 336.132 76.6255C335.021 76.8712 333.863 76.768 332.811 76.3296L330.984 75.6235L331.066 75.6962C330.379 74.2425 329.701 72.7784 329.013 71.252C328.818 71.5947 328.572 72.0412 328.305 72.4669C327.536 73.6076 326.388 74.4311 325.069 74.7875C323.75 75.1438 322.349 75.0094 321.12 74.4086C319.97 73.8491 319.047 72.9041 318.509 71.7343C317.97 70.5645 317.848 69.242 318.164 67.9916C318.451 66.6862 319.203 65.5332 320.276 64.7521C321.349 63.9709 322.669 63.6161 323.984 63.7551C324.946 63.8853 325.899 64.076 326.837 64.3262L327.268 64.7727Z" fill="#B4E4AC" fill-opacity="0.3"/>
<path d="M452.58 106.94C454.458 106.047 454.633 106.047 456.963 106.94V115.164L457.404 115.299L461.243 109.993C461.828 109.194 462.454 108.415 462.988 107.584C463.282 107.132 463.696 106.773 464.183 106.549C464.67 106.324 465.209 106.244 465.739 106.317C467.197 106.317 467.587 106.722 467.618 108.269C467.618 111.011 467.618 113.752 467.618 116.483V123.367H463.255V114.23C462.758 114.682 462.289 115.164 461.849 115.673C460.432 117.615 459.047 119.567 457.671 121.519C455.998 123.897 455.834 123.959 452.775 123.253C452.262 121.477 452.128 110.035 452.58 106.94Z" fill="#B4E4AC" fill-opacity="0.3"/>
<path d="M327.268 64.7727L326.827 64.3262L324.579 60.4946C324.056 61.5326 323.243 62.3922 322.241 62.9664C321.239 63.5406 320.093 63.804 318.944 63.7239C316.367 63.5889 315.156 62.3014 315.084 59.7159C315.084 58.3972 314.93 57.0784 314.858 55.6559C316.768 54.8044 318.677 53.9218 320.607 53.0808C321.941 52.5097 322.844 53.4546 323.542 54.2853C324.198 55.2667 324.758 56.3099 325.215 57.4003C325.513 57.0369 325.852 56.5904 326.242 56.1751C327.124 55.1757 328.317 54.5107 329.623 54.2898C330.93 54.0689 332.272 54.3054 333.427 54.9602C334.532 55.6098 335.378 56.6294 335.818 57.8428C336.259 59.0563 336.266 60.3872 335.839 61.6057C335.449 62.9353 334.572 64.0648 333.389 64.7648C332.205 65.4648 330.802 65.6829 329.465 65.3749C328.685 65.2088 327.977 64.9596 327.268 64.7727Z" fill="#B4E4AC" fill-opacity="0.3"/>
<path d="M116.001 116.825H110.53C110.53 118.279 110.448 119.65 110.417 120.979C110.366 123.377 110.263 123.492 107.892 123.481C107.409 123.481 106.865 123.419 106.455 123.388C105.88 121.643 105.695 111.478 106.147 106.774C106.788 106.378 107.532 106.183 108.283 106.215C109.034 106.246 109.759 106.502 110.366 106.951V112.527H116.001C116.001 111.083 116.001 109.702 116.001 108.311C116.062 106.691 116.606 106.234 118.362 106.234C120.117 106.234 120.723 106.67 120.733 108.311C120.733 112.776 120.733 117.251 120.733 121.727C120.733 122.983 120.22 123.481 118.978 123.554C116.329 123.689 115.991 123.429 115.97 120.761L116.001 116.825Z" fill="#B4E4AC" fill-opacity="0.3"/>
<path d="M37.0351 106.816V123.139C36.8363 123.286 36.6141 123.398 36.3782 123.471C32.8985 123.782 32.7445 123.637 32.7343 120.169V117.293C32.3733 117.14 31.9848 117.065 31.5936 117.072C31.2024 117.08 30.817 117.169 30.4618 117.335C30.1066 117.501 29.7894 117.74 29.5304 118.037C29.2713 118.333 29.076 118.681 28.9569 119.058C28.6284 119.816 28.3923 120.615 28.0946 121.384C27.3453 123.377 27.1605 123.523 25.0665 123.513C24.348 123.513 23.6397 123.429 22.6133 123.357C23.4755 120.512 24.2556 117.957 26.288 115.849C25.4088 115.464 24.6772 114.799 24.2033 113.957C23.7294 113.114 23.5389 112.138 23.6603 111.177C23.6575 110.387 23.8733 109.613 24.2833 108.941C24.6933 108.27 25.2811 107.727 25.9801 107.376C26.7052 107.001 27.4794 106.732 28.2794 106.577C31.1786 105.989 34.1715 106.071 37.0351 106.816ZM32.6111 109.578C31.6366 109.558 30.662 109.613 29.6959 109.744C29.4507 109.781 29.2155 109.869 29.0043 110C28.7931 110.131 28.6103 110.304 28.4666 110.509C28.3229 110.713 28.2214 110.945 28.1681 111.19C28.1147 111.435 28.1107 111.688 28.1562 111.935C28.1535 112.164 28.1959 112.391 28.2809 112.603C28.366 112.815 28.492 113.008 28.6516 113.171C28.8112 113.333 29.0011 113.462 29.2104 113.549C29.4197 113.636 29.644 113.681 29.8704 113.679C30.7326 113.742 31.6154 113.679 32.6111 113.679V109.578Z" fill="#B4E4AC" fill-opacity="0.3"/>
<path d="M402.909 106.826C403.621 106.595 404.348 106.414 405.085 106.286C407.056 106.11 407.436 106.4 408.103 108.363C409.041 111.241 410.149 114.06 411.419 116.805L413.389 110.689C413.584 110.055 413.749 109.422 413.954 108.789C414.868 105.954 415.761 105.622 418.891 107.106C418.727 107.823 418.604 108.612 418.358 109.36C416.476 115.174 414.58 120.986 412.671 126.794C411.644 129.795 411.644 129.795 408.565 129.711C408.165 129.711 407.764 129.66 407.282 129.618C406.81 128.216 407.6 127.136 408.072 126.077C408.4 125.383 408.575 124.625 408.584 123.856C408.592 123.086 408.435 122.324 408.124 121.623C406.502 117.563 405.096 113.42 403.617 109.297C403.351 108.581 403.197 107.864 402.909 106.826Z" fill="#B4E4AC" fill-opacity="0.3"/>
<path d="M323.029 117.417C324.056 113.918 324.99 111.021 325.852 108.072C325.926 107.536 326.195 107.046 326.607 106.7C327.02 106.355 327.545 106.177 328.08 106.203C330.287 106.203 330.861 106.878 330.133 109.027C328.278 114.78 326.403 120.525 324.508 126.264C323.296 129.981 323.04 130.116 318.954 129.379C318.554 127.874 319.519 126.69 319.981 125.413C320.222 124.863 320.346 124.269 320.346 123.668C320.346 123.067 320.222 122.473 319.981 121.924C318.267 117.77 316.809 113.389 315.28 109.1C314.664 107.397 314.818 106.722 315.813 106.369C317.343 105.808 319.078 106.317 319.57 107.584C320.289 109.443 320.864 111.343 321.521 113.222C321.931 114.458 322.393 115.673 323.029 117.417Z" fill="#B4E4AC" fill-opacity="0.3"/>
<path d="M215.415 42.1157C224.427 37.3912 232.002 39.2291 237.063 47.0168C231.848 52.6654 224.807 52.9146 220.321 47.9305C218.689 46.1134 217.149 44.1821 215.415 42.1157Z" fill="#B4E4AC" fill-opacity="0.3"/>
<path d="M235.78 42.5726C233.891 41.202 232.013 40.039 230.35 38.6061C227.27 35.9687 226.706 32.459 227.496 28.6586C228.197 25.7701 229.381 23.024 230.996 20.5387C238.356 23.6953 240.943 34.7434 235.78 42.5726Z" fill="#B4E4AC" fill-opacity="0.3"/>
<path d="M351.853 106.65C352.078 107.536 352.232 108.438 352.315 109.349C352.315 113.337 352.315 117.314 352.315 121.301C352.315 122.111 352.499 123.201 351.473 123.378C350.353 123.539 349.212 123.475 348.116 123.191C347.808 123.118 347.603 122.059 347.593 121.446C347.531 118.456 347.593 115.465 347.593 112.485C347.593 111.831 347.521 111.187 347.47 110.408H345.109C344.77 112.267 344.554 114.157 344.082 115.964C343.636 117.803 342.971 119.582 342.101 121.259C340.952 123.336 339.022 124.125 336.445 123.45C336.328 122.649 336.297 121.838 336.353 121.031C336.403 120.735 336.517 120.453 336.685 120.206C336.853 119.959 337.073 119.751 337.328 119.598C337.852 119.365 338.313 119.008 338.67 118.555C339.028 118.103 339.272 117.57 339.381 117.002C339.874 114.925 340.274 112.849 340.654 110.699C340.869 109.484 340.982 108.249 341.177 106.681C344.698 106.535 348.188 106.598 351.853 106.65Z" fill="#B4E4AC" fill-opacity="0.3"/>
<path d="M307.129 107.065C305.867 109.744 305.497 112.662 302.941 114.624C305.672 116.825 306.247 120.055 307.602 122.931C306.082 123.845 304.686 123.512 303.362 123.346C302.952 123.294 302.521 122.588 302.336 122.1C301.833 120.968 301.474 119.774 301.032 118.622C300.822 117.924 300.36 117.332 299.738 116.963C299.117 116.593 298.38 116.474 297.676 116.628C297.676 118.103 297.676 119.546 297.676 121C297.676 123.388 297.532 123.502 295.13 123.481C294.648 123.481 294.165 123.419 293.406 123.367C293.077 117.812 293.323 112.309 293.262 106.826C293.931 106.392 294.714 106.175 295.508 106.203C296.302 106.23 297.069 106.502 297.706 106.982V112.828C299.308 113.243 300.067 112.35 300.642 111.333C301.057 110.527 301.401 109.687 301.669 108.82C302.685 106.027 304.05 105.559 307.129 107.065Z" fill="#B4E4AC" fill-opacity="0.3"/>
<path d="M239.865 93.2236C242.513 85.6125 244.894 77.8663 250.129 71.2624C251.156 72.0204 252.182 72.6019 253.034 73.3391C256.452 76.34 256.689 80.213 253.64 83.5773C252.663 84.6962 251.576 85.712 250.396 86.6093C247.091 89.0287 243.704 91.3442 240.347 93.6909L239.865 93.2236Z" fill="#B4E4AC" fill-opacity="0.3"/>
<path d="M362.692 106.836C363.366 106.447 364.133 106.251 364.909 106.271C365.686 106.292 366.442 106.526 367.095 106.951V111.789C368.122 111.789 368.994 111.789 369.857 111.789C370.834 111.817 371.806 111.936 372.762 112.142C375.441 112.807 376.796 114.365 377.062 116.898C377.273 118.137 377.053 119.411 376.439 120.503C375.825 121.596 374.855 122.439 373.696 122.889C372.892 123.295 372.023 123.548 371.129 123.637C369.005 123.762 366.87 123.782 364.745 123.699C363.195 123.647 362.692 123.201 362.692 121.82C362.661 116.815 362.692 111.852 362.692 106.836ZM367.249 120.221C368.334 120.232 369.417 120.169 370.493 120.034C371.022 119.952 371.499 119.664 371.821 119.231C372.143 118.798 372.285 118.256 372.218 117.718C372.254 117.474 372.242 117.225 372.184 116.986C372.125 116.746 372.02 116.521 371.875 116.322C371.731 116.123 371.548 115.956 371.339 115.828C371.13 115.701 370.899 115.616 370.657 115.579C369.631 115.361 368.491 115.309 367.249 115.164V120.221Z" fill="#B4E4AC" fill-opacity="0.3"/>
<path d="M247.533 69.9645L238.202 91.0223C237.787 90.0917 237.444 89.1301 237.176 88.1461C236.632 85.2283 236.026 82.3001 235.749 79.3408C235.476 76.7729 235.909 74.1786 237.001 71.8439C237.412 70.8903 238.096 70.0836 238.966 69.5282C239.835 68.9727 240.849 68.6943 241.877 68.7288C243.838 68.6147 245.793 69.0418 247.533 69.9645Z" fill="#B4E4AC" fill-opacity="0.3"/>
<path d="M272.835 27.4541C272.1 26.7926 271.414 26.0777 270.782 25.3151C268.261 21.7199 266.869 17.439 266.789 13.0314C266.783 12.2888 266.89 11.5497 267.108 10.8404C267.816 8.37954 269.992 7.51771 272.065 8.98179C274.128 10.5044 275.688 12.6216 276.541 15.0562C276.629 15.3159 276.659 15.5922 276.629 15.8651C276.598 16.138 276.509 16.4008 276.366 16.6345C273.985 19.5834 273.256 23.093 272.835 27.4541Z" fill="#B4E4AC" fill-opacity="0.3"/>
<path d="M391.936 123.315H387.758C387.194 121.238 387.563 119.162 387.502 117.179C387.44 115.195 387.502 113.025 387.502 110.73L383.262 110.471C383.201 109.277 383.139 108.114 383.067 106.764H396.175V110.419L391.957 110.73L391.936 123.315Z" fill="#B4E4AC" fill-opacity="0.3"/>
<path d="M343.446 77.7314C344.842 79.5485 345.879 81.4279 345.088 83.8888C344.675 85.2459 343.772 86.3963 342.56 87.1116C341.347 87.827 339.913 88.055 338.542 87.7504C337.171 87.4458 335.963 86.6309 335.158 85.4674C334.353 84.3039 334.01 82.8768 334.197 81.4694C334.355 80.1428 334.995 78.923 335.993 78.0477C336.992 77.1725 338.276 76.7043 339.597 76.7345C340.805 76.8845 341.997 77.1451 343.158 77.5133C343.247 77.595 343.343 77.668 343.446 77.7314Z" fill="#B4E4AC" fill-opacity="0.3"/>
<path d="M332.791 48.6678C333.068 48.2732 333.356 47.889 333.602 47.484C334.201 46.4419 335.118 45.625 336.216 45.1568C337.314 44.6885 338.533 44.5942 339.689 44.8882C340.777 45.1186 341.769 45.6846 342.526 46.5084C343.283 47.3321 343.77 48.3731 343.918 49.4881C344.101 50.6398 343.93 51.8207 343.427 52.8703C342.924 53.92 342.113 54.7874 341.105 55.3548C340.416 55.7617 339.646 56.0097 338.85 56.0811C338.055 56.1525 337.254 56.0456 336.504 55.768C335.754 55.4903 335.074 55.0488 334.512 54.4748C333.95 53.9009 333.52 53.2086 333.253 52.4474C332.979 51.1752 332.844 49.8763 332.853 48.5743L332.791 48.6678Z" fill="#B4E4AC" fill-opacity="0.3"/>
<path d="M310.948 79.1331C310.916 78.3913 311.032 77.6507 311.29 76.9554C311.548 76.2602 311.941 75.6246 312.447 75.0867C312.953 74.5487 313.561 74.1195 314.234 73.8246C314.908 73.5297 315.634 73.3751 316.367 73.3703C317.855 73.4056 319.269 74.0304 320.306 75.1102C321.343 76.19 321.919 77.6383 321.91 79.1435C321.92 79.8845 321.783 80.6199 321.509 81.3069C321.234 81.9939 320.827 82.6186 320.311 83.1445C319.795 83.6704 319.18 84.087 318.503 84.3699C317.826 84.6528 317.1 84.7964 316.367 84.7922C315.635 84.8137 314.906 84.6807 314.227 84.4016C313.548 84.1225 312.935 83.7033 312.425 83.1709C311.915 82.6386 311.52 82.0046 311.266 81.3094C311.012 80.6142 310.903 79.873 310.948 79.1331Z" fill="#B4E4AC" fill-opacity="0.3"/>
<path d="M343.446 77.7314C343.343 77.668 343.247 77.595 343.158 77.5133C342.861 77.0356 342.584 76.5476 342.265 76.0804C341.385 74.8727 341.015 73.3608 341.236 71.877C341.457 70.3932 342.252 69.0591 343.446 68.1681C344.661 67.3133 346.153 66.9608 347.617 67.1828C349.081 67.4048 350.405 68.1845 351.319 69.3622C352.171 70.5799 352.524 72.0838 352.303 73.5588C352.083 75.0338 351.308 76.3654 350.138 77.2745C349.769 77.5756 349.41 77.8975 349.05 78.1986L349.132 78.1156C347.236 78.4934 345.275 78.361 343.446 77.7314Z" fill="#B4E4AC" fill-opacity="0.3"/>
<path d="M339.011 66.569C338.922 66.4874 338.826 66.4143 338.724 66.351C336.435 63.6201 335.993 61.3357 337.287 58.9163C337.913 57.6958 338.969 56.7574 340.246 56.2863C341.523 55.8153 342.929 55.846 344.185 56.3724C345.529 56.9001 346.62 57.9316 347.232 59.2524C347.844 60.5732 347.929 62.0818 347.469 63.4643C347.072 64.7321 346.235 65.8118 345.113 66.5045C343.99 67.1972 342.658 67.4561 341.362 67.2336C340.566 67.0583 339.781 66.8364 339.011 66.569Z" fill="#B4E4AC" fill-opacity="0.3"/>
<path d="M330.985 75.6235C331.539 76.2258 332.165 76.7865 332.658 77.4406C333.103 78.0365 333.425 78.7164 333.607 79.4403C333.788 80.1642 333.824 80.9175 333.713 81.6559C333.602 82.3942 333.346 83.1025 332.961 83.7393C332.575 84.376 332.067 84.9282 331.467 85.3633C330.847 85.8058 330.145 86.1182 329.404 86.2822C328.663 86.4462 327.896 86.4584 327.15 86.3181C326.404 86.1778 325.693 85.8878 325.059 85.4652C324.426 85.0426 323.882 84.4961 323.461 83.8577C322.676 82.5344 322.436 80.9529 322.791 79.4525C323.146 77.952 324.068 76.6519 325.36 75.8312C327.228 74.7928 329.157 75.1355 331.067 75.7066L330.985 75.6235Z" fill="#B4E4AC" fill-opacity="0.3"/>
<path d="M349.05 78.1986C350.077 78.1986 351.001 78.1986 351.976 78.1986C354.953 78.3232 356.759 80.4103 356.964 83.515C357.078 84.9276 356.637 86.3286 355.735 87.4135C354.834 88.4985 353.546 89.1797 352.15 89.309C350.755 89.5297 349.329 89.1894 348.178 88.3609C347.027 87.5324 346.243 86.2814 345.991 84.8752C345.758 83.8228 345.827 82.7248 346.191 81.711C346.555 80.6971 347.198 79.8098 348.044 79.1539C348.405 78.8266 348.747 78.48 349.071 78.1156L349.05 78.1986Z" fill="#B4E4AC" fill-opacity="0.3"/>
<path d="M259.511 45.4488C264.192 51.1183 264.295 57.12 259.635 62.1664C254.933 59.7574 253.291 55.0225 255.621 50.4641C256.54 48.5247 257.868 46.8127 259.511 45.4488Z" fill="#B4E4AC" fill-opacity="0.3"/>
<path d="M56.9892 110.471L51.8569 110.699V122.838C50.4198 123.876 49.0649 123.502 47.4842 123.409C47.207 117.885 47.4226 112.464 47.3507 107.055C49.0546 106.286 50.6251 106.67 52.1443 106.608C53.6635 106.546 55.2237 106.608 56.9892 106.608V110.471Z" fill="#B4E4AC" fill-opacity="0.3"/>
<path d="M70.0152 114.905C70.0152 117.147 70.0152 119.38 70.0152 121.612C70.0152 123.346 69.697 123.533 67.6544 123.533C65.6117 123.533 65.314 123.357 65.2935 121.623C65.2524 117.227 65.2524 112.838 65.2935 108.456C65.2935 106.722 65.9504 106.213 67.7878 106.255C69.6252 106.297 69.9844 106.733 70.0255 108.446C70.0152 110.606 70.0152 112.765 70.0152 114.905Z" fill="#B4E4AC" fill-opacity="0.3"/>
<path d="M130.577 106.598H134.868V123.367H130.628C130.577 117.812 130.649 112.402 130.577 106.598Z" fill="#B4E4AC" fill-opacity="0.3"/>
<path d="M322.003 83.3593C323.922 86.7235 324.59 87.1908 328.439 87.8865C327.618 91.8115 324.507 93.774 320.843 92.6837C318.462 91.9672 316.737 88.5303 317.712 86.2355C318.043 85.699 318.516 85.2673 319.077 84.9895C319.96 84.4288 320.894 83.9719 322.003 83.3593Z" fill="#B4E4AC" fill-opacity="0.3"/>
<path d="M348.855 61.4084C348.701 60.8581 348.568 60.2974 348.393 59.747C347.603 57.2238 346.269 55.2821 343.415 55.1575C343.738 53.8685 344.164 52.608 344.688 51.3882C345.099 50.7202 345.75 50.2399 346.505 50.0488C347.407 49.8579 348.343 49.9095 349.22 50.1986C350.096 50.4877 350.883 51.004 351.501 51.6963C352.119 52.3885 352.546 53.2324 352.741 54.144C352.936 55.0555 352.892 56.0028 352.612 56.8916C352.107 58.0863 351.394 59.18 350.508 60.1208C349.988 60.6344 349.413 61.0872 348.794 61.4707L348.855 61.4084Z" fill="#B4E4AC" fill-opacity="0.3"/>
<path d="M328.757 44.8466L330.625 44.099C332.237 45.1373 332.257 47.0168 332.791 48.6677L332.852 48.5743C332.545 49.3219 332.267 50.0799 331.918 50.8171C331.53 51.6839 330.922 52.4319 330.157 52.9858C329.392 53.5397 328.496 53.8801 327.56 53.9727C326.624 54.0653 325.68 53.9069 324.823 53.5134C323.967 53.1198 323.227 52.5051 322.68 51.7309C324.364 49.9034 326.037 48.1174 327.679 46.3003C328.084 45.8077 328.464 45.2948 328.818 44.7635L328.757 44.8466Z" fill="#B4E4AC" fill-opacity="0.3"/>
<path d="M348.794 61.4707L350.221 61.1176C353.3 60.4427 355.681 61.7406 356.646 64.565C357.611 67.3893 356.554 70.0371 353.515 71.5324C352.643 68.6353 351.35 66.1121 347.634 65.8006C348.568 64.3365 349.369 63.0178 348.855 61.4084L348.794 61.4707Z" fill="#B4E4AC" fill-opacity="0.3"/>
<path d="M340.561 89.2675C339.966 92.611 337.656 94.4593 334.936 94.0751C331.611 93.5559 329.239 91.0846 329.804 87.8449L333.664 85.2906C334.25 86.6063 335.233 87.7001 336.473 88.4147C337.712 89.1293 339.144 89.4279 340.561 89.2675Z" fill="#B4E4AC" fill-opacity="0.3"/>
<path d="M302.51 23.7472C305.857 26.5819 306.318 33.0924 302.51 35.8648C297.501 32.9471 297.83 27.8591 302.51 23.7472Z" fill="#B4E4AC" fill-opacity="0.3"/>
<path d="M322.444 278.664C322.444 275.974 323.984 274.261 326.386 274.23C326.837 274.186 327.291 274.241 327.719 274.391C328.147 274.541 328.537 274.782 328.865 275.098C329.192 275.414 329.448 275.798 329.615 276.224C329.783 276.649 329.858 277.106 329.835 277.563C329.891 278.144 329.824 278.73 329.637 279.282C329.45 279.833 329.149 280.339 328.753 280.763C328.357 281.187 327.876 281.52 327.342 281.74C326.808 281.96 326.233 282.062 325.657 282.038C323.368 282.018 322.434 281.042 322.444 278.664Z" fill="#B4E4AC" fill-opacity="0.3"/>
<path d="M335.306 274.23C337.359 274.23 338.57 275.528 338.539 277.74C338.558 278.297 338.466 278.853 338.269 279.374C338.071 279.894 337.772 280.37 337.388 280.771C337.005 281.172 336.546 281.491 336.038 281.709C335.531 281.927 334.985 282.039 334.433 282.038C332.206 282.038 331.169 281 331.169 278.684C331.159 275.954 332.791 274.219 335.306 274.23Z" fill="#B4E4AC" fill-opacity="0.3"/>
<path d="M269.93 53.8492C265.619 53.9218 262.057 49.1765 263.125 45.1685C269.242 45.0646 271.839 49.4881 269.93 53.8492Z" fill="#B4E4AC" fill-opacity="0.3"/>
<path d="M193.848 69.2168C193.859 69.6731 193.778 70.1269 193.608 70.5499C193.439 70.973 193.185 71.3564 192.864 71.6763C192.542 71.9962 192.158 72.2459 191.737 72.4097C191.316 72.5736 190.866 72.6482 190.415 72.629C189.965 72.6098 189.522 72.4971 189.116 72.2979C188.71 72.0987 188.349 71.8173 188.055 71.4711C187.761 71.1249 187.54 70.7213 187.407 70.2853C187.273 69.8493 187.23 69.3902 187.279 68.9365C187.279 66.8078 188.511 65.6656 190.707 65.6968C192.904 65.7279 193.91 67.0259 193.848 69.2168Z" fill="#B4E4AC" fill-opacity="0.3"/>
<path d="M315.064 63.942C315.986 64.6778 316.63 65.711 316.89 66.8694C317.149 68.0277 317.009 69.2411 316.491 70.3071C316.013 71.4909 315.121 72.455 313.985 73.0144C312.848 73.5739 311.548 73.6895 310.332 73.3391L315.064 63.942Z" fill="#B4E4AC" fill-opacity="0.3"/>
<path d="M345.447 86.7131L348.701 90.3162C346.33 93.2548 342.994 92.7979 341.567 89.2052L345.447 86.7131Z" fill="#B4E4AC" fill-opacity="0.3"/>
<path d="M353.762 72.5084C357.58 72.8926 358.74 75.6235 356.687 79.2266L352.396 76.8695L353.762 72.5084Z" fill="#B4E4AC" fill-opacity="0.3"/>
<path d="M67.6033 104.272C65.6325 104.272 65.0576 103.721 65.0987 101.863C65.1398 100.004 65.6838 99.6511 67.5622 99.6199C69.6768 99.6199 70.1695 100.014 70.1695 101.884C70.1695 103.753 69.6152 104.261 67.6033 104.272Z" fill="#B4E4AC" fill-opacity="0.3"/>
<path d="M132.784 99.6199C134.837 99.6199 135.227 99.9418 135.216 101.998C135.206 104.054 134.847 104.303 132.691 104.272C130.792 104.272 130.32 103.804 130.289 102.019C130.259 100.233 130.762 99.6303 132.784 99.6199Z" fill="#B4E4AC" fill-opacity="0.3"/>
</g>
<defs>
<clipPath id="clip0_107_346">
<rect width="586" height="330" fill="white"/>
</clipPath>
</defs>
</svg>
