<svg width="24" height="24" viewBox="0 0 24 24" fill="none" xmlns="http://www.w3.org/2000/svg">
<path d="M23.5625 22.4085C23.5625 23.287 22.8625 24 22 24C21.1375 24 20.4375 23.287 20.4375 22.4085C20.4375 21.53 21.1375 20.817 22 20.817C22.8625 20.817 23.5625 21.53 23.5625 22.4085Z" fill="black"/>
<path d="M5.5625 22.4085C5.5625 23.287 4.8625 24 4 24C3.1375 24 2.4375 23.287 2.4375 22.4085C2.4375 21.53 3.1375 20.817 4 20.817C4.8625 20.817 5.5625 21.53 5.5625 22.4085Z" fill="black"/>
<path d="M3.99375 2.03714L3.3 0H0V1.08223H2.60625L6.2 14.661C4.175 15.3804 2.45625 17.0737 2.11875 19.3146C2 20.0594 2 20.3714 2 20.3714H24V19.3082H3.20625C3.5 17.2966 5.63125 15.6095 7.8375 15.3294C10.0437 15.0493 23.0438 13.1523 23.0438 13.1523L24 2.03714H3.99375Z" fill="black"/>
</svg>
