<svg width="64" height="64" viewBox="0 0 64 64" fill="none" xmlns="http://www.w3.org/2000/svg">
<path d="M32.896 62.592C49.7915 62.592 63.488 48.8955 63.488 32C63.488 15.1045 49.7915 1.40796 32.896 1.40796C16.0005 1.40796 2.30399 15.1045 2.30399 32C2.30399 48.8955 16.0005 62.592 32.896 62.592Z" fill="#B4E4AC"/>
<path d="M45.312 17.28C45.312 17.28 30.976 11.264 23.68 19.072C22.8493 19.9603 19.9975 29.559 23.936 29.056C29.952 28.288 27.5623 23.1859 31.104 22.784C36.224 23.296 49.92 37.632 49.92 37.632L54.272 31.744L48.512 22.528L45.312 17.28Z" fill="white"/>
<path d="M45.248 17.216C45.248 17.216 21.833 8.99585 21.504 25.7767C21.504 25.7767 21.4438 29.376 23.9488 29.1047C27.0438 28.777 29.2838 27.2154 29.2838 24.4365C29.2838 21.6576 33.952 23.6583 33.952 23.6583L49.8394 37.5578L54.08 30.656" stroke="black" stroke-width="3" stroke-miterlimit="10"/>
<path d="M12.8307 32C12.8307 32 31.168 51.8938 34.391 51.3382C37.6141 50.7827 36.951 48.3379 36.951 48.3379L30.5011 43.008" stroke="black" stroke-width="3" stroke-miterlimit="10"/>
<path d="M42.7699 31.3792C42.7699 31.3792 51.3946 37.4464 50.9504 39.6697C50.5062 41.8931 47.616 42.4473 45.952 41.2249C44.288 40.0025 35.616 33.6729 35.616 33.6729" stroke="black" stroke-width="3" stroke-miterlimit="10"/>
<path d="M33.1686 38.7841C33.1686 38.7841 42.9478 46.5639 44.8371 45.897C46.9747 45.1431 47.2448 42.6151 45.5795 41.3889C43.9142 40.1626 35.6134 33.6641 35.6134 33.6641" stroke="black" stroke-width="3" stroke-miterlimit="10"/>
<path d="M33.1687 38.7839C33.1687 38.7839 42.5792 45.1033 42.5575 47.1039C42.5331 49.3708 40.2278 50.4422 38.5306 49.262C36.8333 48.0819 30.5011 43.0079 30.5011 43.0079" stroke="black" stroke-width="3" stroke-miterlimit="10"/>
<path d="M49.5504 11.7003L43.9779 15.1567L55.5765 33.8562L61.149 30.3997L49.5504 11.7003Z" stroke="black" stroke-width="3" stroke-miterlimit="10"/>
<path d="M5.41085 30.3973L10.9834 33.8538L22.582 15.1543L17.0095 11.6979L5.41085 30.3973Z" fill="white" stroke="black" stroke-width="3" stroke-miterlimit="10"/>
<path d="M18.6618 36.0191L18.6608 36.0183C17.3041 34.9236 15.3168 35.1359 14.2221 36.4926L12.2801 38.8993C11.1854 40.256 11.3978 42.2433 12.7545 43.338L12.7555 43.3388C14.1122 44.4335 16.0994 44.2211 17.1942 42.8645L19.1361 40.4578C20.2308 39.1011 20.0185 37.1138 18.6618 36.0191Z" fill="white" stroke="black" stroke-width="3" stroke-miterlimit="10"/>
<path d="M23.2547 43.9633C24.1967 42.7959 24.0142 41.086 22.847 40.1442C21.6798 39.2024 19.97 39.3854 19.028 40.5528L17.1496 42.8808C16.2076 44.0482 16.3901 45.7581 17.5572 46.6999C18.7244 47.6417 20.4342 47.4587 21.3762 46.2913L23.2547 43.9633Z" fill="white" stroke="black" stroke-width="3" stroke-miterlimit="10"/>
<path d="M27.5907 47.9633C28.5327 46.7959 28.3502 45.086 27.183 44.1442C26.0159 43.2024 24.3061 43.3854 23.3641 44.5528L21.4856 46.8808C20.5436 48.0482 20.7261 49.7581 21.8933 50.6999C23.0604 51.6417 24.7703 51.4587 25.7123 50.2913L27.5907 47.9633Z" fill="white" stroke="black" stroke-width="3" stroke-miterlimit="10"/>
<path d="M31.5686 50.3845C32.365 49.3975 32.2105 47.9518 31.2235 47.1554C30.2365 46.359 28.7908 46.5135 27.9944 47.5005L26.4053 49.4699C25.6089 50.4568 25.7634 51.9026 26.7504 52.699C27.7374 53.4954 29.1831 53.3409 29.9795 52.3539L31.5686 50.3845Z" fill="white" stroke="black" stroke-width="3" stroke-miterlimit="10"/>
<path d="M22.144 17.0239L24.5363 18.0134" stroke="black" stroke-width="3" stroke-miterlimit="10"/>
</svg>
