<svg width="35" height="35" viewBox="0 0 35 35" fill="none" xmlns="http://www.w3.org/2000/svg">
<path fill-rule="evenodd" clip-rule="evenodd" d="M17.5 0C15.9906 0 13.4685 0.579688 11.095 1.225C8.66689 1.88125 6.21908 2.65781 4.7797 3.12812C4.1779 3.32686 3.64437 3.69133 3.24039 4.17966C2.83642 4.66799 2.57839 5.26037 2.49595 5.88875C1.1922 15.6822 4.21751 22.9403 7.88814 27.7419C9.44472 29.7959 11.3007 31.6046 13.3941 33.1078C14.2385 33.705 15.0216 34.1622 15.6866 34.475C16.2991 34.7638 16.9575 35 17.5 35C18.0425 35 18.6988 34.7638 19.3135 34.475C20.1151 34.0853 20.8821 33.628 21.606 33.1078C23.6994 31.6047 25.5554 29.7959 27.1119 27.7419C30.7825 22.9403 33.8078 15.6822 32.5041 5.88875C32.4218 5.26007 32.1638 4.66734 31.7599 4.17863C31.3559 3.68993 30.8223 3.32507 30.2203 3.12594C28.1308 2.44084 26.0251 1.80628 23.905 1.22281C21.5316 0.581875 19.0094 0 17.5 0ZM22.1944 11.2569C22.3998 11.0515 22.6783 10.9361 22.9688 10.9361C23.2592 10.9361 23.5378 11.0515 23.7431 11.2569C23.9485 11.4623 24.0639 11.7408 24.0639 12.0312C24.0639 12.3217 23.9485 12.6002 23.7431 12.8056L17.1806 19.3681C17.079 19.47 16.9583 19.5508 16.8255 19.6059C16.6926 19.6611 16.5501 19.6895 16.4063 19.6895C16.2624 19.6895 16.1199 19.6611 15.9871 19.6059C15.8542 19.5508 15.7335 19.47 15.6319 19.3681L12.3506 16.0869C12.2489 15.9852 12.1683 15.8645 12.1132 15.7316C12.0582 15.5987 12.0299 15.4563 12.0299 15.3125C12.0299 15.1687 12.0582 15.0263 12.1132 14.8934C12.1683 14.7605 12.2489 14.6398 12.3506 14.5381C12.4523 14.4364 12.5731 14.3558 12.7059 14.3007C12.8388 14.2457 12.9812 14.2174 13.125 14.2174C13.2688 14.2174 13.4112 14.2457 13.5441 14.3007C13.677 14.3558 13.7977 14.4364 13.8994 14.5381L16.4063 17.0472L22.1944 11.2569Z" fill="#B4E4AC"/>
</svg>
