<svg width="20" height="20" viewBox="0 0 20 20" fill="none" xmlns="http://www.w3.org/2000/svg">
<path d="M17.7778 16.283C19.1667 14.5659 20 12.3807 20 10C20 7.61926 19.1667 5.43407 17.7778 3.71704V3.7037H17.7674C15.9337 1.44444 13.1363 0 10 0C6.8637 0 4.0663 1.44444 2.23259 3.7037H2.22222V3.71704C0.833333 5.43407 0 7.61926 0 10C0 12.3807 0.833333 14.5659 2.22222 16.283V16.2963H2.23259C4.0663 18.5556 6.8637 20 10 20C13.1363 20 15.9337 18.5556 17.7674 16.2963H17.7778V16.283ZM16.2896 9.81481C16.2548 7.70556 15.6337 5.74037 14.5804 4.07407H17.5819C18.8274 5.66407 19.5837 7.65296 19.6252 9.81481H16.2896ZM15.9193 9.81481H10.1852V4.07407H14.1307C15.2293 5.72556 15.8833 7.69481 15.9193 9.81481ZM10.1852 3.7037V0.504815C11.647 1.27778 12.913 2.37407 13.8796 3.7037H10.1852ZM9.81481 3.7037H6.12037C7.08667 2.37407 8.35259 1.27778 9.81481 0.504815V3.7037ZM9.81481 4.07407V9.81481H4.08074C4.11704 7.69481 4.77037 5.72556 5.86926 4.07407H9.81481ZM3.71037 9.81481H0.375185C0.416296 7.65296 1.17259 5.66407 2.41815 4.07407H5.41963C4.36593 5.74037 3.74481 7.70556 3.71037 9.81481ZM3.71037 10.1852C3.74518 12.2944 4.3663 14.2596 5.41963 15.9259H2.41815C1.17259 14.3359 0.416296 12.347 0.375185 10.1852H3.71037ZM4.08074 10.1852H9.81481V15.9259H5.86926C4.77037 14.2744 4.11704 12.3052 4.08074 10.1852ZM9.81481 16.2963V19.4956C8.35259 18.7222 7.08704 17.6259 6.12037 16.2963H9.81481ZM10.1852 16.2963H13.8796C12.9133 17.6259 11.6474 18.7222 10.1852 19.4956V16.2963ZM10.1852 15.9259V10.1852H15.9193C15.883 12.3052 15.2293 14.2744 14.1307 15.9259H10.1852ZM16.2896 10.1852H19.6248C19.5837 12.347 18.8274 14.3359 17.5815 15.9259H14.58C15.6341 14.2596 16.2552 12.2944 16.2896 10.1852ZM17.2763 3.7037H14.3363C13.4085 2.35852 12.1919 1.23111 10.7759 0.404444C13.3659 0.611852 15.6689 1.84815 17.2763 3.7037ZM9.2237 0.404444C7.80778 1.23111 6.59111 2.35852 5.66333 3.7037H2.72333C4.33111 1.84815 6.63407 0.611852 9.2237 0.404444ZM2.72333 16.2963H5.66333C6.59074 17.6415 7.80778 18.7693 9.2237 19.5956C6.63407 19.3881 4.33111 18.1522 2.72333 16.2963ZM10.7763 19.5956C12.1919 18.7693 13.4089 17.6415 14.3367 16.2963H17.2767C15.6689 18.1522 13.3659 19.3881 10.7763 19.5956Z" fill="white"/>
</svg>
