<svg width="64" height="65" viewBox="0 0 64 65" fill="none" xmlns="http://www.w3.org/2000/svg">
<path d="M34.83 7.66998C34.96 7.79998 35.83 8.66998 36.98 9.99998" stroke="#434A54" stroke-width="2" stroke-linecap="round" stroke-linejoin="round"/>
<path d="M20.34 19.03C21.34 17.47 22.29 16.03 23.26 14.69C23.97 13.69 24.67 12.83 25.32 12.03C27.38 9.49998 29 7.85998 29.17 7.66998" stroke="#434A54" stroke-width="2" stroke-linecap="round" stroke-linejoin="round"/>
<path d="M17 42.5C15.6983 40.0767 15.0115 37.3708 15 34.62" stroke="#434A54" stroke-width="2" stroke-linecap="round" stroke-linejoin="round"/>
<path d="M47.37 41.63C45.9028 44.8167 43.4856 47.4714 40.45 49.23" stroke="#434A54" stroke-width="2" stroke-linecap="round" stroke-linejoin="round"/>
<path d="M44.91 34.59C44.8165 37.9504 43.4158 41.1418 41.0058 43.4856C38.5959 45.8294 35.3667 47.1407 32.005 47.1407C28.6433 47.1407 25.4141 45.8294 23.0042 43.4856C20.5942 41.1418 19.1936 37.9504 19.1 34.59C19.09 23.41 32 10.5 32 10.5C32 10.5 44.91 23.41 44.91 34.59Z" fill="#B4E4AC" stroke="#434A54" stroke-width="2" stroke-linecap="round" stroke-linejoin="round"/>
<path d="M32 47.5V57.5" stroke="#434A54" stroke-width="2" stroke-linecap="round" stroke-linejoin="round"/>
<path d="M32 47.5V18.5" stroke="#434A54" stroke-width="2" stroke-linecap="round" stroke-linejoin="round"/>
<path d="M32 37.5L38.5 31" stroke="#434A54" stroke-width="2" stroke-linecap="round" stroke-linejoin="round"/>
<path d="M32 31.5L27 26.5" stroke="#434A54" stroke-width="2" stroke-linecap="round" stroke-linejoin="round"/>
<path d="M32 26.5L36 22.5" stroke="#434A54" stroke-width="2" stroke-linecap="round" stroke-linejoin="round"/>
<path d="M32 42.5L23.5 34" stroke="#434A54" stroke-width="2" stroke-linecap="round" stroke-linejoin="round"/>
</svg>
