<svg class="current" width="241" height="258" viewBox="0 0 241 258" fill="none" xmlns="http://www.w3.org/2000/svg">
<g clip-path="url(#clip0_301_1021)">
<path d="M136.107 1.00891C136.107 1.00891 132.714 11.7529 137.158 19.3523C141.602 26.9517 152.199 28.6026 152.199 28.6026C152.199 28.6026 155.605 17.8717 151.161 10.2592C146.717 2.64671 136.107 1.00891 136.107 1.00891Z" fill="#B4E4AC"/>
<path d="M117.594 30.6597C117.594 30.6597 123.419 22.6279 121.762 14.8058C120.106 6.98361 111.599 2.34534 111.599 2.34534C111.599 2.34534 105.761 10.3902 107.418 18.1993C109.075 26.0083 117.594 30.6597 117.594 30.6597Z" fill="#B4E4AC"/>
<path d="M195.535 56.9039C201.938 48.2563 199.203 34.6298 199.203 34.6298C199.203 34.6298 186.055 35.0752 179.665 43.7097C173.275 52.3442 175.997 65.9839 175.997 65.9839C175.997 65.9839 189.132 65.5515 195.535 56.9039Z" fill="#B4E4AC"/>
<path d="M186.055 113.126C186.055 113.126 190.578 100.089 185.385 90.577C180.191 81.0647 167.254 78.6801 167.254 78.6801C167.254 78.6801 162.744 91.717 167.924 101.229C173.105 110.742 186.055 113.126 186.055 113.126Z" fill="#B4E4AC"/>
<path d="M221.791 101.164C223.632 92.4246 217.084 83.4625 217.084 83.4625C217.084 83.4625 207.578 88.7035 205.751 97.4166C203.923 106.13 210.457 115.079 210.457 115.079C210.457 115.079 219.963 109.916 221.791 101.164Z" fill="#B4E4AC"/>
<path d="M149.728 118.839C157.616 124.224 168.937 120.49 168.937 120.49C168.937 120.49 167.477 108.043 159.602 102.671C151.726 97.2987 140.38 101.02 140.38 101.02C140.38 101.02 141.839 113.454 149.728 118.839Z" fill="#B4E4AC"/>
<path d="M193.589 129.491C199.703 126.255 201.675 117.358 201.675 117.358C201.675 117.358 193.786 113.729 187.646 116.965C181.506 120.202 179.6 129.098 179.6 129.098C179.6 129.098 187.488 132.741 193.589 129.491Z" fill="#B4E4AC"/>
<path d="M220.555 156.116C226.472 159.706 234.571 156.548 234.571 156.548C234.571 156.548 233.072 147.56 227.155 143.956C221.239 140.353 213.127 143.524 213.127 143.524C213.127 143.524 214.625 152.512 220.555 156.116Z" fill="#B4E4AC"/>
<path d="M223.172 178.822C230.232 176.202 233.558 166.846 233.558 166.846C233.558 166.846 225.433 161.723 218.373 164.344C211.312 166.964 207.986 176.319 207.986 176.319C207.986 176.319 216.111 181.443 223.172 178.822Z" fill="#B4E4AC"/>
<path d="M163.178 134.732C163.178 134.732 157.761 141.847 159.102 148.935C160.443 156.024 168.029 160.374 168.029 160.374C168.029 160.374 173.433 153.259 172.105 146.184C170.777 139.108 163.178 134.732 163.178 134.732Z" fill="#B4E4AC"/>
<path d="M165.965 20.7411C158.839 24.436 156.446 34.7345 156.446 34.7345C156.446 34.7345 165.65 39.0583 172.736 35.3634C179.823 31.6686 182.229 21.3831 182.229 21.3831C182.229 21.3831 173.091 17.0593 165.965 20.7411Z" fill="#B4E4AC"/>
<path d="M226.103 129.609C232.533 132.046 239.974 127.434 239.974 127.434C239.974 127.434 237.003 118.865 230.574 116.428C224.144 113.991 216.69 118.616 216.69 118.616C216.69 118.616 219.674 127.185 226.103 129.609Z" fill="#B4E4AC"/>
<path d="M111.231 113.022C116.372 105.907 114.005 94.8748 114.005 94.8748C114.005 94.8748 103.303 95.3596 98.1618 102.474C93.021 109.589 95.3876 120.634 95.3876 120.634C95.3876 120.634 105.972 120.136 111.231 113.022Z" fill="#B4E4AC"/>
<path d="M92.1269 180.971C99.5818 179.53 104.302 170.725 104.302 170.725C104.302 170.725 96.9522 164.173 89.4974 165.667C82.0425 167.161 77.3093 175.913 77.3093 175.913C77.3093 175.913 84.659 182.399 92.1269 180.971Z" fill="#B4E4AC"/>
<path d="M161.574 168.799C161.64 160.793 154.329 154.242 154.329 154.242C154.329 154.242 146.927 160.675 146.874 168.654C146.822 176.634 154.119 183.211 154.119 183.211C154.119 183.211 161.521 176.752 161.574 168.799Z" fill="#B4E4AC"/>
<path d="M111.651 159.941C111.651 159.941 118.725 162.732 123.905 159.601C129.086 156.469 130.479 148.634 130.479 148.634C130.479 148.634 123.419 145.856 118.239 148.975C113.058 152.093 111.651 159.941 111.651 159.941Z" fill="#B4E4AC"/>
<path d="M161.008 86.8037C161.008 86.8037 158.918 78.156 152.896 75.1032C146.875 72.0503 139.183 75.7583 139.183 75.7583C139.183 75.7583 141.26 84.419 147.295 87.4719C153.33 90.5247 161.008 86.8037 161.008 86.8037Z" fill="#B4E4AC"/>
<path d="M223.303 68.8271C217.426 65.8528 209.932 69.4691 209.932 69.4691C209.932 69.4691 211.97 77.9071 217.82 80.8813C223.671 83.8556 231.179 80.2393 231.179 80.2393C231.179 80.2393 229.18 71.8406 223.303 68.8271Z" fill="#B4E4AC"/>
<path d="M214.573 184.207C214.573 184.207 210.51 189.71 211.615 195.122C212.719 200.533 218.57 203.756 218.57 203.756C218.57 203.756 222.632 198.253 221.528 192.855C220.424 187.457 214.573 184.207 214.573 184.207Z" fill="#B4E4AC"/>
<path d="M150.53 210.268C152.817 202.629 147.65 194.086 147.65 194.086C147.65 194.086 138.789 197.938 136.514 205.577C134.24 213.216 139.38 221.746 139.38 221.746C139.38 221.746 148.242 217.907 150.53 210.268Z" fill="#B4E4AC"/>
<path d="M184.569 229.673C191.853 227.445 195.719 218.182 195.719 218.182C195.719 218.182 187.83 212.508 180.494 214.736C173.157 216.963 169.357 226.227 169.357 226.227C169.357 226.227 177.299 231.887 184.569 229.673Z" fill="#B4E4AC"/>
<path d="M159.707 227.524C150.503 223.528 139.485 229.673 139.485 229.673C139.485 229.673 143.233 242.29 152.384 246.273C161.534 250.256 172.592 244.125 172.592 244.125C172.592 244.125 168.845 231.507 159.707 227.524Z" fill="#B4E4AC"/>
<path d="M116.49 217.854C116.49 217.854 109.272 211.198 101.791 212.456C94.3095 213.714 89.3922 222.414 89.3922 222.414C89.3922 222.414 96.6104 229.07 104.091 227.799C111.573 226.528 116.49 217.854 116.49 217.854Z" fill="#B4E4AC"/>
<path d="M133.582 239.788C131.925 231.926 123.419 227.327 123.419 227.327C123.419 227.327 117.581 235.372 119.238 243.181C120.894 250.99 129.401 255.642 129.401 255.642C129.401 255.642 135.239 247.61 133.582 239.788Z" fill="#B4E4AC"/>
<path d="M170.751 213.491C178.035 211.277 181.887 202 181.887 202C181.887 202 173.999 196.34 166.675 198.567C159.352 200.795 155.526 210.045 155.526 210.045C155.526 210.045 163.467 215.718 170.751 213.491Z" fill="#B4E4AC"/>
<path d="M204.751 174.472C204.751 174.472 209.261 161.37 204.081 151.923C198.901 142.476 185.95 139.973 185.95 139.973C185.95 139.973 181.427 153.01 186.621 162.523C191.814 172.035 204.751 174.472 204.751 174.472Z" fill="#B4E4AC"/>
<path d="M70.6039 201.751C70.6039 201.751 62.8467 192.488 53.5906 192.776C44.3345 193.064 37.0901 202.773 37.0901 202.773C37.0901 202.773 44.8473 212.037 54.1034 211.748C63.3595 211.46 70.6039 201.751 70.6039 201.751Z" fill="#B4E4AC"/>
<path d="M37.2084 184.011C41.4946 184.338 45.7676 184.836 50.0407 185.399C62.2813 186.998 74.4825 189.029 86.0263 193.706C71.7741 203.415 58.9155 215.561 50.7113 231.441C50.5272 231.808 50.4877 232.385 50.8953 232.621C51.3029 232.856 51.5264 232.961 51.8288 233.145C51.9143 233.206 52.0113 233.249 52.1139 233.271C52.2166 233.294 52.3229 233.296 52.4262 233.276C52.5294 233.256 52.6277 233.216 52.7148 233.157C52.802 233.099 52.8763 233.023 52.9332 232.935C61.4399 216.491 75.0085 204.11 89.9444 194.388C90.0693 194.308 90.1721 194.199 90.2433 194.07C90.3145 193.94 90.3519 193.795 90.3519 193.647C90.3519 193.5 90.3145 193.355 90.2433 193.225C90.1721 193.096 90.0693 192.986 89.9444 192.907C89.931 192.749 89.8768 192.597 89.7869 192.466C89.697 192.335 89.5746 192.23 89.4317 192.16C73.5754 185.137 56.0624 182.989 39.0754 181.325C29.1751 180.486 19.3536 180.512 9.65052 182.818C9.43958 182.871 9.25688 183.002 9.13962 183.185C9.02235 183.368 8.97938 183.588 9.01945 183.801C9.09833 184.155 9.17722 184.522 9.26926 184.888C9.28526 184.993 9.32182 185.093 9.37683 185.183C9.43184 185.273 9.50421 185.351 9.58977 185.414C9.67533 185.476 9.77238 185.52 9.87533 185.545C9.97828 185.569 10.0851 185.573 10.1896 185.557C18.6031 183.72 27.2479 183.167 35.8279 183.919C33.1326 183.984 26.8742 184.626 23.0613 188.898C18.1046 194.453 19.117 204.044 19.117 204.044C19.117 204.044 28.2284 204.634 33.1983 199.078C38.0367 193.785 37.3005 184.862 37.2084 184.011Z" fill="#B4E4AC"/>
<path d="M67.7377 183.984C67.7377 183.984 72.2606 170.882 67.0672 161.435C61.8738 151.988 48.9363 149.538 48.9363 149.538C48.9363 149.538 44.4266 162.575 49.6068 172.074C54.7871 181.574 67.7377 183.984 67.7377 183.984Z" fill="#B4E4AC"/>
<path d="M19.1959 156.823C17.3683 165.562 23.9028 174.524 23.9028 174.524C23.9028 174.524 33.4087 169.283 35.2362 160.57C37.0638 151.857 30.5293 142.869 30.5293 142.869C30.5293 142.869 21.0366 148.084 19.1959 156.823Z" fill="#B4E4AC"/>
<path d="M100.62 157.006C100.62 157.006 99.161 144.559 91.2855 139.174C83.4099 133.789 72.0765 137.523 72.0765 137.523C72.0765 137.523 73.5227 149.97 81.4115 155.342C89.3002 160.714 100.62 157.006 100.62 157.006Z" fill="#B4E4AC"/>
<path d="M61.4399 128.889C61.4399 128.889 53.5512 125.259 47.4111 128.496C41.2711 131.732 39.3252 140.615 39.3252 140.615C39.3252 140.615 47.2139 144.245 53.354 141.008C59.494 137.772 61.4399 128.889 61.4399 128.889Z" fill="#B4E4AC"/>
<path d="M13.8578 114.031C19.7744 117.621 27.8735 114.463 27.8735 114.463C27.8735 114.463 26.3746 105.475 20.458 101.885C14.5415 98.2945 6.42932 101.439 6.42932 101.439C6.42932 101.439 7.92817 110.44 13.8578 114.031Z" fill="#B4E4AC"/>
<path d="M77.8221 123.255C77.8221 123.255 83.239 116.14 81.8979 109.065C80.5568 101.989 72.9837 97.6132 72.9837 97.6132C72.9837 97.6132 67.5668 104.728 68.9078 111.803C70.2489 118.878 77.8221 123.255 77.8221 123.255Z" fill="#B4E4AC"/>
<path d="M75.0348 237.246C82.174 233.564 84.567 223.252 84.567 223.252C84.567 223.252 75.3634 218.929 68.2768 222.623C61.1901 226.318 58.7446 236.604 58.7446 236.604C58.7446 236.604 67.9086 240.928 75.0348 237.246Z" fill="#B4E4AC"/>
<path d="M47.1876 225.414C52.4468 225.257 56.6015 218.745 56.6015 218.745C56.6015 218.745 52.1312 212.508 46.8326 212.666C41.534 212.823 37.4319 219.335 37.4319 219.335C37.4319 219.335 41.9022 225.585 47.1876 225.414Z" fill="#B4E4AC"/>
<path d="M10.4394 141.559C16.8687 143.996 24.3104 139.384 24.3104 139.384C24.3104 139.384 21.3389 130.815 14.9096 128.378C8.48034 125.941 1.02551 130.566 1.02551 130.566C1.02551 130.566 4.01008 139.135 10.4394 141.559Z" fill="#B4E4AC"/>
<path d="M135.423 133.422C135.423 133.422 128.27 124.984 119.803 125.299C111.336 125.613 104.762 134.536 104.762 134.536C104.762 134.536 111.914 142.961 120.382 142.659C128.849 142.358 135.423 133.422 135.423 133.422Z" fill="#B4E4AC"/>
<path d="M112.795 79.5973C120.053 81.1041 127.324 74.8804 127.324 74.8804C127.324 74.8804 122.814 66.2197 115.556 64.7129C108.299 63.2062 101.094 69.4298 101.094 69.4298C101.094 69.4298 105.538 78.0905 112.795 79.5973Z" fill="#B4E4AC"/>
<path d="M103.842 238.621C99.3977 230.996 88.8006 229.371 88.8006 229.371C88.8006 229.371 85.4084 240.115 89.8524 247.714C94.2963 255.314 104.894 256.965 104.894 256.965C104.894 256.965 108.286 246.234 103.842 238.621Z" fill="#B4E4AC"/>
<path d="M88.0511 84.7596C84.1068 91.5859 87.1439 101.177 87.1439 101.177C87.1439 101.177 96.6235 99.7095 100.581 92.8831C104.539 86.0567 101.488 76.4526 101.488 76.4526C101.488 76.4526 92.0086 77.9201 88.0511 84.7596Z" fill="#B4E4AC"/>
<path d="M104.499 52.4098C106.774 44.7711 101.62 36.2413 101.62 36.2413C101.62 36.2413 92.758 40.0935 90.4703 47.7322C88.1826 55.3709 93.3497 63.9006 93.3497 63.9006C93.3497 63.9006 102.211 60.0485 104.499 52.4098Z" fill="#B4E4AC"/>
<path d="M7.16559 93.6561C7.16559 93.6561 14.9228 96.9449 20.7342 93.6561C26.5455 90.3674 28.2153 81.6936 28.2153 81.6936C28.2153 81.6936 20.4712 78.418 14.6598 81.6936C8.84849 84.9692 7.16559 93.6561 7.16559 93.6561Z" fill="#B4E4AC"/>
<path d="M128.678 108.907C123.984 106.484 117.962 109.327 117.962 109.327C117.962 109.327 119.54 116.101 124.221 118.498C128.901 120.896 134.923 118.079 134.923 118.079C134.923 118.079 133.359 111.331 128.678 108.907Z" fill="#B4E4AC"/>
<path d="M57.4035 20.0336C57.4035 20.0336 49.8961 26.3227 49.6989 34.3283C49.5017 42.3339 56.6804 49.0424 56.6804 49.0424C56.6804 49.0424 64.2009 42.7532 64.3982 34.7476C64.5954 26.742 57.4035 20.0336 57.4035 20.0336Z" fill="#B4E4AC"/>
<path d="M22.1015 50.2348C22.1015 50.2348 22.9956 62.1055 30.2664 67.5692C37.5371 73.033 48.4367 69.9801 48.4367 69.9801C48.4367 69.9801 47.5558 58.0962 40.2719 52.6456C32.988 47.195 22.1015 50.2348 22.1015 50.2348Z" fill="#B4E4AC"/>
<path d="M94.3358 27.9999C97.8594 20.9114 94.2174 11.5432 94.2174 11.5432C94.2174 11.5432 84.8562 13.6789 81.3194 20.7149C77.7826 27.7509 81.4377 37.1716 81.4377 37.1716C81.4377 37.1716 90.8121 35.1538 94.3358 27.9999Z" fill="#B4E4AC"/>
<path d="M139.262 45.531C146.743 44.2207 151.66 35.5862 151.66 35.5862C151.66 35.5862 144.429 28.9301 136.948 30.188C129.467 31.4458 124.55 40.1327 124.55 40.1327C124.55 40.1327 131.781 46.7888 139.262 45.531Z" fill="#B4E4AC"/>
<path d="M74.3379 59.4327C81.6087 57.2053 85.4742 47.9419 85.4742 47.9419C85.4742 47.9419 77.5854 42.2685 70.2621 44.4959C62.9387 46.7233 59.1127 55.9867 59.1127 55.9867C59.1127 55.9867 67.054 61.647 74.3379 59.4327Z" fill="#B4E4AC"/>
<path d="M36.2881 83.5149C36.2881 83.5149 31.7652 96.5518 36.9586 106.064C42.152 115.577 55.0895 117.961 55.0895 117.961C55.0895 117.961 59.5992 104.924 54.4189 95.4119C49.2387 85.8995 36.2881 83.5149 36.2881 83.5149Z" fill="#B4E4AC"/>
<path d="M240.987 135.702C240.921 135.335 240.842 134.968 240.763 134.614C240.749 134.509 240.713 134.407 240.659 134.316C240.605 134.224 240.533 134.144 240.447 134.081C240.361 134.017 240.264 133.972 240.16 133.946C240.056 133.921 239.948 133.916 239.843 133.933C208.696 140.799 174.643 138.65 145.179 125.299C145.079 125.264 144.974 125.249 144.869 125.255C144.764 125.261 144.661 125.289 144.567 125.335C144.473 125.381 144.389 125.446 144.32 125.525C144.251 125.605 144.199 125.697 144.166 125.796L143.864 126.53C137.203 110.679 133.779 93.6638 133.792 76.4789C133.811 76.2645 133.747 76.051 133.612 75.8828C133.478 75.7145 133.283 75.6042 133.069 75.5748H131.912C131.805 75.5677 131.698 75.5817 131.596 75.6161C131.494 75.6505 131.401 75.7045 131.32 75.7751C131.239 75.8457 131.174 75.9315 131.126 76.0275C131.079 76.1236 131.051 76.228 131.045 76.3347C131.066 95.5864 135.241 114.609 143.285 132.112C130.137 141.283 127.008 157.793 125.693 173.463C125.655 173.882 125.785 174.299 126.055 174.622C126.325 174.945 126.713 175.148 127.133 175.186C127.553 175.224 127.971 175.095 128.296 174.826C128.62 174.556 128.824 174.17 128.862 173.751C130.058 159.496 132.557 143.616 144.639 135.073C152.58 151.679 163.041 166.965 175.655 180.394L175.813 180.525C175.873 180.593 175.947 180.646 176.03 180.683C176.113 180.72 176.202 180.739 176.293 180.739C176.383 180.739 176.473 180.72 176.556 180.683C176.638 180.646 176.712 180.593 176.773 180.525L177.601 179.66C177.756 179.508 177.851 179.305 177.867 179.088C177.884 178.871 177.822 178.656 177.693 178.481C163.785 163.722 152.564 146.661 144.534 128.063C159.145 134.477 174.713 138.461 190.617 139.855C207.258 141.343 224.028 140.305 240.356 136.776C240.47 136.751 240.578 136.702 240.672 136.633C240.767 136.564 240.846 136.476 240.905 136.376C240.965 136.275 241.002 136.163 241.016 136.047C241.03 135.931 241.02 135.814 240.987 135.702Z" fill="#B4E4AC"/>
<path d="M200.386 135.82L201.333 136.331C201.452 136.402 201.589 136.438 201.727 136.436C201.871 136.443 202.012 136.406 202.134 136.332C202.257 136.257 202.353 136.147 202.411 136.016C209.892 120.793 222.881 108.958 238.765 102.893C238.97 102.822 239.14 102.675 239.24 102.482C239.34 102.29 239.363 102.067 239.304 101.858C239.186 101.505 239.08 101.151 238.962 100.797C238.935 100.695 238.887 100.6 238.823 100.517C238.758 100.433 238.678 100.364 238.587 100.311C238.495 100.259 238.394 100.225 238.289 100.212C238.184 100.198 238.078 100.206 237.976 100.234C221.423 106.545 207.884 118.872 200.084 134.732C199.998 134.92 199.981 135.132 200.037 135.331C200.092 135.53 200.216 135.703 200.386 135.82Z" fill="#B4E4AC"/>
<path d="M153.146 57.6376C153.15 57.8125 153.222 57.9792 153.347 58.1017C153.472 58.2242 153.641 58.2927 153.817 58.2927C153.899 58.3062 153.984 58.3062 154.066 58.2927L155.118 58.1486C155.33 58.1014 155.515 57.9735 155.632 57.7922C155.75 57.6109 155.792 57.3908 155.749 57.179C153.913 40.3206 156.406 23.2738 162.994 7.63871C163.066 7.43128 163.057 7.20462 162.969 7.00334C162.882 6.80205 162.722 6.64076 162.521 6.55122L161.561 6.09263C161.462 6.05748 161.358 6.04217 161.254 6.04757C161.149 6.05296 161.047 6.07895 160.953 6.12406C160.859 6.16916 160.774 6.23244 160.705 6.31027C160.635 6.3881 160.582 6.47891 160.548 6.57741C153.776 22.6966 151.229 40.2674 153.146 57.6376Z" fill="#B4E4AC"/>
<path d="M228.247 183.513L228.325 182.281C228.344 182.067 228.28 181.853 228.145 181.685C228.011 181.517 227.816 181.406 227.602 181.377C189.474 178.887 148.189 179.438 116.345 204.961C116.183 205.109 116.082 205.314 116.065 205.533C116.048 205.752 116.115 205.969 116.253 206.14L116.963 207.123C117.051 207.265 117.189 207.368 117.35 207.412C117.511 207.456 117.683 207.437 117.831 207.359C117.921 207.328 118.005 207.284 118.081 207.228C135.344 193.418 155.46 187.142 176.313 184.692C181.375 201.122 191.025 213.792 205.238 222.466L205.422 222.545C205.5 222.594 205.587 222.625 205.678 222.637C205.769 222.649 205.862 222.641 205.949 222.614C206.037 222.586 206.118 222.54 206.185 222.478C206.253 222.417 206.307 222.341 206.342 222.256L206.855 221.287C206.978 221.105 207.028 220.884 206.994 220.668C206.96 220.451 206.844 220.256 206.671 220.121C193.283 212.079 183.397 199.339 178.955 184.404C183.991 183.893 189.053 183.604 194.128 183.473C193.286 184.967 188.987 193.208 191.249 200.651C193.733 208.879 203.305 212.993 203.305 212.993C203.305 212.993 208.84 203.821 206.342 195.541C204.199 188.452 196.81 184.43 194.798 183.447C205.724 183.185 216.677 183.63 227.366 184.325C227.478 184.334 227.591 184.32 227.698 184.283C227.804 184.246 227.902 184.188 227.985 184.111C228.068 184.035 228.134 183.942 228.179 183.839C228.224 183.736 228.247 183.625 228.247 183.513Z" fill="#B4E4AC"/>
<path d="M144.008 253.689L145.021 253.375C145.233 253.328 145.419 253.2 145.539 253.019C145.659 252.839 145.704 252.619 145.665 252.405C139.643 231.441 124.418 212.797 107.01 201.109C108.746 201.28 116.779 201.804 121.749 197.008C127.337 191.597 126.903 181.482 126.903 181.482C126.903 181.482 117.41 180.172 111.822 185.544C106.655 190.536 106.629 199.524 106.655 200.873C105.59 200.166 104.538 199.485 103.46 198.829L102.737 198.423C102.651 198.364 102.554 198.322 102.452 198.301C102.349 198.279 102.244 198.278 102.141 198.298C102.038 198.317 101.94 198.357 101.853 198.414C101.766 198.472 101.691 198.546 101.633 198.633L100.949 199.498C100.825 199.681 100.775 199.905 100.809 200.123C100.843 200.342 100.959 200.54 101.133 200.677C109.116 205.267 116.348 211.046 122.577 217.815C115.111 229.597 111.02 243.19 110.744 257.122C110.73 257.204 110.73 257.289 110.744 257.371C110.744 257.46 110.762 257.548 110.797 257.63C110.831 257.712 110.882 257.786 110.945 257.848C111.009 257.911 111.084 257.959 111.167 257.992C111.25 258.025 111.339 258.041 111.428 258.039H112.546C112.761 258.047 112.971 257.97 113.13 257.826C113.29 257.681 113.387 257.481 113.4 257.266C113.649 244.048 117.464 231.141 124.444 219.898C133.008 229.453 139.371 240.758 143.088 253.021C143.206 253.427 143.561 253.833 144.008 253.689Z" fill="#B4E4AC"/>
<path d="M0.0131758 122.285C0.0920629 122.652 0.15778 123.019 0.236667 123.386C0.272225 123.595 0.388425 123.782 0.560387 123.906C0.732349 124.031 0.94646 124.084 1.15703 124.054C12.4404 121.572 23.9575 120.298 35.5124 120.254C30.2079 136.152 19.2635 149.575 4.73325 158.002C4.5426 158.108 4.39807 158.28 4.32763 158.486C4.2572 158.692 4.26585 158.916 4.35195 159.116L4.85157 160.099C4.89144 160.196 4.95087 160.284 5.02619 160.358C5.10152 160.432 5.19117 160.49 5.28965 160.528C5.38813 160.566 5.49334 160.583 5.59888 160.579C5.70442 160.575 5.80807 160.55 5.90342 160.505C21.3278 151.575 32.8734 137.254 38.2997 120.32C58.1054 120.475 77.6657 124.704 95.7558 132.741C95.8559 132.776 95.9619 132.791 96.0679 132.785C96.1738 132.779 96.2775 132.752 96.3728 132.705C96.4682 132.659 96.5535 132.594 96.6236 132.515C96.6937 132.435 96.7473 132.343 96.7813 132.243C96.8733 132.007 96.9785 131.758 97.0837 131.522C103.736 147.371 107.155 164.381 107.142 181.56C107.123 181.775 107.187 181.988 107.322 182.157C107.457 182.325 107.651 182.435 107.865 182.465H109.035C109.142 182.47 109.249 182.454 109.35 182.418C109.451 182.382 109.544 182.326 109.623 182.255C109.703 182.183 109.767 182.096 109.813 181.999C109.859 181.903 109.885 181.798 109.89 181.691C110.258 142.253 90.9963 105.134 65.3448 77.632C65.2947 77.5764 65.2371 77.5279 65.1739 77.4878C65.1147 77.4209 65.0418 77.3673 64.9602 77.3306C64.8786 77.2939 64.7901 77.2749 64.7005 77.2749C64.611 77.2749 64.5225 77.2939 64.4409 77.3306C64.3593 77.3673 64.2865 77.4209 64.2272 77.4878L63.3989 78.3526C63.2386 78.5044 63.1394 78.7093 63.12 78.9289C63.1006 79.1485 63.1624 79.3676 63.2938 79.5449C77.2054 94.3009 88.4267 111.363 96.4526 129.963C81.864 123.55 66.3183 119.567 50.4352 118.171C33.795 116.676 17.0234 117.714 0.696849 121.25C0.58127 121.268 0.470782 121.31 0.372446 121.374C0.274111 121.437 0.190105 121.52 0.125764 121.617C0.0614232 121.715 0.0181573 121.824 -0.00122871 121.939C-0.0206147 122.054 -0.0156952 122.172 0.0131758 122.285Z" fill="#B4E4AC"/>
<path d="M78.4794 251.501L79.4392 251.973C79.5393 252.008 79.6454 252.023 79.7514 252.017C79.8573 252.011 79.9609 251.984 80.0563 251.937C80.1517 251.891 80.2369 251.826 80.307 251.747C80.3772 251.668 80.4308 251.575 80.4648 251.475C87.2399 235.343 89.7871 217.759 87.867 200.376C87.8605 200.2 87.7878 200.034 87.6634 199.91C87.539 199.786 87.3722 199.714 87.1965 199.707C87.1137 199.694 87.0294 199.694 86.9466 199.707L85.8948 199.851C85.6841 199.902 85.5004 200.03 85.3808 200.21C85.2612 200.39 85.2146 200.608 85.2506 200.821C87.1 217.71 84.607 234.789 78.0061 250.453C77.9454 250.655 77.9598 250.873 78.0467 251.065C78.1336 251.258 78.2873 251.412 78.4794 251.501Z" fill="#B4E4AC"/>
<path d="M12.7534 74.4611L12.6219 75.7713C12.6027 75.9872 12.6668 76.2022 12.8012 76.3726C12.9356 76.543 13.13 76.656 13.345 76.6885C51.4738 79.1649 92.758 78.6277 124.602 53.1041C124.764 52.9561 124.865 52.753 124.884 52.5348C124.904 52.3166 124.841 52.0991 124.707 51.9249L123.997 50.9553C123.91 50.8136 123.772 50.7095 123.612 50.6635C123.451 50.6174 123.279 50.6327 123.13 50.7064C123.039 50.7414 122.955 50.79 122.88 50.8505C105.617 64.6474 85.5004 70.9234 64.648 73.3736C59.586 56.9431 49.9224 44.2731 35.7227 35.6124L35.5386 35.5206C35.461 35.4716 35.3737 35.44 35.2826 35.4281C35.1915 35.4162 35.0989 35.4242 35.0112 35.4517C34.9236 35.4791 34.843 35.5253 34.7751 35.587C34.7073 35.6487 34.6537 35.7244 34.6183 35.8089L34.1055 36.7785C33.9872 36.9638 33.9407 37.1856 33.9746 37.4026C34.0084 37.6196 34.1204 37.817 34.2896 37.9577C47.6862 45.9893 57.5753 58.7334 62.0052 73.6749C45.9254 75.3127 29.4774 74.7755 13.5949 73.7405C13.3892 73.7325 13.1882 73.8024 13.0321 73.9361C12.876 74.0697 12.7765 74.2573 12.7534 74.4611Z" fill="#B4E4AC"/>
<path d="M225.998 61.8041C225.961 61.7348 225.917 61.669 225.867 61.6076C225.785 61.4945 225.671 61.4081 225.54 61.3592C225.409 61.3102 225.267 61.3009 225.131 61.3324C213.145 63.9391 200.955 65.5084 188.698 66.0231C173.052 66.6127 156.196 65.6431 141.852 58.3844C133.018 53.7592 125.07 47.621 118.37 40.2506C125.836 28.468 129.928 14.8757 130.203 0.943343C130.21 0.860513 130.21 0.777223 130.203 0.694394C130.201 0.6055 130.182 0.51783 130.146 0.436527C130.11 0.355225 130.058 0.281897 129.993 0.220886C129.928 0.159875 129.851 0.112407 129.768 0.0812168C129.684 0.0500264 129.595 0.0357697 129.506 0.0392721H128.454C128.347 0.0321633 128.24 0.0461964 128.138 0.080577C128.037 0.114958 127.943 0.168991 127.862 0.239599C127.782 0.310208 127.716 0.395997 127.668 0.492027C127.621 0.588058 127.593 0.692439 127.587 0.799195C127.331 14.0277 123.497 26.9421 116.49 38.1804C107.978 28.5874 101.645 17.2754 97.9252 5.01818C97.8068 4.62511 97.4387 4.20582 96.9917 4.34994L95.9793 4.66443C95.7683 4.71742 95.5856 4.84854 95.4684 5.03114C95.3511 5.21373 95.3081 5.43404 95.3482 5.64711C99.7527 21.0163 109.679 35.4944 120.724 46.2646C130.137 55.4363 141.09 62.4723 153.593 65.7217C162.729 67.9891 172.118 69.0898 181.532 68.9973C185.976 79.4793 196.126 83.6065 206.053 86.3581C207.368 86.7249 208.17 84.5761 206.802 84.1962C197.757 81.6936 188.395 78.2346 183.952 68.9711C186.384 68.9711 188.816 68.8663 191.235 68.7484C202.912 68.118 214.519 66.5582 225.946 64.0839C226.068 64.0546 226.182 63.9987 226.281 63.9202C226.379 63.8418 226.458 63.7427 226.514 63.63C226.569 63.5174 226.598 63.394 226.6 63.2686C226.602 63.1432 226.576 63.0189 226.524 62.9047C226.327 62.4985 226.156 62.1448 225.998 61.8041Z" fill="#B4E4AC"/>
</g>
<defs>
<clipPath id="clip0_301_1021">
<rect width="241" height="258" fill="white"/>
</clipPath>
</defs>
</svg>
