<svg class="current" width="241" height="258" viewBox="0 0 241 258" fill="none" xmlns="http://www.w3.org/2000/svg">
<g clip-path="url(#clip0_47_104)">
<path d="M221.187 107.079C225.747 98.6687 229.297 89.7405 231.762 80.4829C231.87 80.0518 231.843 79.5974 231.684 79.1825C231.525 78.7676 231.243 78.4129 230.875 78.1673C223.227 73.6952 215.051 70.2108 206.541 67.7961C207.108 62.8433 207.418 57.8641 207.471 52.8787C207.574 48.5772 207.409 44.2735 206.978 39.9929C206.893 39.1831 206.457 38.1318 205.57 38.0039C196.159 36.6397 186.604 36.6397 177.194 38.0039C174.872 28.485 171.421 19.2833 166.914 10.5985C166.709 10.2195 166.384 9.92033 165.992 9.74799C165.599 9.57566 165.161 9.54 164.746 9.64663C156.199 12.3649 148.024 16.1547 140.412 20.927C135.074 13.36 128.783 6.52586 121.697 0.596744C121.336 0.234966 120.847 0.0319824 120.338 0.0319824C119.829 0.0319824 119.34 0.234966 118.979 0.596744C111.751 6.65575 105.344 13.6489 99.9261 21.3959C92.1391 16.5373 83.761 12.717 75.0009 10.0302C74.586 9.92362 74.1477 9.95928 73.7551 10.1316C73.3625 10.3039 73.0378 10.6031 72.8323 10.9821C68.6144 19.2698 65.3632 28.0229 63.1439 37.0662C58.5301 36.4543 53.884 36.1223 49.2308 36.0718C45.2102 35.9629 41.1869 36.1385 37.1907 36.5974C36.7603 36.6093 36.3457 36.7629 36.0101 37.0348C35.6744 37.3067 35.4362 37.6821 35.3318 38.1034C34.0777 48.1364 34.0777 58.2887 35.3318 68.3217C26.2979 70.8483 17.6333 74.5646 9.5617 79.3748C9.19295 79.6228 8.90957 79.9801 8.75066 80.3974C8.59175 80.8148 8.56516 81.2716 8.67453 81.7048C11.1851 90.8109 14.7439 99.589 19.2783 107.86C14.7698 111.678 10.5346 115.813 6.60447 120.234C4.80197 122.252 1.22513 125.235 0.267554 127.963C-0.690024 130.691 2.98539 133.987 4.49217 135.805C9.05419 141.303 14.1334 146.341 19.6585 150.85C16.3954 156.941 13.6399 163.294 11.4205 169.845C10.7023 171.948 8.43514 176.608 9.42088 178.966C10.4066 181.325 14.6735 182.419 16.4619 183.228C22.2081 186.02 28.1647 188.348 34.2757 190.19C33.6292 195.502 33.3094 200.849 33.3181 206.201C33.3181 209.639 32.7407 215.18 34.1208 218.462C35.1628 220.934 38.9509 220.493 41.1618 220.65C48.6481 221.184 56.1689 220.951 63.6086 219.954C65.9307 229.598 69.4112 238.921 73.973 247.714C74.1794 248.095 74.5071 248.395 74.9031 248.565C75.2991 248.735 75.7403 248.766 76.1557 248.652C84.7444 245.924 92.9544 242.104 100.588 237.286C105.889 244.762 112.122 251.519 119.134 257.389C119.495 257.751 119.984 257.954 120.493 257.954C121.002 257.954 121.491 257.751 121.852 257.389C129.047 251.368 135.421 244.413 140.806 236.704C148.64 241.599 157.071 245.448 165.886 248.155C166.301 248.261 166.74 248.226 167.132 248.053C167.525 247.881 167.85 247.582 168.055 247.203C172.26 238.941 175.506 230.217 177.729 221.204C182.457 221.876 187.221 222.251 191.995 222.326C195.893 222.414 199.793 222.239 203.669 221.8C204.099 221.783 204.513 221.626 204.848 221.352C205.183 221.078 205.421 220.702 205.527 220.28C206.781 210.247 206.781 200.095 205.527 190.062C214.499 187.548 223.102 183.851 231.114 179.066C231.483 178.818 231.767 178.46 231.925 178.043C232.084 177.626 232.111 177.169 232.002 176.736C229.492 167.647 225.943 158.884 221.426 150.623C228.622 144.799 235.032 138.05 240.493 130.549C240.834 130.141 241.02 129.625 241.02 129.092C241.02 128.559 240.834 128.044 240.493 127.636C234.967 119.969 228.477 113.059 221.187 107.079ZM205.978 71.9019C213.512 74.0792 220.774 77.1204 227.622 80.966C225.299 89.1882 222.093 97.1297 218.06 104.649C212.456 100.401 206.325 96.91 199.824 94.2638C202.811 87.1045 204.879 79.5898 205.978 71.9019ZM135.666 109.622L125.809 120.035L124.119 121.826C123.539 121.481 122.913 121.223 122.26 121.058L122.387 105.203C122.497 104.945 122.568 104.672 122.598 104.393C124.006 91.1951 127.217 77.7979 134.371 66.7874C138.622 60.3262 144.3 54.9477 150.959 51.0744C152.739 57.6874 153.283 64.5766 152.565 71.3905C150.959 85.6686 143.989 98.5969 135.666 109.622ZM137.919 113.173C149.861 102.703 164.028 94.4627 179.785 94.1928C184.73 94.2921 189.634 95.1103 194.346 96.6222C190.913 103.605 185.954 109.712 179.842 114.48C170.379 121.584 158.972 125.164 147.566 126.741H127.682C127.48 126.04 127.191 125.367 126.823 124.738L137.539 113.443C137.678 113.365 137.81 113.274 137.934 113.173H137.919ZM124.218 136.018L135.483 148.038C144.101 159.403 151.424 172.914 152.734 187.746C153.26 194.615 152.52 201.522 150.551 208.119C144.648 204.736 139.499 200.16 135.427 194.679C127.288 183.626 123.683 169.504 122.274 155.723C122.233 155.405 122.122 155.099 121.95 154.828L122.077 139.101C122.077 138.362 122.077 137.681 122.077 136.885C122.838 136.718 123.566 136.425 124.232 136.018H124.218ZM137.976 144.955L128.4 134.669L126.992 133.077C127.367 132.377 127.656 131.633 127.851 130.861H141.933C142.106 131.058 142.327 131.207 142.573 131.294C142.819 131.381 143.084 131.403 143.341 131.358C155.691 132.779 168.238 136.288 178.546 143.96C184.733 148.678 189.767 154.762 193.262 161.747C187.486 163.553 181.414 164.195 175.392 163.637C161.451 162.216 148.749 154.303 138.103 145.011L137.976 144.955ZM175.997 137.453C171.284 134.655 166.253 132.442 161.014 130.861H193.98C194.283 131.491 194.75 132.027 195.33 132.412C195.91 132.797 196.582 133.017 197.275 133.049C201.827 140.149 208.073 145.982 215.441 150.012C212.949 151.873 210.386 153.592 207.795 155.155C204.305 157.273 200.633 159.071 196.825 160.525C192.198 151.002 184.985 143.001 176.025 137.453H175.997ZM196.656 124.667C196.078 124.794 195.538 125.051 195.074 125.421C194.61 125.79 194.236 126.261 193.98 126.798H164.915C176.87 122.536 187.629 115.333 194.966 103.655C196.114 101.817 197.167 99.9197 198.12 97.9718C203.941 100.276 209.452 103.307 214.526 106.993C207.216 111.273 201.083 117.329 196.684 124.61L196.656 124.667ZM191.558 41.371C194.694 41.371 197.824 41.4751 200.951 41.6835C201.739 41.6835 202.514 41.8256 203.288 41.8966C204.094 50.8393 203.858 59.8466 202.584 68.7338C202.513 68.9686 202.475 69.2126 202.472 69.4583C201.765 74.258 200.739 79.0044 199.402 83.6654C198.492 86.8126 197.382 89.8973 196.078 92.9C190.816 91.1273 185.318 90.1693 179.771 90.0586C169.999 90.3803 160.459 93.1537 152.016 98.1282L169.238 79.9857L173.674 75.3116C174.35 75.5328 175.074 75.5553 175.762 75.3767C176.45 75.1981 177.074 74.8257 177.56 74.3029C178.298 73.476 178.706 72.4032 178.706 71.291C178.706 70.1788 178.298 69.106 177.56 68.2791C177.198 67.8922 176.762 67.5839 176.278 67.3732C175.793 67.1624 175.271 67.0537 174.744 67.0537C174.217 67.0537 173.695 67.1624 173.21 67.3732C172.726 67.5839 172.29 67.8922 171.928 68.2791C171.431 68.8283 171.08 69.4954 170.907 70.2183C170.735 70.9412 170.747 71.6963 170.942 72.4134C163.676 80.0757 156.404 87.738 149.129 95.4003C152.351 89.057 154.611 82.2612 155.832 75.2405C157.217 66.5616 156.698 57.6819 154.311 49.2274C157.243 47.7657 160.279 46.5263 163.394 45.5194C172.527 42.6882 182.032 41.2704 191.586 41.3142L191.558 41.371ZM164.281 14.1219C168.187 21.9432 171.224 30.1765 173.336 38.6716C166.335 39.9614 159.547 42.2329 153.17 45.42C152.356 42.9666 151.416 40.5577 150.354 38.2028C148.158 33.3723 145.592 28.7219 142.679 24.2941C149.477 20.0604 156.735 16.6282 164.309 14.065L164.281 14.1219ZM144.989 36.0859C146.859 39.6844 148.441 43.428 149.72 47.2811C140.604 52.4874 133.146 60.2042 128.217 69.5294C125.809 74.1508 123.884 79.0119 122.471 84.0347C122.528 75.1032 122.594 66.1765 122.669 57.2545C122.669 55.0239 122.669 52.8076 122.669 50.5771C123.3 50.2029 123.824 49.6696 124.189 49.0296C124.555 48.3895 124.749 47.6645 124.753 46.9259C124.751 46.7015 124.727 46.4779 124.682 46.2582C131.17 41.3323 136.415 34.9315 139.99 27.5759C141.862 30.2895 143.524 33.1451 145.017 36.0291L144.989 36.0859ZM120.303 4.68838C126.795 10.3261 132.575 16.7486 137.511 23.8111C134.179 31.4122 128.966 38.0216 122.373 43.0048C121.895 42.7706 121.37 42.6491 120.838 42.6497C119.89 42.6475 118.977 43.0137 118.289 43.6725C111.496 38.7847 106.084 32.1934 102.588 24.5498C107.653 17.188 113.614 10.4964 120.331 4.63158L120.303 4.68838ZM100.095 28.3289C104.008 36.073 109.797 42.6946 116.923 47.5795C117.016 48.1844 117.241 48.7609 117.582 49.2672C117.923 49.7734 118.371 50.1967 118.895 50.5061C118.82 61.3414 118.74 72.1766 118.655 83.0118C114.698 69.4867 107.714 57.2686 96.124 49.1422C94.5468 48.034 92.9274 47.0254 91.2798 46.0735C92.6226 42.274 94.2515 38.5836 96.1522 35.0346C97.4195 32.7331 98.7292 30.531 100.123 28.272L100.095 28.3289ZM63.6649 120.263C68.0038 122.973 72.6396 125.166 77.4794 126.798H47.6959C47.3833 126.147 46.8979 125.597 46.2938 125.208C45.6896 124.82 44.9904 124.608 44.2739 124.596C44.0329 124.598 43.7926 124.622 43.5557 124.667C38.887 117.755 32.5986 112.114 25.2491 108.244C27.5163 106.553 29.8258 104.962 32.1775 103.498C35.8637 101.187 39.7583 99.2316 43.8092 97.6593C48.2728 106.865 55.1493 114.663 63.6931 120.206L63.6649 120.263ZM47.4283 96.3949C52.3407 94.8372 57.4753 94.1122 62.6228 94.2496C76.8739 94.7184 90.125 102.234 101.208 111.369L112.023 122.976C112.642 123.658 113.276 124.397 113.91 125.008C113.593 125.573 113.342 126.174 113.163 126.798H95.7579C83.5769 125.178 71.2551 121.47 61.2428 113.614C55.4527 108.939 50.7472 103.043 47.4565 96.3381L47.4283 96.3949ZM44.1331 133.049C44.8683 133.065 45.5925 132.867 46.2193 132.479C46.846 132.091 47.3489 131.53 47.6677 130.861H77.592C64.6506 135.123 53.0048 142.824 45.2738 155.581C44.3866 157.002 43.5698 158.565 42.7953 160.099C39.8476 158.939 36.9862 157.567 34.2334 155.993C31.4963 154.43 28.845 152.718 26.2912 150.865C33.3736 146.4 39.2552 140.242 43.4149 132.935C43.6492 133.001 43.8902 133.039 44.1331 133.049ZM64.4253 141.346C74.1419 135.109 85.4076 132.211 96.5887 131.003L97.0956 130.89H113.135C113.284 131.538 113.506 132.168 113.797 132.765C108.962 137.851 104.127 142.942 99.2924 148.038C90.0265 155.482 79.4368 161.534 67.8895 163.338C60.7425 164.367 53.4567 163.721 46.5975 161.449C50.6992 153.293 56.8455 146.362 64.4253 141.346ZM104.883 148.449C105.152 148.11 105.322 147.702 105.376 147.27L114.698 137.453L116.346 135.72C116.929 136.134 117.57 136.459 118.247 136.686L118.078 158.096C115.149 177.631 107.418 196.455 90.6461 206.642L89.8434 207.11C88.1018 200.826 87.4772 194.279 87.9986 187.775C89.266 173.17 96.4197 159.815 104.883 148.449ZM116.642 121.968L104.362 108.783C104.32 108.705 104.273 108.629 104.221 108.556C95.7719 97.091 88.7309 83.438 87.886 68.5917C87.5693 62.3138 88.3024 56.027 90.0546 49.9947C96.401 53.6255 101.877 58.6215 106.094 64.6279C113.712 75.5389 117.134 89.135 118.5 102.518C118.5 107.846 118.43 113.173 118.388 118.501C118.388 119.424 118.388 120.334 118.388 121.257C117.776 121.438 117.19 121.696 116.642 122.024V121.968ZM75.4516 14.3918C83.2259 16.949 90.6749 20.4204 97.6449 24.7345C95.074 28.6871 92.7733 32.812 90.7587 37.0804C89.6791 39.4104 88.7074 41.7782 87.8437 44.184C81.2261 41.0242 74.2007 38.8194 66.9742 37.6345C68.9907 29.6287 71.8319 21.8578 75.4516 14.4486V14.3918ZM38.7115 42.9337L38.9228 40.4475C51.9196 39.1129 65.0497 40.4714 77.5075 44.4397C80.6176 45.448 83.6528 46.6777 86.5904 48.1193C84.227 55.9333 83.4699 64.1518 84.3655 72.2713C85.3847 80.0676 87.6934 87.6361 91.1953 94.6616L74.3672 76.5902L69.9596 71.8593C70.1634 71.1428 70.1825 70.3856 70.0149 69.6596C69.8473 68.9336 69.4986 68.2628 69.002 67.7108C68.64 67.3238 68.2035 67.0156 67.7192 66.8048C67.2349 66.5941 66.713 66.4854 66.1856 66.4854C65.6582 66.4854 65.1363 66.5941 64.652 66.8048C64.1677 67.0156 63.7312 67.3238 63.3692 67.7108C62.6309 68.54 62.2225 69.6152 62.2225 70.7298C62.2225 71.8444 62.6309 72.9196 63.3692 73.7488C63.8521 74.2724 64.4719 74.6477 65.1571 74.8312C65.8423 75.0147 66.565 74.999 67.2417 74.786L88.9985 98.1565C75.7191 90.8967 60.9893 87.7001 45.9356 92.4737C45.8581 92.5084 45.7781 92.5369 45.6962 92.5589C44.2968 89.3329 43.1296 86.0093 42.2039 82.614C39.6273 72.8309 38.3534 62.7453 38.4158 52.6229C38.4064 49.4122 38.505 46.2014 38.7115 42.9906V42.9337ZM12.7724 82.0883C20.0478 77.9051 27.8037 74.6369 35.8669 72.3566C37.0453 79.743 39.1265 86.9535 42.063 93.8234C34.9858 96.6825 28.3476 100.543 22.3482 105.288C18.3539 97.9374 15.144 90.1796 12.7724 82.1452V82.0883ZM12.3359 138.604C10.1074 136.344 7.99247 133.974 5.99894 131.501C5.44558 130.679 4.84366 129.891 4.19644 129.142C9.29953 122.391 15.1908 116.285 21.7427 110.957C29.4015 114.542 35.9347 120.185 40.6267 127.267C40.4355 127.765 40.3353 128.295 40.331 128.83C40.3212 129.312 40.3926 129.792 40.5422 130.25C36.3902 137.792 30.2742 144.046 22.8551 148.336C19.1413 145.348 15.6272 142.116 12.3359 138.661V138.604ZM13.0681 176.963C13.6342 174.531 14.4117 172.154 15.3917 169.86C17.4027 164.15 19.8412 158.602 22.6862 153.266C28.3456 157.553 34.5263 161.091 41.0773 163.793C38.0207 170.927 35.8862 178.429 34.7263 186.112C27.1795 183.921 19.9112 180.85 13.0681 176.963ZM46.7242 216.743C44.4711 216.743 42.232 216.615 39.993 216.444C39.486 216.444 38.4017 216.103 37.5005 216.004C37.585 214.001 37.1484 211.827 37.0921 209.824C36.8594 202.882 37.2175 195.933 38.1623 189.053V188.769C39.2183 180.898 41.3018 173.202 44.3584 165.882C44.4711 165.612 44.5978 165.356 44.7105 165.1C59.5529 169.916 74.0856 167.345 87.3509 160.454C81.9528 166.137 76.5499 171.82 71.1424 177.503C69.6638 179.066 68.1993 180.628 66.7207 182.177C66.0415 181.955 65.3134 181.933 64.6224 182.114C63.9313 182.295 63.3059 182.672 62.82 183.2C62.1007 184.001 61.6919 185.036 61.6686 186.117C61.6453 187.197 62.0091 188.25 62.6932 189.082C62.7185 189.554 62.9225 189.999 63.2631 190.324C63.6037 190.649 64.055 190.83 64.5239 190.829C64.9256 190.838 65.3182 190.707 65.6364 190.46C66.1648 190.469 66.6892 190.365 67.1747 190.154C67.6602 189.943 68.0959 189.631 68.4528 189.238C68.9496 188.692 69.3007 188.027 69.4731 187.306C69.6455 186.586 69.6336 185.833 69.4385 185.118L92.2374 161.236C88.4038 168.418 85.8085 176.206 84.5627 184.265C83.4445 192.557 84.0634 200.993 86.3792 209.028C74.1138 215.123 60.0881 216.984 46.7242 216.785V216.743ZM76.4232 244.205C72.4685 236.288 69.4076 227.949 67.2981 219.343C73.8745 218.198 80.2841 216.232 86.3792 213.489L87.5199 212.935C88.3773 215.473 89.3692 217.963 90.4912 220.394C92.6708 225.121 95.2084 229.671 98.0814 234.004C91.2767 238.248 84.0092 241.685 76.4232 244.248V244.205ZM95.9268 222.454C93.9937 218.804 92.3549 215.003 91.0263 211.088C104.475 203.289 113.065 190.502 117.951 175.571C117.885 183.83 117.82 192.089 117.754 200.348V207.011C117.116 207.377 116.587 207.909 116.22 208.551C115.854 209.193 115.664 209.921 115.67 210.662C115.662 210.79 115.662 210.918 115.67 211.046C109.162 216.135 103.948 222.714 100.461 230.239C98.8277 227.711 97.3069 225.168 95.9268 222.497V222.454ZM120.331 253.326C113.776 247.622 107.944 241.122 102.968 233.976C106.157 226.287 111.272 219.565 117.81 214.47C118.357 214.769 118.963 214.94 119.585 214.967C120.163 214.962 120.732 214.821 121.246 214.555C128.405 219.316 134.152 225.944 137.877 233.734C132.867 240.995 126.972 247.591 120.331 253.368V253.326ZM140.356 229.998C136.367 222.411 130.557 215.954 123.457 211.216C123.464 211.088 123.464 210.96 123.457 210.833C123.499 210.079 123.332 209.328 122.977 208.664C122.622 207.999 122.091 207.447 121.443 207.068L121.697 174.093C125.64 188.3 132.822 201.087 144.975 209.483C146.383 210.435 147.791 211.287 149.199 212.111C147.937 215.665 146.422 219.121 144.665 222.454C143.36 225.04 141.923 227.569 140.356 230.041V229.998ZM165.239 243.779C157.407 241.231 149.905 237.749 142.89 233.408C145.601 229.253 148.006 224.903 150.086 220.394C151.025 218.301 151.894 216.17 152.692 214.001C159.344 217.212 166.413 219.46 173.688 220.678C171.681 228.656 168.849 236.398 165.239 243.779ZM202.035 215.365C202.035 216.203 201.908 217.027 201.824 217.865C193.438 218.719 184.977 218.456 176.659 217.084C176.469 217.016 176.269 216.982 176.068 216.984C171.898 216.282 167.781 215.29 163.746 214.015C160.394 212.962 157.126 211.652 153.973 210.094C156.527 201.692 157.234 192.829 156.043 184.123C154.919 176.781 152.647 169.664 149.312 163.04L166.055 181.012L170.449 185.743C170.243 186.46 170.224 187.219 170.394 187.946C170.564 188.673 170.918 189.343 171.421 189.891C171.78 190.282 172.216 190.594 172.701 190.807C173.185 191.02 173.708 191.13 174.237 191.13C174.766 191.13 175.289 191.02 175.773 190.807C176.258 190.594 176.694 190.282 177.053 189.891C177.791 189.065 178.199 187.992 178.199 186.88C178.199 185.767 177.791 184.695 177.053 183.868C176.575 183.338 175.955 182.959 175.268 182.775C174.582 182.591 173.857 182.611 173.181 182.831L151.861 159.929C158.05 163.555 164.824 166.056 171.871 167.316C179.609 168.548 187.525 167.925 194.98 165.498C196.355 168.641 197.508 171.879 198.43 175.187C201.081 185.002 202.407 195.133 202.373 205.306C202.387 208.616 202.303 211.983 202.077 215.322L202.035 215.365ZM227.791 176.267C220.56 180.409 212.864 183.662 204.865 185.956C203.68 178.48 201.56 171.186 198.557 164.248C201.043 163.299 203.469 162.198 205.823 160.952C210.161 158.655 214.314 156.018 218.243 153.067C222.246 160.421 225.46 168.184 227.833 176.224L227.791 176.267ZM218.962 147.327C211.547 143.664 205.229 138.079 200.655 131.145C201.086 130.456 201.32 129.659 201.331 128.844C201.336 127.836 200.986 126.86 200.345 126.088C204.667 119.244 210.66 113.637 217.751 109.806C217.91 109.888 218.081 109.946 218.257 109.977C225.12 115.552 231.27 121.966 236.564 129.071C231.465 135.839 225.568 141.955 219.004 147.285L218.962 147.327Z" fill="#B4E4AC"/>
</g>
<defs>
<clipPath id="clip0_47_104">
<rect width="241" height="258" fill="white"/>
</clipPath>
</defs>
</svg>
