<svg width="386" height="326" viewBox="0 0 386 326" fill="none" xmlns="http://www.w3.org/2000/svg">
<g clip-path="url(#clip0_107_440)">
<path d="M193.01 15.2893C226.792 34.6215 252.672 76.3438 263.077 125.126C266.731 121.391 270.507 117.82 274.345 114.475C261.62 63.7635 232.949 20.9535 196.109 1.60078L193.01 -0.0410156L189.891 1.60078C152.948 20.9125 124.339 63.7635 111.655 114.475C115.493 117.82 119.269 121.391 122.923 125.126C133.307 76.3848 159.167 34.6215 193.01 15.2893Z" fill="white"/>
<path d="M229.953 106.245C230.568 108.01 231.184 109.775 231.718 111.56C231.984 112.361 232.21 113.161 232.477 113.982C233.975 118.887 235.33 123.935 236.438 129.087C236.705 130.359 237.013 131.652 237.259 132.924C237.444 133.889 237.628 134.853 237.833 135.818L238.511 139.922C238.798 141.421 239.024 142.919 239.209 144.417C239.599 147.187 239.947 149.917 240.214 152.626C243.867 147.399 247.712 142.371 251.748 137.542C244.216 91.8792 222.338 51.5115 193.01 31.071C163.662 51.5935 141.702 91.8792 134.252 137.542C138.356 142.358 142.201 147.399 145.786 152.667C146.594 144.563 147.903 136.516 149.706 128.573C149.952 127.486 150.178 126.521 150.445 125.372C150.711 124.223 151.06 122.848 151.409 121.575C153.219 114.648 155.425 107.83 158.018 101.155C158.551 99.8214 159.085 98.4669 159.639 97.0509C160.193 95.6348 160.747 94.4445 161.322 93.1311C162.553 90.4016 163.826 87.7542 165.16 85.1478C165.755 84.0191 166.33 82.9109 166.945 81.8437C167.561 80.7765 168.238 79.4426 168.998 78.2523C169.757 77.062 170.373 75.9127 171.05 74.7635C171.727 73.6142 172.466 72.4855 173.205 71.3773C178.757 62.8335 185.417 55.0631 193.01 48.2689C203.929 58.2001 212.967 70.0186 219.691 83.1572C220.779 85.2094 221.743 87.2617 222.81 89.3139C224.863 93.7673 226.915 98.3849 228.701 103.146L229.953 106.245Z" fill="white"/>
<path d="M158.367 172.451V173.128C172.741 199.153 180.877 228.161 182.133 257.865C185.364 262.786 189.002 267.427 193.01 271.738C196.976 267.431 200.599 262.82 203.847 257.947C205.121 228.174 213.291 199.103 227.715 173.025V172.41C227.715 131.693 214.375 92.0229 193.01 67.2933C171.625 92.0639 158.367 131.734 158.367 172.451ZM193.092 249.985C179.588 229.462 171.83 201.51 171.83 172.451C171.83 142.467 179.752 112.504 193.092 90.3606C206.433 112.525 214.334 142.488 214.334 172.451C214.252 201.51 206.494 229.38 193.01 249.985H193.092Z" fill="white"/>
<path d="M185.191 172.451C185.137 188.451 187.78 204.346 193.01 219.468C198.223 204.342 200.86 188.449 200.809 172.451C200.825 155.61 198.194 138.871 193.01 122.848C187.81 138.868 185.171 155.608 185.191 172.451Z" fill="white"/>
<path d="M154.262 325.979C156.38 322.369 158.279 318.634 159.947 314.795C156.709 311.765 153.627 308.573 150.711 305.231C150.363 306.196 149.993 307.14 149.562 308.104C149.131 309.069 148.823 309.91 148.413 310.793C148.002 311.675 147.571 312.681 147.099 313.604C106.052 310.875 63.9792 281.076 37.9554 236.029C11.2749 189.71 5.11776 134.074 22.3575 97.523C23.6094 97.6461 24.8819 97.7487 26.1133 97.9539C27.3447 98.1592 28.5762 98.2823 29.7666 98.4875C33.7992 99.1683 37.7826 100.114 41.6907 101.32C42.9221 101.669 44.1124 102.058 45.3438 102.489C46.5752 102.92 47.4988 103.208 48.566 103.639C50.0642 104.172 51.6035 104.788 53.1017 105.404L56.837 107.045C57.9453 107.558 59.074 108.051 60.1823 108.626C61.2905 109.2 61.8653 109.447 62.7067 109.898C63.8766 110.473 65.0668 111.129 66.2162 111.786C67.7144 112.586 69.1716 113.428 70.6288 114.31C70.7949 114.391 70.9529 114.487 71.1008 114.598C72.599 115.48 74.0973 116.404 75.5545 117.348C75.9368 117.629 76.3341 117.889 76.7447 118.128C78.3661 119.195 79.9053 120.282 81.4856 121.391C83.0659 122.499 84.9336 123.894 86.6576 125.249C88.7099 126.809 90.7623 128.471 92.8146 130.195C94.0871 131.241 95.3185 132.247 96.5499 133.417C98.2739 134.956 100.018 136.577 101.701 138.199C103.384 139.82 104.554 140.969 105.929 142.426L106.463 142.96C107.058 137.973 107.858 133.006 108.782 128.122C100.501 120.218 91.492 113.113 81.8756 106.902C80.4389 105.978 78.9818 105.096 77.5657 104.213C74.8771 102.592 72.1886 101.053 69.4795 99.6778C68.3712 99.1032 67.2629 98.5286 66.1341 97.9745C56.7691 93.2958 46.8639 89.7875 36.6419 87.5285C35.041 87.1796 33.4197 86.8718 31.7984 86.605L29.4997 86.2151C28.7199 86.2151 27.9605 85.9893 27.1806 85.9072C26.4007 85.8252 25.1282 85.6404 24.2252 85.5789C22.768 85.4147 21.3109 85.3326 19.8537 85.271C18.3965 85.2095 16.6931 85.1479 15.1128 85.1479C-8.18139 125.085 -3.35837 189.053 27.4269 242.186C57.2885 293.923 106.771 326.493 154.262 326.062" fill="white"/>
<path d="M164.934 300.963C165.365 299.588 165.755 298.151 166.083 296.735C166.412 295.319 166.699 294.231 166.987 293C167.274 291.768 167.561 290.27 167.828 288.895C168.095 287.52 168.321 286.166 168.546 284.791C168.854 282.615 169.121 280.42 169.367 278.142C169.511 276.951 169.634 275.761 169.696 274.571C169.757 273.38 169.86 272.026 169.942 270.774C170.045 268.578 170.085 266.341 170.127 264.084V263.386C170.127 261.58 170.085 259.774 170.003 257.968C170.003 256.347 170.003 254.766 169.778 253.166C169.291 246.075 168.359 239.022 166.987 232.048C166.74 230.981 166.555 229.996 166.33 228.867C164.752 221.65 162.737 214.537 160.296 207.565C159.639 205.677 158.941 203.809 158.243 201.921C156.909 198.412 155.452 194.964 153.872 191.454C153.359 190.305 152.825 189.197 152.292 188.068C150.055 183.43 147.633 178.813 145.026 174.277C144.971 174.193 144.923 174.103 144.883 174.01C142.687 170.193 140.367 166.52 137.946 162.928C137.186 161.738 136.386 160.548 135.524 159.357C134.457 157.777 133.348 156.238 132.179 154.699L131.152 153.324C130.496 152.441 129.839 151.6 129.1 150.758C126.268 147.064 123.333 143.514 120.275 140.148C119.454 145.669 118.838 151.251 118.49 156.895C120.85 159.87 123.107 162.928 125.303 166.048C126.371 167.505 127.356 169.003 128.382 170.542C129.408 172.081 130.434 173.702 131.419 175.324C132.404 176.945 133.472 178.648 134.457 180.352C136.037 183.04 137.494 185.77 138.869 188.561C139.485 189.751 140.101 190.9 140.634 192.091C143.015 197.016 145.17 201.941 147.058 206.928C147.53 208.119 147.982 209.35 148.413 210.54C148.844 211.731 149.069 212.428 149.377 213.352C150.621 218.901 152.156 224.382 153.975 229.77C154.053 229.908 154.095 230.063 154.098 230.221C154.098 230.221 154.098 230.221 154.098 230.345C154.406 231.761 154.713 233.156 154.98 234.449C155.247 235.742 155.514 237.261 155.74 238.554C156.355 242.063 156.827 245.552 157.176 249.02C157.176 250.251 157.402 251.503 157.484 252.735C157.504 252.926 157.504 253.118 157.484 253.309C157.484 254.356 157.628 255.362 157.669 256.429C157.71 257.496 157.792 258.317 157.792 259.24C157.792 262.77 157.792 266.28 157.792 269.727C157.792 270.959 157.628 272.19 157.566 273.38C157.361 275.802 157.135 278.224 156.786 280.604C156.602 282 156.355 283.334 156.13 284.709C155.904 286.084 155.555 287.931 155.206 289.552C156.827 291.604 158.367 293.349 159.988 295.196C161.63 297.351 163.251 299.157 164.934 300.963Z" fill="white"/>
<path d="M30.0333 110.904C18.7659 144.047 25.7028 190.551 48.5044 229.934C70.3824 267.798 105.375 294.683 139.547 300.449C140.347 298.397 141.045 296.099 141.702 293.862C138.337 289.32 135.22 284.599 132.363 279.722C132.199 280.789 132.015 281.774 131.83 282.862C131.645 283.949 131.399 284.914 131.173 285.981C103.713 277.526 76.8063 254.582 59.0535 223.818C40.5824 191.947 33.1324 154.863 38.7148 125.803C40.1719 126.295 41.588 126.829 43.0452 127.445L43.9482 127.794C45.1386 128.286 46.2878 128.799 47.4782 129.333C49.2022 130.133 50.9057 130.975 52.5887 131.878C53.779 132.493 54.9283 133.129 56.1186 133.827C56.4123 133.96 56.6939 134.118 56.9602 134.299C58.2737 135.059 59.5872 135.859 60.9212 136.68C62.2552 137.501 63.815 138.547 65.2722 139.553C66.7293 140.559 68.1659 141.605 69.582 142.631C69.582 142.631 69.7052 142.631 69.7668 142.755C71.1624 143.781 72.4964 144.807 73.8715 145.936C75.2466 147.064 76.6832 148.255 77.9762 149.445L80.8494 151.969C81.7524 152.79 82.6351 153.631 83.5176 154.473C84.0101 154.904 84.4821 155.355 84.9747 155.848C86.2061 157.059 87.4375 158.27 88.6279 159.542C88.8126 159.706 88.9768 159.891 89.1615 160.076C90.1261 161.081 91.0906 162.128 92.0142 163.195C92.671 163.852 93.2867 164.549 93.8614 165.247C96.3242 168.059 98.7049 170.952 100.963 173.949C101.066 174.01 101.145 174.104 101.188 174.216L104.082 178.135C104.278 178.344 104.443 178.579 104.575 178.833C104.575 176.781 104.575 174.605 104.575 172.451C104.575 168.059 104.575 163.729 104.944 159.378C83.2506 133.971 55.9955 116.055 30.0333 110.904Z" fill="white"/>
<path d="M144 241.981C144.014 241.934 144.014 241.884 144 241.837C142.145 230.376 139.02 219.156 134.683 208.386C131.671 200.81 128.111 193.464 124.031 186.406C122.163 183.143 120.152 179.941 118.079 176.822C118.25 186.78 119.093 196.715 120.603 206.559C122.997 221.632 127.13 236.376 132.917 250.498C136.321 258.954 140.441 267.103 145.232 274.858C146.19 263.89 145.777 252.846 144 241.981Z" fill="white"/>
<path d="M49.0381 143.842C48.6481 167.258 55.9545 194.287 69.5615 217.723C82.7171 240.483 101.394 258.768 121.301 268.865C121.527 265.099 121.527 261.323 121.301 257.557C114.348 241.101 109.52 223.826 106.935 206.149C105.662 203.583 104.267 201.038 102.83 198.514C89.2847 175.057 69.5205 155.253 49.0381 143.842ZM107.427 244.977C96.5031 235.491 87.2485 224.239 80.0491 211.69C72.443 198.491 66.9448 184.185 63.7535 169.29C75.0641 179.495 84.6919 191.422 92.2811 204.63C99.5594 217.133 104.68 230.773 107.427 244.977Z" fill="white"/>
<path d="M231.8 325.979C279.271 326.41 328.753 293.841 358.614 242.104C389.297 188.971 394.14 125.003 370.928 85.0658C369.355 85.0658 367.775 85.1068 366.187 85.1889C364.73 85.1889 363.273 85.3326 361.816 85.4968C359.209 85.7225 356.541 86.1124 353.894 86.5639C353.545 86.5639 353.196 86.6871 352.888 86.7486C352.58 86.8102 351.903 86.9128 351.349 87.0565C350.466 87.2207 349.543 87.4053 348.66 87.6106C348.572 87.6222 348.482 87.6222 348.394 87.6106C346.936 87.9184 345.52 88.3084 344.084 88.6983C341.641 89.355 339.22 90.0733 336.757 90.9147C335.669 91.2636 334.704 91.6535 333.514 92.0845C327.929 94.1316 322.486 96.5448 317.218 99.3084C315.802 100.027 314.366 100.807 312.949 101.607C309.153 103.659 305.376 106.081 301.641 108.564L299.589 110.021C298.316 110.883 297.044 111.807 295.812 112.73C294.581 113.654 293.042 114.782 291.708 115.788C288.875 117.984 286.105 120.303 283.375 122.684C282.369 123.566 281.323 124.448 280.379 125.372C279.435 126.296 278.449 127.137 277.485 128.06C278.408 132.945 279.229 137.911 279.804 142.898C279.961 142.7 280.14 142.521 280.338 142.365C281.713 140.908 283.149 139.512 284.565 138.137C285.982 136.762 287.788 135.059 289.45 133.602C291.112 132.144 292.754 130.667 294.437 129.251C296.12 127.835 297.475 126.747 299.055 125.516L299.527 125.187C301.251 123.833 302.934 122.56 304.72 121.329C305.971 120.406 307.285 119.523 308.599 118.641L310.179 117.594C312.231 116.26 314.283 114.947 316.336 113.756C317.485 113.058 318.614 112.422 319.763 111.807C320.913 111.191 322.185 110.452 323.416 109.754C324.258 109.303 325.099 108.872 325.941 108.482C326.782 108.092 328.178 107.415 329.286 106.902L333.021 105.26C334.52 104.644 336.059 104.029 337.557 103.495C338.645 103.064 339.712 102.674 340.779 102.346C341.847 102.017 343.201 101.525 344.432 101.176C348.341 99.9707 352.324 99.0246 356.357 98.3439C357.547 98.1386 358.778 97.9539 360.01 97.8103C361.241 97.6666 362.514 97.5024 363.786 97.3793C380.882 133.93 374.889 189.566 348.168 235.886C322.144 280.933 279.927 310.731 238.983 313.461C238.531 312.537 238.1 311.614 237.669 310.649C237.238 309.685 236.869 308.843 236.52 307.961C236.171 307.078 235.72 306.052 235.371 305.088C232.48 308.438 229.411 311.631 226.176 314.651C227.835 318.499 229.74 322.235 231.882 325.836" fill="white"/>
<path d="M231.902 230.18C232.108 229.667 232.251 229.175 232.415 228.641C232.826 227.369 233.257 226.055 233.626 224.721C234.324 222.402 234.981 220.063 235.555 217.682C235.904 216.328 236.212 214.994 236.52 213.578C236.52 213.578 236.52 213.434 236.52 213.393C236.787 212.613 237.013 211.854 237.32 211.074C237.854 209.555 238.429 207.975 239.024 206.436C239.024 206.313 239.024 206.169 239.168 206.005C239.599 204.938 240.05 203.809 240.522 202.742C241.282 200.69 242.164 198.637 243.088 196.708C243.703 195.313 244.36 193.938 245.017 192.604C245.673 191.27 246.351 189.874 247.069 188.499C247.787 187.124 248.465 185.852 249.121 184.538C249.778 183.225 250.661 181.727 251.482 180.434C252.467 178.71 253.534 177.007 254.519 175.365C255.504 173.723 256.777 171.773 257.926 170.008C258.768 168.736 259.63 167.484 260.512 166.212L262.4 163.585C263.201 162.477 264.001 161.368 264.842 160.281C265.684 159.193 266.587 158.064 267.428 156.936C267.08 151.333 266.464 145.751 265.663 140.23C261.461 144.871 257.495 149.721 253.78 154.76C253.041 155.704 252.364 156.669 251.728 157.633C250.271 159.686 248.834 161.738 247.5 163.79C246.33 165.514 245.222 167.238 244.114 169.044C243.006 170.85 242.061 172.369 241.117 174.051L240.994 174.195C240.994 174.195 240.994 174.195 240.994 174.318C238.388 178.854 235.966 183.471 233.729 188.109C233.195 189.238 232.662 190.346 232.169 191.496C230.582 194.957 229.118 198.446 227.777 201.962C227.038 203.85 226.361 205.718 225.725 207.606C224.719 210.499 223.795 213.372 222.954 216.266C222.379 218.318 221.805 220.248 221.292 222.259C220.778 224.27 220.348 226.055 219.917 227.943C219.917 228.108 219.917 228.21 219.793 228.374C218.06 236.181 216.894 244.103 216.304 252.078C216.181 253.863 216.079 255.669 216.038 257.475C215.914 259.692 215.873 261.929 215.873 264.125C215.873 266.177 215.873 268.332 216.079 270.405C216.079 271.369 216.079 272.293 216.222 273.216C216.387 275.638 216.612 277.977 216.879 280.317C217.057 281.822 217.262 283.32 217.495 284.811C217.721 286.207 217.946 287.582 218.193 288.916C218.439 290.25 218.726 291.645 219.034 293.02C219.609 295.709 220.307 298.397 221.086 301.024C222.79 299.259 224.432 297.453 226.053 295.565C227.674 293.677 229.234 291.83 230.815 289.88C230.472 288.252 230.165 286.61 229.891 284.955C229.624 283.601 229.44 282.267 229.234 280.85C229.234 280.317 229.091 279.742 229.05 279.168C228.865 277.813 228.742 276.438 228.618 275.063C228.475 273.36 228.352 271.677 228.27 269.974C228.085 266.526 228.085 263.016 228.27 259.487C228.27 258.604 228.27 257.681 228.27 256.757C228.27 255.834 228.27 254.52 228.475 253.412C228.475 253.412 228.475 253.289 228.475 253.227C228.577 251.791 228.701 250.375 228.844 248.959C229.152 245.613 229.624 242.227 230.24 238.841C230.466 237.466 230.732 236.029 230.999 234.736C231.266 233.444 231.553 231.925 231.882 230.632C231.882 230.632 231.882 230.509 231.882 230.468L231.902 230.18Z" fill="white"/>
<path d="M337.557 229.955C360.277 190.551 367.234 144.047 356.028 110.924C330.128 116.034 302.831 133.991 281.22 159.357C281.494 163.708 281.624 168.079 281.61 172.471C281.61 174.626 281.61 176.74 281.487 178.854C281.625 178.604 281.79 178.37 281.98 178.156L284.873 174.236C284.923 174.128 285.001 174.036 285.099 173.969C287.37 170.973 289.744 168.072 292.221 165.268C292.795 164.591 293.411 163.893 294.068 163.215C294.971 162.148 295.936 161.163 296.9 160.096C297.068 159.908 297.246 159.73 297.434 159.562C298.624 158.29 299.855 157.079 301.087 155.868C301.554 155.384 302.048 154.925 302.565 154.493C303.509 153.529 304.617 152.564 305.561 151.682C306.505 150.799 307.778 149.63 308.906 148.727C310.035 147.824 311.123 146.839 312.231 145.956C313.668 144.807 315.125 143.699 316.582 142.611C318.039 141.523 319.394 140.559 320.81 139.574C322.226 138.588 323.704 137.521 325.202 136.7C326.7 135.88 327.809 135.079 329.122 134.32C333.597 131.691 338.262 129.4 343.078 127.465C344.494 126.85 345.951 126.316 347.408 125.823C352.95 154.883 345.356 191.968 327.049 223.839C309.317 254.623 282.411 277.546 254.93 286.002C254.581 284.545 254.314 283.087 254.027 281.63C254.027 281.056 253.842 280.44 253.739 279.845V279.742C250.892 284.621 247.782 289.341 244.422 293.882C245.078 296.119 245.776 298.315 246.577 300.47C280.687 294.806 315.679 267.819 337.557 229.955Z" fill="white"/>
<path d="M243.97 269.707C244.216 269.276 244.483 268.824 244.709 268.352C245.674 266.628 246.597 264.904 247.48 263.14C248.362 261.375 249.532 259.035 250.435 256.983C251.338 254.931 252.241 252.878 253.124 250.723V250.6C258.93 236.457 263.063 221.683 265.438 206.579C267.033 196.744 267.918 186.805 268.085 176.842C266.033 179.941 263.98 183.184 262.133 186.447C258.053 193.505 254.493 200.851 251.482 208.427C247.151 219.198 244.033 230.417 242.185 241.878C242.17 241.925 242.17 241.975 242.185 242.022C240.386 252.933 239.972 264.028 240.953 275.043C241.938 273.278 242.985 271.513 243.97 269.707Z" fill="white"/>
<path d="M279.127 206.046C276.531 223.78 271.704 241.116 264.76 257.64C264.576 261.416 264.576 265.151 264.76 268.763C284.627 258.727 303.324 240.38 316.459 217.621C330.046 194.143 337.372 167.115 336.983 143.74C316.459 155.089 296.777 174.954 283.19 198.453C281.774 200.915 280.42 203.399 279.086 205.902L279.127 206.046ZM293.698 204.63C301.3 191.436 310.919 179.512 322.206 169.29C319.06 184.199 313.559 198.512 305.91 211.69C298.731 224.253 289.474 235.508 278.532 244.977C281.296 230.775 286.423 217.137 293.698 204.63Z" fill="white"/>
</g>
<defs>
<clipPath id="clip0_107_440">
<rect width="385" height="326" fill="white" transform="translate(0.5)"/>
</clipPath>
</defs>
</svg>
