<svg width="571" height="318" viewBox="0 0 571 318" fill="none" xmlns="http://www.w3.org/2000/svg" class="current">
<g clip-path="url(#clip0_5_522)">
<path d="M320.37 43.1101C319.707 43.5164 319.072 43.9674 318.47 44.46C316.82 45.97 315.29 47.6101 313.58 49.0501C312.399 49.9974 311.122 50.8185 309.77 51.5C308.51 52.16 307.13 52.6 305.64 53.21C305.553 53.6207 305.519 54.0408 305.54 54.46C305.994 56.9824 305.902 59.5728 305.271 62.0567C304.639 64.5407 303.483 66.8605 301.88 68.8601C300.66 70.4301 299.36 71.9401 297.88 73.7001C295.387 70.1625 294.1 65.9162 294.21 61.59C294.21 57.18 295.42 53.11 296.93 48.99C293.591 46.5849 290.036 44.4959 286.31 42.75C280.65 39.9138 274.446 38.328 268.12 38.1001C263.711 37.9974 259.336 38.8895 255.32 40.71C247.21 44.36 241.21 50.4201 236.21 57.66C236.14 57.76 236.21 57.95 236.15 58.37C236.9 58.59 237.73 58.82 238.53 59.09C244.01 60.92 249.29 63.0901 253.82 66.8501C256.465 68.9404 258.499 71.7035 259.71 74.8501C259.933 75.5132 260.326 76.1063 260.85 76.5701C262.49 77.84 264.22 78.98 265.85 80.12C269.69 78.19 272.64 78.5401 274.65 81.0701C275.507 82.1388 275.978 83.4662 275.986 84.8364C275.993 86.2066 275.536 87.539 274.69 88.6169C273.844 89.6947 272.658 90.4546 271.326 90.7729C269.993 91.0912 268.592 90.9492 267.35 90.37C264.35 88.99 263.47 86.3701 264.44 81.7901C263.86 81.3601 263.24 80.8801 262.61 80.4201C261.98 79.9601 261.31 79.52 260.39 78.87C260.02 83.4089 258.276 87.7272 255.39 91.25C258.51 91.37 261.39 90.6 264.03 91.96C262.96 95.31 258.85 97.27 255.55 96.9C255.4 96.9 255.24 96.82 255.08 96.81C253.489 96.7285 251.943 96.2526 250.581 95.4252C249.22 94.5977 248.085 93.4448 247.28 92.0701C246.744 91.3651 246.36 90.557 246.152 89.6965C245.944 88.8361 245.916 87.9419 246.07 87.0701C246.497 85.3931 247.024 83.7434 247.65 82.1301C250.91 82.9501 252.24 84.61 253.28 88.9C258.75 83.45 258.28 77.2101 254.52 72.3601C251.33 68.2601 247.02 65.7001 242.25 63.8801C239.587 62.7882 236.763 62.1429 233.89 61.97C233.301 61.9109 232.708 62.0408 232.197 62.3411C231.686 62.6413 231.285 63.0963 231.05 63.6401C227.192 70.2756 224.169 77.3627 222.05 84.74C218.81 96.17 215.89 107.74 212.86 119.2C210.33 128.78 207.64 138.3 203.57 147.37C202.57 149.7 201.35 151.98 200.18 154.25C199.01 156.52 199.18 157.33 201.18 158.93C201.66 159.31 202.12 159.7 202.76 160.22C202.06 160.5 201.56 160.72 201.05 160.9C197.028 162.338 193.605 165.085 191.33 168.7C187.823 174.033 184.23 179.32 180.55 184.56C173.033 195.02 164.024 204.322 153.81 212.17L152.51 213.23C152.45 213.23 152.44 213.37 152.33 213.62C152.694 213.823 153.076 213.993 153.47 214.13C164.357 216.956 175.417 219.067 186.58 220.45C192.219 221.133 197.903 221.37 203.58 221.16C210.39 220.83 217.09 219.79 223.14 216.32C224.44 215.57 225.63 214.65 226.54 214.04C226.07 211.32 225.36 209.04 225.33 206.69C225.38 203.981 226.429 201.386 228.274 199.403C230.119 197.419 232.632 196.186 235.33 195.94C238.047 195.727 240.75 196.487 242.958 198.085C245.166 199.682 246.733 202.013 247.38 204.66C247.858 206.93 247.713 209.286 246.96 211.48C244.6 219.07 239.17 223.53 231.96 226.1C226.807 227.869 221.408 228.817 215.96 228.91C211.73 229.165 207.489 229.165 203.26 228.91C196.37 228.31 189.48 227.45 182.63 226.38C170.901 224.436 159.287 221.852 147.84 218.64C147.134 218.416 146.384 218.368 145.656 218.501C144.927 218.633 144.242 218.942 143.66 219.4C131.665 227.497 118.297 233.345 104.21 236.66C95.8439 238.706 87.3204 240.044 78.7299 240.66C72.1189 241.175 65.4813 241.255 58.8599 240.9C44.6099 240.08 30.6299 237.79 17.3599 232.3C12.4078 230.396 7.92307 227.45 4.20988 223.66C1.56237 220.93 0.0504246 217.297 -0.020121 213.495C-0.0906665 209.693 1.28546 206.006 3.82988 203.18C6.86216 200.073 10.6925 197.862 14.8999 196.79C20.5325 195.198 26.3565 194.384 32.2099 194.37C36.9199 194.28 41.6499 194.26 46.3499 194.55C53.1899 194.98 59.9999 195.74 66.8199 196.34C67.6099 196.41 68.3999 196.43 69.3899 196.48C72.0599 188.1 70.3899 180.48 65.4999 173.53C60.2499 166.05 52.9099 162.53 43.4999 163.22C43.3937 163.761 43.3236 164.309 43.2899 164.86C43.2899 169.33 43.2899 173.86 43.4799 178.29C43.7099 182.96 45.1499 187.09 49.7899 189.29C49.8899 189.35 49.9299 189.55 50.0799 189.83H17.0799C18.005 189.225 18.8871 188.557 19.7199 187.83C22.1708 185.361 23.5993 182.057 23.7199 178.58C23.8999 175.88 23.9599 173.16 24.0599 170.46C24.1799 167.15 23.2199 164.33 20.4799 162.27C19.7299 161.7 19.0299 161.07 18.1499 160.34C18.7599 159.78 19.2499 159.28 19.7899 158.87C20.8153 158.095 21.6765 157.124 22.3237 156.013C22.9708 154.902 23.391 153.674 23.5599 152.4C24.1304 148.296 24.0494 144.128 23.3199 140.05C22.6799 136.19 20.8999 133 16.5599 131.1H73.1199C73.5199 136.93 73.9299 142.77 74.3499 148.72C74.1199 148.64 73.8299 148.63 73.7599 148.5C71.7599 144.37 68.0499 142.28 63.8799 141.13C60.877 140.336 57.8012 139.85 54.6999 139.68C50.9899 139.45 47.2399 139.68 43.3799 139.68V154.94C44.0399 155 44.6499 155.1 45.2599 155.1C53.2673 155.292 61.142 157.187 68.3599 160.66C71.824 162.11 75.0161 164.139 77.7999 166.66C83.1899 171.87 86.4399 178.08 86.5899 185.66C86.6768 187.815 86.6133 189.974 86.3999 192.12C86.1599 194.24 85.5699 196.32 85.0799 198.67C86.4899 198.95 87.8599 199.29 89.2399 199.5C103.92 201.77 118.43 204.8 132.81 208.5C134.59 208.96 136.43 209.22 138.16 209.8C138.683 209.992 139.249 210.035 139.794 209.924C140.34 209.813 140.844 209.552 141.25 209.17C146.66 204.69 152.25 200.38 157.42 195.67C161.327 192.021 165.036 188.166 168.53 184.12C171.37 181.095 173.634 177.578 175.21 173.74C175.709 172.561 176.046 171.32 176.21 170.05C176.394 168.728 176.158 167.382 175.535 166.201C174.913 165.02 173.935 164.065 172.74 163.47C170.938 162.625 169.072 161.923 167.16 161.37C166.16 161 165.06 160.73 163.76 160.37L167.76 156.67L151.56 131.41C153.17 130.92 180.76 130.77 184.01 131.25C183.876 131.44 183.714 131.608 183.53 131.75C179.67 134.01 178.35 136.89 179.6 141.2C180.369 143.548 181.315 145.835 182.43 148.04C183.125 149.391 183.893 150.703 184.73 151.97C185.26 152.85 185.83 153.7 186.59 154.89C187.27 153.98 187.88 153.29 188.35 152.52C191.534 147.349 194.312 141.94 196.66 136.34C201.46 125.08 204.9 113.34 208.49 101.68C211.66 91.38 214.81 81.07 219.18 71.19C222.297 63.7312 226.529 56.7888 231.73 50.6001C236.292 45.218 242.016 40.9408 248.47 38.09C249.05 37.84 249.58 37.5 250.24 37.15C249.14 34.24 248.06 31.4201 246.93 28.4501H244.21C242.151 28.4242 240.184 27.5955 238.727 26.1404C237.27 24.6853 236.438 22.7189 236.41 20.66C236.317 18.7397 236.895 16.8469 238.044 15.3054C239.193 13.764 240.842 12.6698 242.708 12.2102C244.575 11.7506 246.544 11.9541 248.277 12.7859C250.01 13.6178 251.401 15.0262 252.21 16.7701C252.967 18.4159 253.171 20.2623 252.792 22.0338C252.414 23.8053 251.473 25.4071 250.11 26.6001C249.76 26.9201 249.4 27.2101 248.92 27.6001C250.06 30.5101 251.17 33.38 252.24 36.12L267.93 33.28C266.335 28.8308 266.518 23.938 268.44 19.6201C269.133 18.0156 270.127 16.5591 271.37 15.33C272.86 13.85 274.75 14.2601 275.75 16.1301C276.27 17.112 276.58 18.1916 276.66 19.3C276.97 24.3 276.45 29.0501 273.45 33.3001C273.38 33.4001 273.45 33.6001 273.45 33.8501C275.59 34.2601 277.75 34.6501 279.91 35.1001C283.138 35.6825 286.256 36.7656 289.15 38.31C289.621 38.5959 290.151 38.7721 290.7 38.8258C291.248 38.8794 291.802 38.8091 292.32 38.62C294.072 38.1496 295.628 37.133 296.763 35.7177C297.898 34.3025 298.552 32.5623 298.63 30.75C298.93 27.41 298.29 25.0601 296.13 21.4801C299.71 18.2801 304.13 18.4801 307.89 22.1001C306.44 25.0401 303.61 25.2601 300.65 25.5501C301.57 28.7301 302.04 31.84 300.65 34.9C299.953 36.3607 298.964 37.6633 297.745 38.7278C296.525 39.7923 295.101 40.5962 293.56 41.09C295.384 42.7923 297.34 44.3472 299.41 45.74C302.347 41.8491 306.704 39.2786 311.53 38.59C315.59 37.9813 319.739 38.4931 323.53 40.0701L320.29 43.22L320.37 43.1101ZM132.86 214.01C115.86 209.69 99.3599 205.57 82.2999 203.94L81.0199 205.77C78.3923 209.712 74.8961 213 70.7999 215.38C59.0299 222.04 46.7299 222.86 34.1499 217.98C27.6599 215.46 23.1499 210.98 21.9499 203.81C21.8099 202.96 21.7599 202.1 21.6599 201.26C15.7999 201.06 11.3199 205.73 12.1399 211.26C12.4367 212.745 13.0063 214.163 13.8199 215.44C16.1299 219.44 19.8199 221.68 24.0199 223.38C35.1899 227.97 47.0199 229.29 58.8799 229.81C63.4099 230.01 67.9699 229.67 72.5199 229.54C81.5257 229.197 90.4805 228.022 99.2699 226.03C110.054 223.751 120.521 220.168 130.44 215.36C131.12 215.03 131.77 214.66 132.86 214.01ZM65.9999 202.91C62.6699 201.35 40.3699 199.65 34.6899 200.51C34.6951 201.123 34.7453 201.735 34.8399 202.34C35.17 204.083 35.942 205.711 37.0819 207.07C38.2217 208.429 39.6913 209.472 41.3499 210.1C50.0499 213.64 58.7099 211.76 65.1699 204.3C65.4872 203.862 65.765 203.397 65.9999 202.91Z" fill="black"/>
<path d="M526.4 189.97H499.56C500 189.46 500.2 189.06 500.56 188.86C503.774 186.855 506.189 183.793 507.39 180.2C508.39 177.51 509.5 174.85 510.53 172.2C510.747 171.543 510.931 170.876 511.08 170.2C503.02 171.95 495.75 171.48 490.49 164.39C489.952 164.809 489.529 165.359 489.263 165.987C488.997 166.616 488.896 167.302 488.97 167.98C488.834 171.724 488.994 175.472 489.45 179.19C489.722 181.379 490.48 183.48 491.668 185.338C492.857 187.197 494.446 188.765 496.32 189.93H464.15C465.05 189.04 465.67 188.37 466.34 187.76C467.221 187.001 467.941 186.072 468.456 185.03C468.972 183.987 469.272 182.851 469.34 181.69C469.5 174.51 469.4 167.32 469.4 159.96C465.668 158.56 461.58 158.419 457.76 159.56C456.699 159.83 455.766 160.465 455.126 161.353C454.486 162.242 454.179 163.328 454.26 164.42C454.33 169.93 454.49 175.42 454.55 180.95C454.565 182.271 454.862 183.573 455.421 184.77C455.979 185.967 456.787 187.03 457.79 187.89C458.4 188.46 458.97 189.09 459.79 189.94H428.09C428.49 189.52 428.75 189.19 429.09 188.94C433.36 185.3 434.87 180.47 435.09 175.08C435.16 173.16 435.09 171.24 435.09 169.32C435.189 167.877 434.897 166.434 434.246 165.143C433.595 163.851 432.609 162.759 431.39 161.98C430.8 161.57 430.26 161.11 429.39 160.46C430.09 159.83 430.67 159.21 431.34 158.72C432.811 157.707 433.874 156.204 434.34 154.48C436.05 148.428 435.652 141.975 433.21 136.18C432.25 133.931 430.459 132.14 428.21 131.18H459.01C458.82 131.41 458.73 131.63 458.56 131.72C457.419 132.322 456.464 133.224 455.798 134.329C455.132 135.434 454.78 136.7 454.78 137.99C454.56 143.09 454.49 148.2 454.37 153.3C454.37 153.42 454.52 153.54 454.77 153.91C458.63 149.46 463.58 147.54 469.67 147.97C469.34 143.91 470 140.03 468.88 136.2C468.622 135.185 468.151 134.236 467.5 133.415C466.848 132.595 466.03 131.922 465.1 131.44C466.94 130.89 490.42 130.68 496.1 131.17C490.22 134.09 489.24 139.34 488.97 144.85C488.838 147.456 488.919 150.067 489.21 152.66C489.475 153.989 489.969 155.261 490.67 156.42C491.051 157.171 491.592 157.829 492.256 158.348C492.92 158.866 493.689 159.232 494.51 159.42C498.394 160.358 502.454 160.283 506.3 159.2C509.09 158.52 511.85 157.71 514.63 157.01C514.984 156.977 515.32 156.839 515.596 156.615C515.872 156.391 516.075 156.09 516.18 155.75C517.61 151.19 519.24 146.68 520.54 142.08C522.03 136.79 520.48 133.86 515.69 131.57C515.58 131.51 515.52 131.35 515.33 131.1H545.44C546.17 133.42 546.93 135.77 547.64 138.1C549.18 143.22 550.72 148.34 552.21 153.47C552.85 155.549 554.289 157.29 556.21 158.31C557.31 158.96 558.47 159.48 559.93 160.23C559.17 161 558.52 161.64 557.93 162.3C557.334 162.835 556.913 163.537 556.72 164.314C556.528 165.091 556.573 165.909 556.85 166.66C558.114 171.281 559.822 175.768 561.95 180.06C563.95 183.89 566.51 187.32 570.88 189.82H533.68C534.38 189.36 534.75 189.11 535.13 188.88C538.92 186.47 541.31 180.74 539.69 176.5C538.69 173.97 537.96 171.34 536.75 168.93C535.277 165.958 532.744 163.646 529.65 162.45C528.989 162.17 528.298 161.965 527.59 161.84C525.38 161.52 524.99 161.84 524.39 163.96C523.13 168.49 522 173.07 520.6 177.56C519.09 182.36 521.12 187.49 525.43 189.24C525.774 189.454 526.099 189.698 526.4 189.97ZM533.5 158.06L529.87 146.24H529.39C528.52 149.39 527.66 152.55 526.82 155.62L533.5 158.06Z" fill="black"/>
<path d="M269.5 220.14C271.78 224.33 275.35 226.95 279.4 228.98C283.494 230.962 287.886 232.259 292.4 232.82C305.383 234.687 318.625 232.479 330.3 226.5C343.52 219.89 354 210.28 360.73 196.99C366.9 184.81 368.36 172.09 364.04 158.92C363.947 158.558 363.877 158.191 363.83 157.82C365.849 158.464 367.906 158.982 369.99 159.37C372.094 159.584 374.217 159.479 376.29 159.06C375.85 158.84 375.41 158.6 374.96 158.4C372.34 157.25 369.61 156.29 367.13 154.9C365.633 153.986 364.342 152.77 363.34 151.33C362.158 149.624 360.689 148.136 359 146.93C358.621 146.625 358.267 146.29 357.94 145.93C360.84 144.34 362.04 141.67 363.35 139C365.07 135.51 368.14 133.56 371.79 132.4C375.4 131.367 379.146 130.885 382.9 130.97C395.29 130.97 407.69 130.97 420.08 130.97C420.48 130.97 420.87 131.02 421.79 131.08C417.53 132.69 415.89 135.81 415.07 139.53C414.15 144.235 414.15 149.075 415.07 153.78C415.234 154.73 415.583 155.638 416.098 156.453C416.612 157.268 417.282 157.974 418.07 158.53C418.75 159.04 419.4 159.6 420.23 160.26L417.39 162.33C416.603 162.811 415.957 163.49 415.515 164.299C415.072 165.108 414.85 166.018 414.87 166.94C414.96 170.94 414.66 174.94 414.97 178.94C415.062 180.943 415.631 182.896 416.629 184.635C417.627 186.374 419.026 187.85 420.71 188.94C420.973 189.117 421.223 189.31 421.46 189.52C421.46 189.52 421.46 189.66 421.53 189.87H388.72C388.97 189.56 389.06 189.31 389.22 189.25C392.89 187.8 394.66 184.92 395.12 181.19C395.46 178.42 395.62 175.63 395.71 172.84C395.8 170.05 395.71 166.94 395.71 163.84C392.538 162.908 389.147 163.045 386.06 164.23C384.728 164.701 383.539 165.505 382.606 166.566C381.673 167.627 381.027 168.909 380.73 170.29C379.89 173.52 379.19 176.81 378.6 180.1C376.671 190.764 372.09 200.771 365.28 209.2C352.22 225.73 335.28 236.03 314.56 239.77C300.242 242.431 285.451 240.532 272.27 234.34C268.875 232.747 265.576 230.958 262.39 228.98C257.741 226.23 254.105 222.053 252.02 217.07C249.8 211.75 251.28 205.53 255.35 202.25C257.428 200.637 260.008 199.806 262.637 199.903C265.266 200 267.777 201.019 269.731 202.78C271.684 204.542 272.956 206.935 273.324 209.54C273.691 212.145 273.13 214.797 271.74 217.03C271.13 218.09 270.35 219 269.5 220.14ZM395.65 139.99C393.48 139.92 391.48 139.68 389.51 139.82C384.34 140.18 381.96 142.07 381.27 147.33C381.033 149.099 381.493 150.89 382.553 152.325C383.613 153.76 385.19 154.727 386.95 155.02C387.719 155.224 388.506 155.352 389.3 155.4C391.41 155.4 393.57 155.84 395.65 154.91V139.99Z" fill="black"/>
<path d="M295.63 215.59C298.322 217.235 301.307 218.345 304.42 218.86C317.75 221.6 330.48 213.74 335.91 201.62C339.04 194.62 339.67 187.49 336.59 180.26C334.617 175.764 331.352 171.956 327.21 169.32C322.146 166.08 316.424 164.007 310.46 163.25C309.987 163.177 309.509 163.143 309.03 163.15C308.55 163.15 308.08 163.15 307.49 163.23C307.372 163.682 307.295 164.144 307.26 164.61C307.26 169.24 307.26 173.89 307.45 178.52C307.64 183.15 309.23 187.12 313.75 189.32C313.86 189.32 313.9 189.56 314.07 189.86H281.01C281.58 189.47 282.01 189.18 282.41 188.91C284.67 187.343 286.289 185.014 286.97 182.35C288.291 177.727 288.611 172.876 287.91 168.12C287.6 165.44 285.99 163.63 284.1 161.98C283.51 161.46 282.89 160.98 282.1 160.38C282.617 159.849 283.161 159.345 283.73 158.87C285.549 157.529 286.81 155.563 287.27 153.35C288.393 148.352 288.238 143.152 286.82 138.23C286.432 136.7 285.72 135.271 284.731 134.041C283.743 132.811 282.501 131.808 281.09 131.1C281.69 131.1 282.28 130.99 282.87 130.99C293.35 130.99 303.87 130.94 314.31 130.99C318.464 130.869 322.615 131.313 326.65 132.31C331.04 133.57 334.33 135.92 336.21 140.31C336.93 141.97 338.5 143.31 339.79 144.86C339.136 145.289 338.527 145.781 337.97 146.33C337.197 147.118 336.568 148.035 336.11 149.04C335.328 151.058 334.136 152.891 332.609 154.425C331.082 155.958 329.254 157.159 327.24 157.95C326.81 158.14 326.4 158.38 325.67 158.75C326.55 159.05 327.12 159.28 327.67 159.43C333.079 160.717 338.078 163.34 342.21 167.06C345.782 170.428 348.301 174.759 349.46 179.53C352.57 191.42 349.81 201.81 341.21 210.6C332.39 219.6 321.52 224.17 309.03 225.25C301.212 226.083 293.32 224.609 286.33 221.01C282.179 218.993 278.928 215.503 277.21 211.22C276.656 209.87 276.375 208.423 276.386 206.964C276.396 205.505 276.696 204.062 277.27 202.72C277.843 201.378 278.678 200.163 279.725 199.147C280.772 198.13 282.011 197.333 283.37 196.8C286.095 195.673 289.153 195.654 291.892 196.749C294.63 197.844 296.833 199.965 298.03 202.66C298.86 204.445 299.197 206.421 299.003 208.38C298.81 210.34 298.094 212.212 296.93 213.8C296.54 214.35 296.12 214.91 295.63 215.59ZM307.38 155.02C309.458 155.296 311.57 155.171 313.6 154.65C315.94 153.98 317.6 152.55 318.06 150.17C318.363 148.22 318.387 146.237 318.13 144.28C318.006 143.525 317.694 142.813 317.225 142.208C316.755 141.604 316.141 141.127 315.44 140.82C312.85 139.53 310.14 139.6 307.38 139.96V155.02Z" fill="black"/>
<path d="M244.5 160.18C243.76 160.71 243.13 161.18 242.5 161.62C241.613 162.176 240.883 162.949 240.379 163.866C239.875 164.783 239.614 165.814 239.62 166.86C239.62 171.19 240.44 175.26 243.25 178.74C244.241 179.999 245.492 181.03 246.917 181.762C248.343 182.493 249.909 182.909 251.51 182.98C255.91 183.3 259.75 182.14 262.68 178.69C263.332 177.995 263.818 177.16 264.1 176.25C264.92 173.07 262.57 170.6 259.21 171.01C258.387 171.149 257.573 171.333 256.77 171.56C256.388 170.037 256.446 168.437 256.938 166.947C257.43 165.456 258.336 164.136 259.55 163.14C263.95 159.14 271.21 158.75 275.15 163.08C276.304 164.365 277.145 165.899 277.608 167.562C278.071 169.226 278.144 170.974 277.82 172.67C277.445 175.375 276.46 177.959 274.939 180.227C273.418 182.495 271.401 184.387 269.04 185.76C262.539 189.953 254.858 191.935 247.14 191.41C235.38 190.56 226.14 185.27 220.08 174.95C218.629 172.458 217.563 169.761 216.92 166.95C216.455 164.599 215.123 162.507 213.19 161.09C212.87 160.85 212.58 160.6 212.1 160.21C212.277 159.973 212.474 159.752 212.69 159.55C215.604 157.134 217.645 153.828 218.5 150.14C219.337 146.801 220.788 143.647 222.78 140.84C227.18 134.84 233.14 131.5 240.29 130.03C244.98 129.03 249.66 129.48 254.29 130.26C256.63 130.742 258.998 131.076 261.38 131.26C263.043 131.155 264.691 130.883 266.3 130.45C266.342 130.509 266.371 130.576 266.387 130.646C266.402 130.716 266.403 130.789 266.39 130.86C266.113 131.569 266.085 132.35 266.311 133.077C266.536 133.803 267.001 134.432 267.63 134.86C270.22 137.08 270.41 139.98 269.63 142.98C269.205 144.711 268.117 146.206 266.599 147.141C265.082 148.077 263.258 148.378 261.52 147.98C257.32 147.15 254.72 144.07 255.01 140.15C255.06 139.45 255.17 138.75 255.25 138.05C254.32 137.05 253.14 137.39 252.06 137.39C246.53 137.39 242.97 139.9 241.24 145.1C240.58 147.1 240.24 149.1 239.74 151.1C239.42 152.391 239.48 153.748 239.913 155.005C240.346 156.263 241.133 157.369 242.18 158.19C242.91 158.85 243.65 159.45 244.5 160.18Z" fill="black"/>
<path d="M117.65 162.42C117.65 165.85 117.59 169.1 117.65 172.36C117.646 175.066 117.793 177.77 118.09 180.46C118.63 184.55 120.45 187.91 124.44 189.85H91.77L93.39 189.02C96.04 187.67 97.3 185.24 97.9 182.56C99.0755 177.255 99.2451 171.777 98.4 166.41C98.297 165.533 97.9959 164.691 97.5195 163.948C97.0431 163.205 96.4038 162.58 95.65 162.12C94.85 161.63 94.1 161.05 93.13 160.37C93.83 159.75 94.39 159.25 94.97 158.75C96.0448 157.918 96.9229 156.86 97.5417 155.65C98.1605 154.44 98.5048 153.108 98.55 151.75C98.5937 147.608 98.3866 143.467 97.93 139.35C97.49 135.83 95.86 132.81 91.77 131.27C92.4323 131.159 93.0999 131.083 93.77 131.04C105.36 131.04 116.95 130.98 128.54 131.04C132.76 131.04 137.03 131.17 141.06 132.61C143.012 133.296 144.875 134.212 146.61 135.34C148.984 136.9 150.647 139.332 151.24 142.11C151.84 144.9 153.02 147.19 155.56 148.52C155.47 148.85 155.47 149.07 155.38 149.13C152.94 150.68 151.51 152.96 150.13 155.46C147.13 160.82 142.82 164.72 136.72 166.27C131.583 167.597 126.144 167.092 121.34 164.84C120.055 164.121 118.822 163.312 117.65 162.42ZM130.02 148.84C129.908 149.103 129.76 149.348 129.58 149.57C126.89 151.71 127.25 154.45 128.28 157.15C129.69 160.87 133.91 161.58 136.57 158.63C137.351 157.773 137.954 156.77 138.344 155.678C138.734 154.586 138.902 153.428 138.84 152.27C138.64 146.59 134.84 142.02 128.84 140.79C125.704 140.281 122.543 139.947 119.37 139.79C118.877 139.796 118.386 139.863 117.91 139.99V150.66C119.96 149.1 121.54 147.54 123.91 147.19C124.987 146.993 126.095 147.038 127.152 147.324C128.209 147.609 129.189 148.127 130.02 148.84Z" fill="black"/>
<path d="M254.61 278.87L253.92 278.42C252.39 277.5 252.37 276 253.92 275.22C254.657 274.921 255.437 274.739 256.23 274.68C256.866 274.64 257.504 274.64 258.14 274.68C260.76 274.68 260.86 274.77 261.55 277.43C262.36 276.88 263.12 276.33 263.9 275.83C265.918 274.506 268.326 273.906 270.73 274.13C272.182 274.168 273.58 274.688 274.704 275.608C275.828 276.527 276.615 277.795 276.94 279.21C277.962 283.009 277.938 287.014 276.87 290.8C276.118 293.831 274.712 296.66 272.75 299.09C270.807 301.566 268.019 303.239 264.92 303.79C263.502 304.125 262.022 304.09 260.621 303.689C259.22 303.288 257.946 302.535 256.92 301.5C256.12 305.42 255.35 308.99 254.71 312.58C254.726 312.871 254.799 313.157 254.926 313.419C255.053 313.682 255.231 313.917 255.45 314.11C256.82 315.53 256.45 317.42 254.57 317.63C251.869 317.85 249.156 317.89 246.45 317.75C246.041 317.723 245.657 317.543 245.374 317.247C245.091 316.951 244.929 316.56 244.92 316.15C244.8 315.27 245.04 314.37 245.92 314.21C247.74 313.87 247.81 312.43 248.08 311.21C249.16 306.15 250.16 301.06 251.21 295.99C252.26 290.92 253.33 285.99 254.37 280.99C254.49 280.288 254.57 279.581 254.61 278.87ZM270.5 284.56C270.454 283.553 270.337 282.551 270.15 281.56C269.47 278.61 266.97 277.56 264.31 279.05C263.236 279.686 262.319 280.555 261.626 281.594C260.934 282.633 260.484 283.814 260.31 285.05C259.82 287.38 259.31 289.72 258.94 292.05C258.627 293.444 258.486 294.871 258.52 296.3C258.526 297.14 258.787 297.958 259.267 298.647C259.747 299.336 260.424 299.863 261.21 300.16C261.994 300.482 262.859 300.548 263.683 300.346C264.506 300.145 265.244 299.688 265.79 299.04C266.885 297.87 267.766 296.516 268.39 295.04C269.717 291.702 270.432 288.152 270.5 284.56Z" fill="black"/>
<path d="M205.1 285.53C206.41 283.18 207.73 280.83 209.02 278.46C210.75 275.31 212.5 272.18 214.14 268.98C214.74 267.82 215.45 266.58 213.5 265.66C212.56 265.21 212.79 263.48 213.75 262.77C214.258 262.387 214.866 262.158 215.5 262.11C217.5 262.02 219.5 262.04 221.5 262.11C221.904 262.058 222.313 262.156 222.65 262.384C222.987 262.612 223.229 262.956 223.33 263.35C223.55 264.35 223.48 265.35 222.4 265.8C220.35 266.71 219.4 268.54 218.31 270.32C213.21 278.71 208.21 287.16 203.02 295.48C201.365 297.912 199.479 300.179 197.39 302.25C196.859 302.799 196.219 303.232 195.511 303.521C194.804 303.811 194.044 303.95 193.28 303.93C192.859 303.979 192.432 303.939 192.026 303.815C191.621 303.691 191.245 303.485 190.923 303.209C190.601 302.933 190.34 302.593 190.155 302.211C189.97 301.83 189.867 301.414 189.85 300.99C189.755 300.276 189.755 299.553 189.85 298.84C190.2 296.17 191.63 295.31 194.23 296.07C195.129 296.375 196.071 296.53 197.02 296.53C197.359 296.518 197.69 296.429 197.989 296.269C198.288 296.109 198.546 295.883 198.744 295.608C198.942 295.333 199.074 295.016 199.131 294.682C199.187 294.347 199.166 294.005 199.07 293.68C197.237 285.267 195.387 276.857 193.52 268.45C193.463 267.898 193.258 267.372 192.927 266.927C192.596 266.482 192.152 266.134 191.64 265.92C191.311 265.78 191.031 265.547 190.834 265.249C190.637 264.951 190.532 264.602 190.532 264.245C190.532 263.888 190.637 263.539 190.834 263.241C191.031 262.943 191.311 262.71 191.64 262.57C192.283 262.254 192.984 262.077 193.7 262.05C196.26 261.99 198.82 262.05 201.38 262.05C202.38 262.05 203.38 262.18 203.65 263.38C203.746 263.625 203.789 263.887 203.776 264.149C203.762 264.412 203.693 264.668 203.573 264.902C203.453 265.136 203.285 265.341 203.079 265.505C202.873 265.668 202.635 265.786 202.38 265.85C201.18 266.24 201.04 267.13 201.21 268.14C201.5 269.95 201.86 271.75 202.21 273.55C202.99 277.55 203.773 281.53 204.56 285.49L205.1 285.53Z" fill="black"/>
<path d="M346.21 302.94C345.815 302.441 345.548 301.853 345.433 301.227C345.318 300.601 345.358 299.957 345.55 299.35C346.06 297.02 346.55 294.67 347 292.35C347.17 291.51 347.26 290.66 347.4 289.67H338.63C338.1 292.35 337.57 294.98 337.05 297.62C336.984 297.968 337.024 298.328 337.162 298.653C337.301 298.979 337.534 299.256 337.83 299.45C339.2 300.66 338.78 302.64 337.01 302.82C334.222 303.028 331.423 303.062 328.63 302.92C327.74 302.92 327.27 302.12 327.17 301.26C327.07 300.4 327.33 299.49 328.24 299.36C329.7 299.16 330.01 298.16 330.24 297.05C331.4 291.417 332.55 285.79 333.69 280.17C333.745 279.759 333.769 279.345 333.76 278.93C333.471 278.787 333.19 278.627 332.92 278.45C331.57 277.45 331.6 275.97 333.07 275.3C333.877 274.962 334.736 274.765 335.61 274.72C336.889 274.65 338.171 274.65 339.45 274.72C341.14 274.77 341.56 275.24 341.33 276.95C341.19 278.05 340.89 279.14 340.66 280.23C340.26 282.1 339.87 283.97 339.41 286.23C342.41 286.33 345.24 286.23 348.23 286.23C348.68 284.08 349.14 282.07 349.52 280.05C349.64 279.42 349.64 278.73 348.79 278.51C347.94 278.29 347.71 277.67 347.79 276.86C347.808 276.455 347.964 276.068 348.231 275.763C348.498 275.458 348.861 275.252 349.26 275.18C350.269 274.968 351.292 274.821 352.32 274.74C353.199 274.69 354.081 274.69 354.96 274.74C356.82 274.79 357.25 275.24 356.96 277.03C356.39 280.25 355.76 283.46 355.11 286.66C354.3 290.66 353.44 294.66 352.58 298.71C353.008 298.886 353.414 299.111 353.79 299.38C354.23 299.77 354.89 300.29 354.86 300.72C354.73 301.387 354.377 301.99 353.86 302.43C353.42 302.775 352.879 302.969 352.32 302.98C350.21 302.97 348.11 302.94 346.21 302.94Z" fill="black"/>
<path d="M376.73 298.66C376.15 299.21 375.82 299.51 375.51 299.82C374.082 301.338 372.288 302.464 370.3 303.09C365.05 304.67 360.52 301.67 360.07 296.21C359.56 289.87 361.07 284.21 365.42 279.36C367.631 276.8 370.614 275.028 373.92 274.31C376.92 273.69 379.8 274.14 382.02 276.38C383.069 275.719 384.169 275.144 385.31 274.66C387.02 274.12 387.74 274.79 387.46 276.59C387.18 278.39 386.72 280.34 386.32 282.21C385.313 286.97 384.293 291.727 383.26 296.48C383.06 297.004 383.022 297.577 383.153 298.123C383.283 298.669 383.575 299.163 383.99 299.54C384.89 300.32 384.61 301.29 383.99 302.12C382.99 303.45 379.53 304.01 378.24 302.93C377.641 302.314 377.193 301.568 376.93 300.75C376.775 300.065 376.708 299.362 376.73 298.66ZM379.35 282.83C379.47 278.18 376.88 276.43 373.93 277.89C373.003 278.348 372.187 279.004 371.54 279.81C368.296 284.142 366.8 289.536 367.35 294.92C367.59 298.46 370.69 299.82 373.57 297.68C374.876 296.774 375.882 295.5 376.46 294.02C377.74 289.91 378.63 285.66 379.35 282.81V282.83Z" fill="black"/>
<path d="M302.56 276.42C305.33 274.42 305.56 274.42 307.85 275C307.846 275.91 307.782 276.818 307.66 277.72C306.36 283.96 305.027 290.193 303.66 296.42C303.463 296.98 303.426 297.583 303.554 298.162C303.681 298.742 303.967 299.274 304.38 299.7C305.3 300.7 305.04 301.7 303.91 302.53C303.227 303.026 302.435 303.353 301.6 303.484C300.766 303.614 299.912 303.544 299.11 303.28C297.58 302.85 297.33 301.38 297.16 300C297.16 299.69 297.11 299.37 297.06 298.77C296.46 299.3 296.06 299.7 295.58 300.09C293.52 301.93 291.3 303.41 288.39 303.46C284.39 303.54 281.89 301.79 280.83 297.89C279.846 293.99 280.144 289.877 281.68 286.16C283.68 280.86 287.14 276.81 292.6 274.8C296.41 273.4 299.27 273.87 302.56 276.42ZM287.35 292.51L287.56 292.6C287.574 293.551 287.654 294.5 287.8 295.44C288.43 298.35 290.8 299.44 293.46 298.02C294.328 297.591 295.095 296.985 295.714 296.241C296.332 295.497 296.787 294.631 297.05 293.7C298.11 289.62 298.91 285.48 299.68 281.33C299.764 280.459 299.561 279.584 299.1 278.84C297.98 276.95 295.21 276.84 293.23 278.5C291.419 279.98 290.086 281.964 289.4 284.2C288.59 286.93 288.02 289.74 287.35 292.51Z" fill="black"/>
<path d="M282.14 0L283.14 1.76001C284.53 1.63001 285.87 1.41001 287.2 1.40001C292.1 1.34001 295.8 3.68 298.49 7.55C301.62 12.04 300.4 16.55 295.64 19.26C294.672 19.7748 293.8 20.4512 293.06 21.26C288.92 26.05 283.31 25.76 279.87 20.4C277 15.91 276.16 11.12 278.56 5.67L276.79 4.8L282.14 0Z" fill="black"/>
<path d="M237.15 287.94C237.84 289.02 238.59 290.33 239.46 291.55C241.21 294 242.41 296.82 244.78 298.87C246.2 300.1 245.65 301.99 243.9 302.72C242.756 303.203 241.482 303.288 240.284 302.962C239.086 302.635 238.031 301.916 237.29 300.92C235.86 298.72 234.71 296.33 233.47 294.01C232.76 292.69 232.11 291.34 231.47 290.01H230.95C230.36 292.84 229.77 295.67 229.21 298.38C229.61 299.38 231.21 299.19 230.96 300.57C230.906 301.133 230.664 301.661 230.275 302.071C229.885 302.48 229.369 302.748 228.81 302.83C226.26 302.96 223.7 302.93 221.14 302.83C220.731 302.847 220.332 302.706 220.024 302.436C219.717 302.166 219.526 301.788 219.49 301.38C219.4 300.38 219.68 299.48 220.68 299.28C221.97 299.03 222.3 298.21 222.52 297.13C223.72 291.43 224.94 285.74 226.13 280.04C226.17 279.648 226.17 279.252 226.13 278.86C225.42 278.23 224.13 278.18 224.4 276.86C224.494 276.302 224.783 275.795 225.215 275.429C225.647 275.063 226.194 274.862 226.76 274.86C228.505 274.705 230.259 274.655 232.01 274.71C232.234 274.704 232.457 274.75 232.661 274.843C232.865 274.937 233.044 275.076 233.186 275.25C233.328 275.423 233.428 275.627 233.479 275.846C233.53 276.064 233.53 276.291 233.48 276.51C233.3 278.09 233.04 279.67 232.75 281.23C232.46 282.79 232.06 284.47 231.62 286.5C235.53 285.43 238.41 283.57 240.1 280.17C240.303 279.514 240.275 278.808 240.02 278.17C239.43 276.17 240.02 275.04 242.02 274.74C243.371 274.565 244.739 274.565 246.09 274.74C247.77 274.95 248.42 276.36 247.63 277.92C247.326 278.484 246.923 278.989 246.44 279.41C243.47 282.18 240.46 284.91 237.15 287.94Z" fill="black"/>
<path d="M242.52 113.44C238.2 113.92 234.4 108.99 234.26 104.88C234.14 101.11 235.01 97.75 237.68 95.01C240.52 92.08 244.07 91.8 247.41 94.12C248.84 95.12 250.31 96.12 251.77 97.03C255.54 99.53 256.46 103.61 253.92 107.39C252.711 109.304 251.023 110.868 249.024 111.93C247.024 112.991 244.782 113.511 242.52 113.44Z" fill="black"/>
<path d="M279.71 42.0699C277.2 53.2297 276.786 64.7589 278.49 76.0699C278.06 75.7299 277.77 75.6099 277.67 75.4099C274.76 69.6399 271.79 63.9099 269.03 58.0899C267.327 54.8212 266.448 51.1858 266.47 47.4999C266.433 46.2499 266.815 45.0234 267.554 44.0145C268.293 43.0057 269.347 42.2721 270.55 41.9299C271.694 41.5793 272.884 41.404 274.08 41.4099C275.81 41.4799 277.52 41.8099 279.71 42.0699Z" fill="black"/>
<path d="M81.1499 102.78H92.3199C92.4399 106.83 92.3199 110.78 92.3999 114.89C92.9499 114.99 93.3999 115.1 93.8299 115.16C94.8299 115.28 95.0999 115.94 95.0899 116.84C95.0899 118.76 95.0899 120.68 95.0899 122.6C95.0899 124.14 94.7999 124.37 93.2399 124.4C92.6236 124.37 92.0093 124.307 91.3999 124.21L91.1599 119.13H79.8799V124.13C78.9699 124.22 78.2899 124.33 77.6099 124.35C76.5099 124.35 76.0299 123.82 76.0499 122.72C76.0499 120.72 76.0499 118.72 76.0499 116.72C76.0499 115.95 76.1599 115.26 77.0499 115.09C77.5185 114.977 77.9424 114.726 78.2669 114.369C78.5913 114.013 78.8014 113.567 78.8699 113.09C79.5499 110.48 80.1399 107.84 80.7299 105.21C80.9299 104.48 81.0099 103.66 81.1499 102.78ZM85.0499 106.3C84.2799 109.3 83.5599 112.15 82.8299 114.98H87.8899V106.27C87.1899 106.27 86.6499 106.19 86.1099 106.19C85.7548 106.207 85.401 106.244 85.0499 106.3Z" fill="black"/>
<path d="M315.37 302.97H312.26C311.11 302.97 310.19 302.61 309.93 301.38C309.867 301.145 309.854 300.9 309.893 300.66C309.932 300.42 310.022 300.191 310.156 299.989C310.29 299.786 310.466 299.615 310.672 299.486C310.878 299.357 311.109 299.273 311.35 299.24C312.52 298.92 312.76 297.99 312.96 297.09C314.14 291.643 315.283 286.19 316.39 280.73C316.57 279.84 316.77 279 315.69 278.23C314.61 277.46 314.78 275.85 316.17 275.23C316.9 274.922 317.679 274.743 318.47 274.7C319.47 274.62 320.54 274.7 321.58 274.7C323.97 274.7 324.38 275.19 323.89 277.57C322.643 283.73 321.367 289.887 320.06 296.04C319.76 297.45 319.36 298.66 320.93 299.82C322.1 300.68 321.1 302.74 319.43 302.93C318.078 303.01 316.722 303.01 315.37 302.93V302.97Z" fill="black"/>
<path d="M420.73 104.08C421.411 103.41 422.227 102.893 423.124 102.563C424.02 102.234 424.977 102.1 425.93 102.17C426.817 102.163 427.687 102.408 428.441 102.875C429.195 103.342 429.801 104.013 430.19 104.81C431.131 106.623 431.611 108.64 431.587 110.682C431.562 112.725 431.035 114.73 430.05 116.52C428.59 119.28 425.48 119.72 422.5 118.71C422.032 118.489 421.583 118.228 421.16 117.93C421.05 120.33 420.95 122.47 420.86 124.45C420.657 124.601 420.435 124.725 420.2 124.82C416.57 125.26 416.37 125.09 416.37 121.49C416.37 115.81 416.37 110.14 416.37 104.49C416.336 104.138 416.395 103.782 416.543 103.461C416.691 103.139 416.922 102.862 417.212 102.659C417.502 102.455 417.84 102.333 418.193 102.303C418.546 102.273 418.9 102.338 419.22 102.49C419.78 102.66 420.13 103.4 420.73 104.08ZM421.02 110.53C420.979 111.276 420.979 112.024 421.02 112.77C421.19 113.375 421.516 113.924 421.965 114.363C422.415 114.802 422.972 115.114 423.58 115.27C424.174 115.377 424.787 115.259 425.299 114.94C425.811 114.62 426.186 114.121 426.35 113.54C426.743 112.625 426.946 111.64 426.946 110.645C426.946 109.65 426.743 108.664 426.35 107.75C425.57 105.92 424.16 105.62 422.5 106.67C420.84 107.72 420.88 109.08 421.02 110.53Z" fill="black"/>
<path d="M182.46 69.78C180.54 75.3 178.9 80.44 176.03 85.07C175.346 86.1444 174.526 87.1258 173.59 87.99C172.682 88.9648 171.432 89.5492 170.102 89.6201C168.772 89.691 167.466 89.2428 166.46 88.37C161.52 84.69 161.4 80.15 166.52 76.78C169.594 74.9517 172.811 73.3765 176.14 72.07C178.07 71.21 180.11 70.66 182.46 69.78Z" fill="black"/>
<path d="M181.96 63.11C176.86 61.33 171.68 59.74 167.08 56.77C166.216 56.1925 165.418 55.5218 164.7 54.77C162.35 52.41 162.06 49.96 164.01 47.26C164.866 46.1109 165.915 45.1195 167.11 44.33C168.089 43.6844 169.261 43.3974 170.428 43.5177C171.594 43.638 172.683 44.1581 173.51 44.99C174.979 46.4526 176.204 48.1405 177.14 49.99C179.14 54.15 180.73 58.46 182.5 62.72L181.96 63.11Z" fill="black"/>
<path d="M185.65 71.13C188.16 76.36 190.65 81.13 191.81 86.37C192.12 87.778 192.254 89.219 192.21 90.66C192.232 91.8776 191.789 93.0579 190.972 93.9607C190.154 94.8635 189.024 95.421 187.81 95.52C186.62 95.6766 185.416 95.7035 184.22 95.6C181.17 95.39 179.29 93.6 179.22 90.6C179.165 88.769 179.377 86.9397 179.85 85.17C181.09 80.34 183.28 75.91 185.65 71.13Z" fill="black"/>
<path d="M189.21 69.92C190.9 70.5 192.41 70.92 193.83 71.53C197.05 72.91 200.26 74.28 203.38 75.85C204.711 76.5679 205.913 77.5005 206.94 78.61C207.924 79.5666 208.504 80.8641 208.559 82.2352C208.615 83.6064 208.143 84.9467 207.24 85.98C206.986 86.2873 206.715 86.5811 206.43 86.86C202.63 90.81 199.13 90.63 196.01 86.09C194.564 83.902 193.328 81.5816 192.32 79.16C191.16 76.55 190.32 73.81 189.32 71.16C189.235 70.7525 189.198 70.3363 189.21 69.92Z" fill="black"/>
<path d="M188.98 62.86C190.18 59.67 191.24 56.4199 192.61 53.3099C193.666 50.9883 194.9 48.7516 196.3 46.6199C198.97 42.4699 203.54 42.74 206.38 46.08C206.795 46.5645 207.182 47.0719 207.54 47.5999C208.305 48.5926 208.676 49.833 208.582 51.0826C208.488 52.3323 207.935 53.5031 207.03 54.3699C205.177 56.3754 202.893 57.9345 200.35 58.9299C196.78 60.4999 193.1 61.8199 189.46 63.2399L188.98 62.86Z" fill="black"/>
<path d="M181.37 66.5C176.23 68.87 171.8 71.29 166.89 72.5C165.34 72.8615 163.752 73.0394 162.16 73.03C159.16 73.03 157.33 71.62 156.86 68.62C156.648 67.1256 156.702 65.6055 157.02 64.13C157.61 61.23 159.08 60.13 162.02 59.95C164.665 59.8776 167.293 60.3862 169.72 61.44C173.5 62.96 177.21 64.66 181.37 66.5Z" fill="black"/>
<path d="M190.21 66.53C195.37 64.09 200.11 61.48 205.45 60.35C206.694 60.0775 207.966 59.9533 209.24 59.98C212.24 60.06 214.06 61.57 214.48 64.5C214.68 65.9155 214.65 67.3541 214.39 68.76C213.87 71.69 212.23 73.04 209.26 73.03C207.577 73.0515 205.898 72.8668 204.26 72.48C199.43 71.23 194.98 68.92 190.21 66.53Z" fill="black"/>
<path d="M185.64 61.96C182.97 56.36 180.13 51.17 179.23 45.26C178.38 39.65 181.05 36.94 186.71 37.4C190.34 37.7 192.18 39.66 192.2 43.31C192.216 44.269 192.135 45.2271 191.96 46.17C190.8 51.66 188.21 56.66 185.64 61.96Z" fill="black"/>
<path d="M281.09 73.66C279.42 63.4537 279.542 53.0345 281.45 42.87C286.06 45.87 289.36 49.45 289.87 54.87C289.928 56.5342 289.681 58.1951 289.14 59.77C287.63 65.02 284.33 69.25 281.09 73.66Z" fill="black"/>
<path d="M318.83 62.38L321.08 66.49C321.53 65.2641 322.406 64.2411 323.548 63.6077C324.69 62.9743 326.022 62.7728 327.3 63.04C328.22 63.2476 329.12 63.5353 329.99 63.9C330.09 63.9611 330.183 64.0314 330.27 64.11C330.57 64.76 330.88 65.4 331.17 66.05C331.665 67.0411 331.845 68.1597 331.688 69.2562C331.53 70.3527 331.041 71.3748 330.286 72.1859C329.532 72.997 328.547 73.5584 327.465 73.795C326.383 74.0316 325.254 73.9322 324.23 73.51L322.45 72.83L322.53 72.9C321.86 71.5 321.2 70.09 320.53 68.62C320.34 68.95 320.1 69.38 319.84 69.79C319.091 70.8886 317.972 71.6817 316.687 72.0249C315.402 72.3681 314.037 72.2386 312.84 71.66C311.72 71.1212 310.821 70.2111 310.296 69.0845C309.771 67.9579 309.652 66.6843 309.96 65.48C310.24 64.2229 310.972 63.1125 312.018 62.3602C313.063 61.6079 314.349 61.2662 315.63 61.4C316.567 61.5254 317.496 61.7091 318.41 61.95L318.83 62.38Z" fill="black"/>
<path d="M440.91 102.99C442.74 102.13 442.91 102.13 445.18 102.99V110.91L445.61 111.04L449.35 105.93C449.92 105.16 450.53 104.41 451.05 103.61C451.336 103.174 451.739 102.829 452.214 102.613C452.688 102.397 453.214 102.32 453.73 102.39C455.15 102.39 455.53 102.78 455.56 104.27C455.56 106.91 455.56 109.55 455.56 112.18V118.81H451.31V110.01C450.826 110.446 450.369 110.91 449.94 111.4C448.56 113.27 447.21 115.15 445.87 117.03C444.24 119.32 444.08 119.38 441.1 118.7C440.6 116.99 440.47 105.97 440.91 102.99Z" fill="black"/>
<path d="M318.83 62.3799L318.4 61.9499L316.21 58.2599C315.701 59.2596 314.909 60.0874 313.933 60.6404C312.956 61.1934 311.839 61.4471 310.72 61.3699C308.21 61.2399 307.03 59.9999 306.96 57.5099C306.96 56.2399 306.81 54.9699 306.74 53.5999C308.6 52.7799 310.46 51.9299 312.34 51.1199C313.64 50.5699 314.52 51.4799 315.2 52.2799C315.839 53.2251 316.384 54.2298 316.83 55.2799C317.12 54.9299 317.45 54.4999 317.83 54.0999C318.689 53.1375 319.852 52.497 321.124 52.2843C322.397 52.0716 323.704 52.2993 324.83 52.9299C325.906 53.5555 326.73 54.5375 327.159 55.7061C327.588 56.8747 327.596 58.1565 327.18 59.33C326.799 60.6105 325.946 61.6982 324.792 62.3723C323.639 63.0465 322.273 63.2566 320.97 62.9599C320.21 62.7999 319.52 62.5599 318.83 62.3799Z" fill="black"/>
<path d="M113.01 112.51H107.68C107.68 113.91 107.6 115.23 107.57 116.51C107.52 118.82 107.42 118.93 105.11 118.92C104.64 118.92 104.11 118.86 103.71 118.83C103.15 117.15 102.97 107.36 103.41 102.83C104.035 102.449 104.759 102.261 105.491 102.291C106.222 102.322 106.929 102.568 107.52 103V108.37H113.01C113.01 106.98 113.01 105.65 113.01 104.31C113.07 102.75 113.6 102.31 115.31 102.31C117.02 102.31 117.61 102.73 117.62 104.31C117.62 108.61 117.62 112.92 117.62 117.23C117.62 118.44 117.12 118.92 115.91 118.99C113.33 119.12 113 118.87 112.98 116.3L113.01 112.51Z" fill="black"/>
<path d="M36.08 102.87V118.59C35.8863 118.732 35.6699 118.84 35.44 118.91C32.05 119.21 31.9 119.07 31.89 115.73V112.96C31.5383 112.813 31.1599 112.741 30.7788 112.748C30.3977 112.755 30.0222 112.841 29.6762 113.001C29.3302 113.161 29.0211 113.391 28.7687 113.676C28.5163 113.962 28.3261 114.297 28.21 114.66C27.89 115.39 27.66 116.16 27.37 116.9C26.64 118.82 26.46 118.96 24.42 118.95C23.72 118.95 23.03 118.87 22.03 118.8C22.87 116.06 23.63 113.6 25.61 111.57C24.7535 111.198 24.0408 110.559 23.5791 109.747C23.1174 108.936 22.9317 107.996 23.05 107.07C23.0473 106.31 23.2576 105.564 23.657 104.917C24.0564 104.27 24.6291 103.748 25.31 103.41C26.0164 103.048 26.7706 102.789 27.55 102.64C30.3744 102.074 33.2902 102.152 36.08 102.87ZM31.77 105.53C30.8207 105.51 29.8712 105.564 28.93 105.69C28.6912 105.726 28.4621 105.81 28.2563 105.937C28.0505 106.063 27.8724 106.23 27.7324 106.427C27.5924 106.624 27.4935 106.847 27.4416 107.083C27.3896 107.319 27.3857 107.563 27.43 107.8C27.4274 108.021 27.4687 108.239 27.5515 108.444C27.6344 108.648 27.7571 108.834 27.9126 108.99C28.0681 109.147 28.2532 109.271 28.457 109.355C28.6609 109.439 28.8795 109.481 29.1 109.48C29.94 109.54 30.8 109.48 31.77 109.48V105.53Z" fill="black"/>
<path d="M392.52 102.88C393.214 102.657 393.922 102.483 394.64 102.36C396.56 102.19 396.93 102.47 397.58 104.36C398.494 107.132 399.573 109.847 400.81 112.49L402.73 106.6C402.92 105.99 403.08 105.38 403.28 104.77C404.17 102.04 405.04 101.72 408.09 103.15C407.93 103.84 407.81 104.6 407.57 105.32C405.737 110.92 403.89 116.517 402.03 122.11C401.03 125 401.03 125 398.03 124.92C397.64 124.92 397.25 124.87 396.78 124.83C396.32 123.48 397.09 122.44 397.55 121.42C397.869 120.751 398.039 120.021 398.048 119.281C398.057 118.54 397.904 117.806 397.6 117.13C396.02 113.22 394.65 109.23 393.21 105.26C392.95 104.57 392.8 103.88 392.52 102.88Z" fill="black"/>
<path d="M314.7 113.08C315.7 109.71 316.61 106.92 317.45 104.08C317.522 103.563 317.784 103.092 318.186 102.759C318.587 102.426 319.099 102.255 319.62 102.28C321.77 102.28 322.33 102.93 321.62 105C319.813 110.54 317.987 116.073 316.14 121.6C314.96 125.18 314.71 125.31 310.73 124.6C310.34 123.15 311.28 122.01 311.73 120.78C311.965 120.251 312.086 119.679 312.086 119.1C312.086 118.521 311.965 117.949 311.73 117.42C310.06 113.42 308.64 109.2 307.15 105.07C306.55 103.43 306.7 102.78 307.67 102.44C309.16 101.9 310.85 102.39 311.33 103.61C312.03 105.4 312.59 107.23 313.23 109.04C313.63 110.23 314.08 111.4 314.7 113.08Z" fill="black"/>
<path d="M209.86 40.56C218.64 36.01 226.02 37.78 230.95 45.28C225.87 50.72 219.01 50.96 214.64 46.16C213.05 44.41 211.55 42.55 209.86 40.56Z" fill="black"/>
<path d="M229.7 41C227.86 39.68 226.03 38.56 224.41 37.18C221.41 34.64 220.86 31.26 221.63 27.6C222.313 24.8182 223.466 22.1735 225.04 19.78C232.21 22.82 234.73 33.46 229.7 41Z" fill="black"/>
<path d="M342.78 102.71C342.999 103.563 343.15 104.433 343.23 105.31C343.23 109.15 343.23 112.98 343.23 116.82C343.23 117.6 343.41 118.65 342.41 118.82C341.319 118.975 340.208 118.914 339.14 118.64C338.84 118.57 338.64 117.55 338.63 116.96C338.57 114.08 338.63 111.2 338.63 108.33C338.63 107.7 338.56 107.08 338.51 106.33H336.21C335.88 108.12 335.67 109.94 335.21 111.68C334.775 113.452 334.127 115.164 333.28 116.78C332.16 118.78 330.28 119.54 327.77 118.89C327.656 118.119 327.626 117.338 327.68 116.56C327.729 116.275 327.839 116.004 328.003 115.766C328.167 115.528 328.381 115.328 328.63 115.18C329.141 114.956 329.589 114.611 329.937 114.176C330.286 113.741 330.523 113.227 330.63 112.68C331.11 110.68 331.5 108.68 331.87 106.61C332.08 105.44 332.19 104.25 332.38 102.74C335.81 102.6 339.21 102.66 342.78 102.71Z" fill="black"/>
<path d="M299.21 103.11C297.98 105.69 297.62 108.5 295.13 110.39C297.79 112.51 298.35 115.62 299.67 118.39C298.19 119.27 296.83 118.95 295.54 118.79C295.14 118.74 294.72 118.06 294.54 117.59C294.05 116.5 293.7 115.35 293.27 114.24C293.065 113.568 292.615 112.998 292.01 112.642C291.404 112.287 290.687 112.172 290 112.32C290 113.74 290 115.13 290 116.53C290 118.83 289.86 118.94 287.52 118.92C287.05 118.92 286.58 118.86 285.84 118.81C285.52 113.46 285.76 108.16 285.7 102.88C286.352 102.462 287.115 102.253 287.888 102.28C288.662 102.306 289.409 102.568 290.03 103.03V108.66C291.59 109.06 292.33 108.2 292.89 107.22C293.295 106.445 293.629 105.635 293.89 104.8C294.88 102.11 296.21 101.66 299.21 103.11Z" fill="black"/>
<path d="M233.68 89.78C236.26 82.45 238.58 74.99 243.68 68.63C244.68 69.36 245.68 69.92 246.51 70.63C249.84 73.52 250.07 77.25 247.1 80.49C246.148 81.5675 245.089 82.5459 243.94 83.41C240.72 85.74 237.42 87.97 234.15 90.23L233.68 89.78Z" fill="black"/>
<path d="M353.34 102.89C353.997 102.515 354.744 102.326 355.5 102.346C356.257 102.365 356.993 102.591 357.63 103V107.66C358.63 107.66 359.48 107.66 360.32 107.66C361.272 107.687 362.219 107.801 363.15 108C365.76 108.64 367.08 110.14 367.34 112.58C367.545 113.773 367.331 115 366.733 116.052C366.134 117.104 365.19 117.916 364.06 118.35C363.278 118.74 362.43 118.984 361.56 119.07C359.49 119.19 357.41 119.21 355.34 119.13C353.83 119.08 353.34 118.65 353.34 117.32C353.31 112.5 353.34 107.72 353.34 102.89ZM357.78 115.78C358.836 115.79 359.892 115.73 360.94 115.6C361.456 115.521 361.92 115.243 362.233 114.827C362.547 114.41 362.686 113.887 362.62 113.37C362.655 113.135 362.644 112.895 362.587 112.664C362.53 112.434 362.428 112.216 362.287 112.025C362.146 111.834 361.968 111.672 361.764 111.549C361.561 111.427 361.335 111.345 361.1 111.31C360.1 111.1 358.99 111.05 357.78 110.91V115.78Z" fill="black"/>
<path d="M241.15 67.3801L232.06 87.66C231.656 86.7638 231.322 85.8377 231.06 84.8901C230.53 82.0801 229.94 79.26 229.67 76.41C229.404 73.937 229.827 71.4385 230.89 69.19C231.29 68.2717 231.957 67.4948 232.804 66.9599C233.651 66.4249 234.639 66.1567 235.64 66.19C237.551 66.0801 239.455 66.4914 241.15 67.3801Z" fill="black"/>
<path d="M265.8 26.44C265.084 25.8029 264.416 25.1144 263.8 24.38C261.343 20.9175 259.988 16.7947 259.91 12.55C259.903 11.8348 260.008 11.123 260.22 10.44C260.91 8.06996 263.03 7.23997 265.05 8.64997C267.059 10.1164 268.579 12.1554 269.41 14.5C269.496 14.7501 269.525 15.0162 269.495 15.279C269.466 15.5418 269.379 15.7949 269.24 16.02C266.92 18.86 266.21 22.24 265.8 26.44Z" fill="black"/>
<path d="M381.83 118.76H377.76C377.21 116.76 377.57 114.76 377.51 112.85C377.45 110.94 377.51 108.85 377.51 106.64L373.38 106.39C373.32 105.24 373.26 104.12 373.19 102.82H385.96V106.34L381.85 106.64L381.83 118.76Z" fill="black"/>
<path d="M334.59 74.86C335.95 76.61 336.96 78.42 336.19 80.79C335.788 82.097 334.908 83.2049 333.727 83.8938C332.545 84.5827 331.148 84.8023 329.813 84.5089C328.477 84.2156 327.3 83.4308 326.516 82.3103C325.732 81.1897 325.398 79.8154 325.58 78.46C325.734 77.1824 326.358 76.0077 327.33 75.1647C328.302 74.3218 329.554 73.8709 330.84 73.9C332.017 74.0444 333.178 74.2954 334.31 74.65C334.397 74.7287 334.49 74.799 334.59 74.86Z" fill="black"/>
<path d="M324.21 46.87C324.48 46.49 324.76 46.12 325 45.73C325.583 44.7263 326.477 43.9397 327.547 43.4887C328.617 43.0377 329.804 42.9469 330.93 43.23C331.99 43.4519 332.956 43.997 333.694 44.7903C334.432 45.5837 334.905 46.5862 335.05 47.66C335.229 48.7691 335.062 49.9064 334.571 50.9173C334.081 51.9282 333.292 52.7636 332.31 53.31C331.638 53.7019 330.888 53.9407 330.113 54.0095C329.338 54.0783 328.557 53.9753 327.827 53.7079C327.096 53.4405 326.434 53.0153 325.886 52.4625C325.339 51.9098 324.92 51.2431 324.66 50.51C324.393 49.2848 324.262 48.0339 324.27 46.78L324.21 46.87Z" fill="black"/>
<path d="M302.93 76.21C302.899 75.4956 303.012 74.7824 303.263 74.1128C303.514 73.4432 303.898 72.8311 304.391 72.313C304.883 71.795 305.476 71.3816 306.132 71.0976C306.788 70.8136 307.495 70.6647 308.21 70.66C309.659 70.6941 311.037 71.2958 312.047 72.3357C313.057 73.3756 313.618 74.7704 313.61 76.22C313.619 76.9336 313.486 77.6419 313.219 78.3035C312.951 78.9651 312.554 79.5667 312.052 80.0732C311.549 80.5797 310.95 80.9809 310.29 81.2534C309.631 81.5258 308.924 81.6641 308.21 81.66C307.496 81.6808 306.786 81.5527 306.125 81.2839C305.464 81.0151 304.866 80.6114 304.369 80.0987C303.872 79.586 303.488 78.9754 303.24 78.3059C302.992 77.6364 302.887 76.9226 302.93 76.21Z" fill="black"/>
<path d="M334.59 74.86C334.49 74.799 334.397 74.7286 334.31 74.65C334.02 74.19 333.75 73.72 333.44 73.27C332.582 72.1069 332.222 70.6509 332.437 69.2219C332.653 67.7929 333.427 66.5081 334.59 65.65C335.774 64.8268 337.228 64.4873 338.654 64.7011C340.08 64.9149 341.37 65.6658 342.26 66.8C343.09 67.9727 343.434 69.421 343.219 70.8416C343.005 72.2621 342.249 73.5445 341.11 74.42C340.75 74.71 340.4 75.02 340.05 75.31L340.13 75.23C338.283 75.5939 336.373 75.4664 334.59 74.86Z" fill="black"/>
<path d="M330.27 64.11C330.184 64.0313 330.09 63.961 329.99 63.8999C327.76 61.2699 327.33 59.0699 328.59 56.7399C329.2 55.5645 330.229 54.6607 331.473 54.2071C332.717 53.7535 334.087 53.783 335.31 54.2899C336.62 54.7982 337.683 55.7916 338.279 57.0636C338.875 58.3356 338.958 59.7884 338.51 61.1199C338.123 62.3409 337.307 63.3807 336.214 64.0478C335.121 64.7149 333.823 64.9642 332.56 64.7499C331.785 64.5811 331.02 64.3674 330.27 64.11Z" fill="black"/>
<path d="M322.45 72.83C322.99 73.41 323.6 73.95 324.08 74.58C324.514 75.1538 324.828 75.8086 325.005 76.5058C325.181 77.203 325.217 77.9285 325.108 78.6395C325 79.3505 324.751 80.0327 324.375 80.6459C323.999 81.2591 323.505 81.7909 322.92 82.21C322.316 82.6361 321.633 82.9371 320.91 83.095C320.188 83.2529 319.441 83.2647 318.714 83.1295C317.987 82.9944 317.295 82.7151 316.678 82.3081C316.06 81.9012 315.531 81.3748 315.12 80.76C314.356 79.4856 314.122 77.9626 314.468 76.5175C314.814 75.0725 315.712 73.8204 316.97 73.03C318.79 72.03 320.67 72.36 322.53 72.91L322.45 72.83Z" fill="black"/>
<path d="M340.05 75.31C341.05 75.31 341.95 75.31 342.9 75.31C345.8 75.43 347.56 77.44 347.76 80.43C347.871 81.7904 347.441 83.1396 346.563 84.1845C345.684 85.2294 344.429 85.8854 343.07 86.01C341.71 86.2225 340.322 85.8948 339.2 85.0969C338.079 84.299 337.315 83.0942 337.07 81.74C336.843 80.7264 336.91 79.669 337.264 78.6926C337.619 77.7162 338.245 76.8616 339.07 76.23C339.421 75.9147 339.755 75.5809 340.07 75.23L340.05 75.31Z" fill="black"/>
<path d="M252.82 43.77C257.38 49.23 257.48 55.01 252.94 59.87C248.36 57.55 246.76 52.99 249.03 48.6C249.925 46.7322 251.219 45.0835 252.82 43.77Z" fill="black"/>
<path d="M55.5199 106.39L50.5199 106.61V118.3C49.1199 119.3 47.7999 118.94 46.2599 118.85C45.9899 113.53 46.1999 108.31 46.1299 103.1C47.7899 102.36 49.3199 102.73 50.7999 102.67C52.2799 102.61 53.7999 102.67 55.5199 102.67V106.39Z" fill="black"/>
<path d="M68.2101 110.66C68.2101 112.82 68.2101 114.97 68.2101 117.12C68.2101 118.79 67.9001 118.97 65.9101 118.97C63.9201 118.97 63.6301 118.8 63.6101 117.13C63.5701 112.897 63.5701 108.67 63.6101 104.45C63.6101 102.78 64.2501 102.29 66.0401 102.33C67.8301 102.37 68.1801 102.79 68.2201 104.44C68.2101 106.52 68.2101 108.6 68.2101 110.66Z" fill="black"/>
<path d="M127.21 102.66H131.39V118.81H127.26C127.21 113.46 127.28 108.25 127.21 102.66Z" fill="black"/>
<path d="M313.7 80.28C315.57 83.52 316.22 83.97 319.97 84.64C319.17 88.42 316.14 90.31 312.57 89.26C310.25 88.57 308.57 85.26 309.52 83.05C309.842 82.5334 310.303 82.1175 310.85 81.85C311.71 81.31 312.62 80.87 313.7 80.28Z" fill="black"/>
<path d="M339.86 59.14C339.71 58.61 339.58 58.07 339.41 57.54C338.64 55.11 337.34 53.24 334.56 53.12C334.875 51.8786 335.29 50.6647 335.8 49.49C336.2 48.8466 336.835 48.3841 337.57 48.2C338.449 48.0162 339.361 48.0659 340.215 48.3443C341.069 48.6227 341.835 49.12 342.437 49.7866C343.039 50.4533 343.456 51.2661 343.646 52.1439C343.836 53.0218 343.792 53.9341 343.52 54.79C343.028 55.9407 342.333 56.9939 341.47 57.9C340.964 58.3946 340.404 58.8307 339.8 59.2L339.86 59.14Z" fill="black"/>
<path d="M320.28 43.19L322.1 42.47C323.67 43.47 323.69 45.28 324.21 46.87L324.27 46.78C323.97 47.5 323.7 48.23 323.36 48.94C322.981 49.7747 322.39 50.495 321.644 51.0285C320.899 51.562 320.026 51.8898 319.114 51.979C318.202 52.0682 317.282 51.9156 316.448 51.5366C315.613 51.1576 314.893 50.5656 314.36 49.82C316 48.06 317.63 46.34 319.23 44.59C319.624 44.1155 319.995 43.6216 320.34 43.11L320.28 43.19Z" fill="black"/>
<path d="M339.8 59.2L341.19 58.86C344.19 58.21 346.51 59.46 347.45 62.18C348.39 64.9 347.36 67.45 344.4 68.89C343.55 66.1 342.29 63.67 338.67 63.37C339.58 61.96 340.36 60.69 339.86 59.14L339.8 59.2Z" fill="black"/>
<path d="M331.78 85.97C331.2 89.19 328.95 90.97 326.3 90.6C323.06 90.1 320.75 87.72 321.3 84.6L325.06 82.14C325.631 83.4071 326.589 84.4605 327.797 85.1487C329.004 85.8369 330.399 86.1245 331.78 85.97Z" fill="black"/>
<path d="M294.71 22.87C297.97 25.6 298.42 31.87 294.71 34.54C289.83 31.73 290.15 26.83 294.71 22.87Z" fill="black"/>
<path d="M314.13 268.37C314.13 265.78 315.63 264.13 317.97 264.1C318.409 264.058 318.852 264.111 319.268 264.255C319.685 264.399 320.066 264.632 320.385 264.936C320.703 265.241 320.953 265.61 321.116 266.02C321.279 266.43 321.352 266.87 321.33 267.31C321.385 267.869 321.319 268.433 321.137 268.965C320.955 269.497 320.662 269.983 320.276 270.391C319.89 270.8 319.422 271.121 318.901 271.333C318.381 271.545 317.821 271.643 317.26 271.62C315.03 271.6 314.12 270.66 314.13 268.37Z" fill="black"/>
<path d="M326.66 264.1C328.66 264.1 329.84 265.35 329.81 267.48C329.829 268.017 329.739 268.552 329.547 269.054C329.354 269.555 329.062 270.013 328.689 270.399C328.316 270.786 327.868 271.093 327.374 271.303C326.879 271.512 326.347 271.62 325.81 271.62C323.64 271.62 322.63 270.62 322.63 268.39C322.62 265.76 324.21 264.09 326.66 264.1Z" fill="black"/>
<path d="M262.97 51.86C258.77 51.93 255.3 47.36 256.34 43.5C262.3 43.4 264.83 47.66 262.97 51.86Z" fill="black"/>
<path d="M188.85 66.66C188.861 67.0995 188.781 67.5365 188.616 67.9439C188.451 68.3513 188.204 68.7206 187.891 69.0287C187.577 69.3368 187.204 69.5772 186.793 69.735C186.383 69.8928 185.945 69.9647 185.506 69.9462C185.066 69.9276 184.636 69.8191 184.24 69.6273C183.845 69.4355 183.493 69.1645 183.206 68.831C182.92 68.4976 182.705 68.1089 182.575 67.689C182.445 67.2692 182.402 66.827 182.45 66.39C182.45 64.34 183.65 63.24 185.79 63.27C187.93 63.3 188.91 64.55 188.85 66.66Z" fill="black"/>
<path d="M306.94 61.58C307.838 62.2886 308.466 63.2837 308.719 64.3992C308.972 65.5147 308.835 66.6833 308.33 67.7099C307.865 68.85 306.996 69.7784 305.888 70.3173C304.781 70.8561 303.514 70.9674 302.33 70.6299L306.94 61.58Z" fill="black"/>
<path d="M336.54 83.51L339.71 86.98C337.4 89.81 334.15 89.37 332.76 85.91L336.54 83.51Z" fill="black"/>
<path d="M344.64 69.8301C348.36 70.2001 349.49 72.8301 347.49 76.3001L343.31 74.0301L344.64 69.8301Z" fill="black"/>
<path d="M65.8599 100.42C63.9399 100.42 63.3799 99.8899 63.4199 98.0999C63.4599 96.3099 63.9899 95.9699 65.8199 95.9399C67.8799 95.9399 68.3599 96.3199 68.3599 98.1199C68.3599 99.9199 67.8199 100.41 65.8599 100.42Z" fill="black"/>
<path d="M129.36 95.9399C131.36 95.9399 131.74 96.2499 131.73 98.2299C131.72 100.21 131.37 100.45 129.27 100.42C127.42 100.42 126.96 99.9699 126.93 98.2499C126.9 96.5299 127.39 95.9499 129.36 95.9399Z" fill="black"/>
</g>
<defs>
<clipPath id="clip0_5_522">
<rect width="570.89" height="317.81" fill="white"/>
</clipPath>
</defs>
</svg>
