<svg width="16" height="16" viewBox="0 0 16 16" fill="none" xmlns="http://www.w3.org/2000/svg">
<path d="M8 16C6.41775 16 4.87103 15.5308 3.55544 14.6518C2.23985 13.7727 1.21447 12.5233 0.608967 11.0615C0.00346628 9.59966 -0.15496 7.99113 0.153721 6.43928C0.462403 4.88743 1.22433 3.46197 2.34315 2.34315C3.46197 1.22433 4.88743 0.462403 6.43928 0.153721C7.99113 -0.15496 9.59966 0.00346628 11.0615 0.608967C12.5233 1.21447 13.7727 2.23985 14.6518 3.55544C15.5308 4.87103 16 6.41775 16 8C16 10.1217 15.1571 12.1566 13.6569 13.6569C12.1566 15.1571 10.1217 16 8 16V16ZM8 1.23077C6.66117 1.23077 5.35241 1.62778 4.23922 2.37159C3.12603 3.11541 2.2584 4.17262 1.74605 5.40953C1.2337 6.64644 1.09965 8.00751 1.36084 9.32061C1.62203 10.6337 2.26674 11.8399 3.21343 12.7866C4.16013 13.7333 5.36629 14.378 6.67939 14.6392C7.99249 14.9004 9.35356 14.7663 10.5905 14.254C11.8274 13.7416 12.8846 12.874 13.6284 11.7608C14.3722 10.6476 14.7692 9.33883 14.7692 8C14.7692 6.20469 14.056 4.48291 12.7866 3.21343C11.5171 1.94396 9.79531 1.23077 8 1.23077Z" fill="black"/>
<path d="M7.99991 12.3076C7.8367 12.3076 7.68017 12.2428 7.56476 12.1274C7.44936 12.012 7.38452 11.8555 7.38452 11.6923V4.30765C7.38452 4.14444 7.44936 3.98791 7.56476 3.8725C7.68017 3.7571 7.8367 3.69226 7.99991 3.69226C8.16312 3.69226 8.31964 3.7571 8.43505 3.8725C8.55046 3.98791 8.61529 4.14444 8.61529 4.30765V11.6923C8.61529 11.8555 8.55046 12.012 8.43505 12.1274C8.31964 12.2428 8.16312 12.3076 7.99991 12.3076Z" fill="black"/>
<path d="M11.6924 8.61541H4.30777C4.14456 8.61541 3.98803 8.55058 3.87262 8.43517C3.75722 8.31976 3.69238 8.16324 3.69238 8.00003C3.69238 7.83682 3.75722 7.68029 3.87262 7.56489C3.98803 7.44948 4.14456 7.38464 4.30777 7.38464H11.6924C11.8556 7.38464 12.0121 7.44948 12.1275 7.56489C12.2429 7.68029 12.3078 7.83682 12.3078 8.00003C12.3078 8.16324 12.2429 8.31976 12.1275 8.43517C12.0121 8.55058 11.8556 8.61541 11.6924 8.61541Z" fill="black"/>
</svg>
