<svg width="11" height="16" viewBox="0 0 11 16" fill="none" xmlns="http://www.w3.org/2000/svg">
<path d="M4.25509 0.5C3.57684 0.5 2.92022 0.698303 2.35502 1.07262L0.990178 1.97816L1.75021 3.11275L3.11505 2.20721C3.45417 1.98221 3.84814 1.86364 4.25509 1.86364H7.25908C8.16751 1.86364 8.90625 2.59884 8.90625 3.50293C8.90625 3.99111 8.69028 4.45107 8.31348 4.76403L7.70064 5.27273H0V6.63636H6.05614L3.58873 8.68182H0V10.0455H1.94557L1.77162 10.1893C1.08172 10.762 0.685096 11.6032 0.685096 12.4971C0.685096 14.1532 2.03836 15.5 3.70246 15.5H6.70645C7.3847 15.5 8.042 15.3017 8.60652 14.9274L9.97136 14.0218L9.21133 12.8873L7.84649 13.7928C7.50737 14.0178 7.1134 14.1364 6.70645 14.1364H3.70246C2.79403 14.1364 2.05529 13.4012 2.05529 12.4971C2.05529 12.0089 2.27125 11.5489 2.64806 11.236L4.08382 10.0455H10.9615V8.68182H5.72831L8.19439 6.63636H10.9615V5.27273H9.69438C10.0682 4.76387 10.2764 4.14779 10.2764 3.50293C10.2764 1.84679 8.92317 0.5 7.25908 0.5H4.25509Z" fill="black"/>
</svg>
